<?xml version="1.0" encoding="utf-8"?>
<!-- Generator: Adobe Illustrator 25.0.0, SVG Export Plug-In . SVG Version: 6.00 Build 0)  -->
<svg version="1.1" id="Calque_1" xmlns="http://www.w3.org/2000/svg" xmlns:xlink="http://www.w3.org/1999/xlink" x="0px" y="0px"
	 viewBox="0 0 520 110" style="enable-background:new 0 0 520 110;" xml:space="preserve">
<style type="text/css">
	.st0{fill:none;stroke:url(#SVGID_1_);stroke-width:6;}
	.st1{fill:url(#SVGID_2_);}
</style>
<linearGradient id="SVGID_1_" gradientUnits="userSpaceOnUse" x1="-36.9229" y1="470.6612" x2="-35.9229" y2="469.6612" gradientTransform="matrix(480 0 0 -70 17743 32966.2852)">
	<stop  offset="0" style="stop-color:#FF4FD8"/>
	<stop  offset="1" style="stop-color:#FFB56B"/>
</linearGradient>
<path class="st0" d="M30,20h460c5.5,0,10,4.5,10,10v50c0,5.5-4.5,10-10,10H30c-5.5,0-10-4.5-10-10V30C20,24.5,24.5,20,30,20z"/>
<linearGradient id="SVGID_2_" gradientUnits="userSpaceOnUse" x1="-36.9203" y1="468.612" x2="-35.9203" y2="468.612" gradientTransform="matrix(464 0 0 -54 17159 25360.0469)">
	<stop  offset="0" style="stop-color:#2B1B2F"/>
	<stop  offset="1" style="stop-color:#1D1624"/>
</linearGradient>
<path class="st1" d="M36,28h448c4.4,0,8,3.6,8,8v38c0,4.4-3.6,8-8,8H36c-4.4,0-8-3.6-8-8V36C28,31.6,31.6,28,36,28z"/>
</svg>
