<?xml version="1.0" encoding="utf-8"?>
<svg version="1.1" id="Calque_1" xmlns="http://www.w3.org/2000/svg" xmlns:xlink="http://www.w3.org/1999/xlink" x="0px" y="0px" viewBox="0 0 595.3 841.9" style="enable-background:new 0 0 595.3 841.9;" xml:space="preserve">
<style type="text/css">.st0{clip-path:url(#SVGID_2_);}.st1{opacity:0.2;clip-path:url(#SVGID_4_);}.st2{clip-path:url(#SVGID_6_);}.st3{clip-path:url(#SVGID_6_);fill:none;stroke:#FFFFFF;stroke-width:0.5;}.st4{clip-path:url(#SVGID_4_);fill:#FFFFFF;}.st5{clip-path:url(#SVGID_2_);fill:#FFFFFF;}.st6{clip-path:url(#SVGID_8_);fill:#FFFFFF;}</style>
<g><defs><rect id="SVGID_1_" x="261.5" y="430.5" width="25" height="8.5"/></defs><clipPath id="SVGID_2_"><use xlink:href="#SVGID_1_" style="overflow:visible;"/></clipPath><g class="st0"><defs><rect id="SVGID_3_" x="261.5" y="430.5" width="25" height="8.5"/></defs><clipPath id="SVGID_4_"><use xlink:href="#SVGID_3_" style="overflow:visible;"/></clipPath><g class="st1"><g><defs><rect id="SVGID_5_" x="246.6" y="396.6" width="69.4" height="49.2"/></defs><clipPath id="SVGID_6_"><use xlink:href="#SVGID_5_" style="overflow:visible;"/></clipPath><path class="st2" d="M265.7,431.2c-1.9,0-3.5,1.6-3.5,3.5c0,1.9,1.6,3.5,3.5,3.5h16.4c1.9,0,3.5-1.6,3.5-3.5c0-1.9-1.6-3.5-3.5-3.5H265.7z"/><path class="st3" d="M265.7,430.7c-2.2,0-4,1.8-4,4c0,2.2,1.8,4,4,4h16.4c2.2,0,4-1.8,4-4c0-2.2-1.8-4-4-4H265.7z"/><path class="st3" d="M265.7,431.7c-1.7,0-3,1.3-3,3c0,1.7,1.3,3,3,3h16.4c1.7,0,3-1.3,3-3c0-1.7-1.3-3-3-3H265.7z"/></g></g><path class="st4" d="M271.9,436.6l-4.3-3.7h-1.5c-1.2,0-2.1,0.8-2.1,1.8c0,0.5,0.2,1,0.6,1.3c0.4,0.3,0.9,0.5,1.5,0.5H271.9z"/></g><polygon class="st5" points="278.8,436.6 274.5,432.9 269,432.9 273.3,436.6"/><g class="st0"><defs><rect id="SVGID_7_" x="261.5" y="430.5" width="25" height="8.5"/></defs><clipPath id="SVGID_8_"><use xlink:href="#SVGID_7_" style="overflow:visible;"/></clipPath><path class="st6" d="M283.9,434.8c0-0.5-0.2-1-0.6-1.3c-0.4-0.3-0.9-0.5-1.5-0.5H276l4.3,3.7h1.5C283,436.6,283.9,435.8,283.9,434.8"/></g></g></svg>
