<?xml version="1.0" encoding="utf-8"?>
<!-- Generator: Adobe Illustrator 25.0.0, SVG Export Plug-In . SVG Version: 6.00 Build 0)  -->
<svg version="1.1" id="Calque_1" xmlns="http://www.w3.org/2000/svg" xmlns:xlink="http://www.w3.org/1999/xlink" x="0px" y="0px"
	 viewBox="0 0 257.5 87.8" style="enable-background:new 0 0 257.5 87.8;" xml:space="preserve">
<style type="text/css">
	.st0{fill:#B8B4B1;}
	.st1{fill:#F1F1F1;}
	.st2{fill:#E4E3E3;}
	.st3{fill:#FFFFFF;}
	.st4{fill:#010101;}
</style>
<g>
	<g>
		<polygon class="st0" points="18.9,65.4 0,65.4 0,22.4 18.9,22.4 34.7,43.9 		"/>
		<polygon class="st0" points="238.6,65.4 257.5,65.4 257.5,22.4 238.6,22.4 222.9,43.9 		"/>
	</g>
	<g>
		<path class="st1" d="M34.9,87.8c-2.4,0-4.7-1.2-6.1-3.2L0.9,45.4c-1.8-2.6-1.8-6,0-8.6L28.8,3.6c1.4-2.2,3.8-3.6,6.5-3.6
			h187.3c2.6,0,5.1,1.4,6.5,3.6L256.5,37c1.7,2.5,1.7,5.8,0,8.3l-27.4,39.1c-1.4,2.1-3.7,3.3-6.2,3.3H34.9z"/>
		<path class="st2" d="M222.6,4c1.2,0,2.3,0.6,3,1.6l27.4,33.4c0.7,1.3,0.7,2.9,0,4.2l-27.5,39.1c-0.7,1.1-1.9,1.6-3.2,1.6
			H34.9c-1.3,0-2.5-0.6-3.2-1.6L3.8,43.1c-0.8-1.3-0.8-2.9,0-4.2L31.8,5.8C32.5,4.7,33.7,4,35.1,4H222.6 M222.6,0H35.1
			c-2.7,0-5.1,1.4-6.5,3.6L0.8,36.8c-1.8,2.6-1.8,6,0,8.6l27.9,39.2c1.4,2,3.7,3.2,6.1,3.2h187.8c2.5,0,4.8-1.2,6.2-3.3
			l27.4-39.1c1.7-2.5,1.7-5.8,0-8.3L228.9,3.6C227.6,1.4,225.2,0,222.6,0L222.6,0z"/>
	</g>
	<polygon class="st3" points="219.3,11.3 38.3,11.3 12.2,41.2 38.3,77.1 219.3,77.1 245.3,41.2 	"/>
	<g>
		<path class="st4" d="M36.7,70.5L17,41.5l19.6-23.8h184.1l19.6,23.8l-19.6,29H36.7z M42.1,59.8h173.4l11.2-18.3l-11.2-18.3H42.1
			L30.9,41.5L42.1,59.8z"/>
	</g>
</g>
</svg>
