<?xml version="1.0" encoding="utf-8"?>
<!-- Generator: Adobe Illustrator 25.0.0, SVG Export Plug-In . SVG Version: 6.00 Build 0)  -->
<svg version="1.1" id="Calque_1" xmlns="http://www.w3.org/2000/svg" xmlns:xlink="http://www.w3.org/1999/xlink" x="0px" y="0px"
	 viewBox="0 0 432.9 399.7" style="enable-background:new 0 0 432.9 399.7;" xml:space="preserve">
<style type="text/css">
	.st0{fill:#FF5757;}
</style>
<path d="M432.8,181.2c0.6,9.9-1.1,19.9-4.9,29.1c-2.1,4.9-4.5,9.7-7.1,14.4c-7.5,13.5-15.7,26.5-24.7,39
	c-8.3,11.8-17,23.4-26.2,34.6c-4.3,5.3-8.9,10.2-13.9,14.9c-4,3.8-8.6,6.8-13.1,10c-15.2,11-30.3,22-45.6,32.7
	c-16.8,12-34.2,23-52.2,33.1c-4.9,2.7-9.9,5.2-15,7.4c-3.6,1.3-7.3,2.4-11.1,3.1c-1.3,0.2-2.7,0.2-4-0.2c-5.5-1.1-10.8-2.8-15.9-5.2
	c-8.7-4.1-17.3-8.8-25.5-13.8c-12.4-7.7-24.8-15.5-37.1-23.4c-16.4-10.6-32.3-21.9-47.9-33.5c-1.6-1.2-3.2-2.5-4.8-3.6
	c-4.3-3.2-8-7.1-11.1-11.5c-10.6-14.6-21.3-29.1-31.7-43.9c-11.6-16.6-22.9-33.3-33.1-50.8c-1.9-3.2-3.6-6.6-5.2-10
	c-2.4-5.6-3.4-11.7-3-17.8c0.5-11,1.4-22,3-32.9c2.1-15,4.2-30,6.6-45c1.8-10.8,4-21.5,6.1-32.2c2.2-11.5,4.8-23,8.1-34.2
	c1.3-4.6,2.9-9.1,4.7-13.6c2.1-4.7,5.7-8.6,10.3-10.9c5.4-2.6,11-4.6,16.9-6c10.7-2.8,21.5-5,32.4-6.4c9.7-1.2,19.5-2.4,29.3-3.2
	c6.2-0.5,12.5-0.5,18.7,0c7.2,0.6,13.7,3.8,19.7,7.7c11.1,7.2,22.1,14.6,33.3,21.8c7.5,4.9,15,9.8,22.7,14.2c6.6,3.8,4.2,3.7,11,0.2
	c9.2-4.7,18.2-9.9,27.2-15.1c14.8-8.6,29.4-17.5,44.1-26.1c4.5-2.6,9.6-3.6,14.7-3.8c8.9-0.4,17.7,0.3,26.6,1.2
	c13.6,1.4,27.1,3.8,40.3,7.3c5.6,1.4,11,3.3,16.2,5.8c6.9,3.3,12.2,9.1,14.8,16.2c3.4,9,6.2,18.3,8.3,27.7
	c2.4,10.4,4.7,20.7,6.6,31.1c2.4,13.5,4.6,27.1,6.4,40.7c1.6,12,2.7,24.1,3.9,36.2C432.4,171.3,432.5,176.3,432.8,181.2z
	 M417.3,183.3h0.6c-0.7-9.5-1.2-19-2.1-28.4c-1-9.9-2.2-19.7-3.6-29.5c-1.3-9.3-2.8-18.6-4.4-27.9c-2.5-14.3-5.2-28.6-9.1-42.6
	c-1.7-6.7-3.9-13.2-6.5-19.5c-1.3-3.2-3.8-5.8-7-7.2c-6.6-3.2-13.6-5.5-20.8-7c-11-2.5-22.1-4.2-33.4-5.1c-7.2-0.7-14.3-1-21.5-0.8
	c-3.2,0.1-6.3,1-9.1,2.7c-14,8.3-28,16.6-42.1,24.9c-7.9,4.7-15.8,9.3-23.9,13.7c-4,2.1-8,3.9-12.2,5.5c-2.1,0.8-4.4,1.6-6.8,0.9
	c-2.5-0.6-5-1.5-7.4-2.6c-9.5-4.8-18.2-10.9-27.1-16.8c-8.9-5.8-17.4-11.7-26.1-17.3c-4.6-2.9-9.3-5.5-14-8.2c-1.9-1-4-1.7-6.1-1.8
	c-5.9-0.4-11.8-0.3-17.7,0.3c-9,0.8-18,1.7-26.9,2.8c-10.6,1.3-21.1,3.4-31.5,6.2c-4.4,1.2-8.7,2.8-12.7,4.8c-1.7,0.8-3,2.2-3.6,4
	c-1.1,2.9-2.3,5.8-3.2,8.8c-3.7,12.1-6.6,24.3-8.9,36.7c-2.3,11.5-4.3,23.1-6.2,34.6c-1.8,10.9-3.5,21.9-4.9,32.9
	c-1.1,8.3-2,16.6-2.7,25c-0.5,5.6-0.6,11.2-0.8,16.7c-0.2,3,0.5,6.1,2,8.8c1.5,2.6,2.8,5.4,4.3,8c10.3,17.8,21.8,34.8,33.6,51.6
	c9.6,13.7,19.5,27.1,29.3,40.6c2.6,3.8,5.9,7.2,9.6,10c11.2,8.1,22.3,16.4,33.6,24.3c8.8,6.2,17.9,12,26.9,17.9
	c7.9,5.1,15.9,10.2,23.9,15.1c6.2,3.8,12.6,7.3,19,10.7c5.4,3,11,5.5,16.8,7.6c2.2,0.9,4.8,0.9,7-0.1c4.6-2.1,9.4-4,13.9-6.4
	c11.6-6.1,22.7-13,33.6-20.3c8.9-5.9,17.9-11.8,26.6-17.9c13.1-9.2,26-18.6,38.9-28c3.9-2.9,8-5.6,11.5-8.9c4.6-4.5,8.9-9.2,13-14.2
	c12.4-15,23.9-30.8,34.5-47.1c7.3-11.3,14.3-22.7,19.9-34.9c1.9-4.2,3.8-8.5,4-13.2C417.4,189.5,417.3,186.4,417.3,183.3
	L417.3,183.3z"/>
<path class="st0" d="M417.3,183.3c0,3.1,0.1,6.2,0,9.4c-0.2,4.7-2,9-4,13.2c-5.6,12.2-12.6,23.7-19.9,34.9
	c-10.6,16.4-22.2,32.1-34.6,47.1c-4.1,5-8.5,9.8-13.2,14.2c-3.5,3.3-7.6,6.1-11.5,8.9c-12.9,9.4-25.8,18.8-38.9,28
	c-8.7,6.1-17.7,12-26.6,17.9c-10.9,7.3-22.1,14.1-33.6,20.3c-4.5,2.4-9.2,4.3-13.9,6.4c-2.2,1-4.8,1-7,0.1
	c-5.8-2.1-11.4-4.6-16.8-7.6c-6.4-3.5-12.8-7-19-10.7c-8.1-4.9-16-10-23.9-15.1c-9-5.9-18.1-11.7-26.9-17.9
	c-11.3-7.9-22.4-16.2-33.6-24.3c-3.7-2.8-6.9-6.2-9.6-10c-9.8-13.5-19.7-27-29.3-40.6c-11.7-16.8-23.2-33.8-33.5-51.6
	c-1.5-2.6-2.8-5.4-4.3-8c-1.5-2.7-2.2-5.7-2-8.8c0.2-5.6,0.3-11.2,0.8-16.8c0.8-8.4,1.6-16.7,2.7-25c1.5-11,3.1-22,4.9-32.9
	c1.9-11.6,4-23.1,6.2-34.7c2.3-12.4,5.3-24.7,8.9-36.8c0.9-3,2.1-5.9,3.2-8.8c0.7-1.8,2-3.2,3.7-4c4.1-2,8.3-3.6,12.7-4.8
	c10.3-2.8,20.8-4.9,31.5-6.2c9-1.2,17.9-2.1,26.9-2.8c5.9-0.6,11.8-0.7,17.7-0.3c2.2,0.2,4.3,0.8,6.2,1.9c4.7,2.7,9.5,5.3,14,8.2
	c8.8,5.7,17.4,11.6,26.2,17.3c8.7,5.8,17.6,12,27.1,16.8c2.4,1.1,4.9,2,7.4,2.6c2.3,0.7,4.7,0,6.8-0.9c4.2-1.6,8.3-3.4,12.2-5.5
	c8.1-4.4,16-9.1,23.9-13.7c14.1-8.2,28.1-16.5,42.1-24.9c2.7-1.6,5.9-2.6,9-2.7c7.2-0.2,14.4,0.1,21.5,0.8c11.2,1,22.4,2.7,33.4,5.2
	c7.2,1.5,14.2,3.8,20.8,7c3.2,1.4,5.7,4,7,7.2c2.6,6.3,4.8,12.9,6.5,19.5c3.8,14,6.6,28.3,9.1,42.6c1.6,9.3,3.1,18.6,4.4,27.9
	c1.4,9.8,2.6,19.6,3.6,29.5c0.9,9.4,1.4,18.9,2.1,28.4L417.3,183.3z M162,249.5c0.5,3.5,1,7.1,1.4,10.8c0.2,1.3,0.2,2.6,0.4,3.8
	c0.8,3.8,1.7,7.6,2.4,11.4c1.2,5.8,2.2,11.7,5,17.1c1.8,3.4,3.3,6.9,5.3,10.1c3.1,5.1,6.6,10,10.5,14.5c4.3,5,9.4,9.4,15,12.9
	c7.8,4.9,17.3,6,26,2.9c5-1.7,9.3-4.6,13.3-8c4.8-4,9-8.5,12.6-13.6c2.4-3.3,4.6-6.9,6.6-10.4c1.8-3.1,3.3-6.3,4.9-9.5
	c1.4-2.6,2.4-5.4,2.9-8.3c0.5-2.8,1.2-5.6,1.8-8.4c1-4.9,1.9-9.8,2.8-14.7c0.4-2.4,0.8-4.8,1.2-7.3c0.2-0.6,0.5-1.1,1-1.4
	c3.4-2.3,6.9-4.3,10.6-5.9c4.2-1.7,6.3-6.4,4.6-10.6c0,0,0-0.1,0-0.1c-1.2-3.1-2-3.4-4.9-1.8l-0.2,0.1c-6.7,3.8-14.3,5.8-22,5.9
	c-4.6-0.1-9.2-0.6-13.8-1.6c-10.2-1.6-19.5-6.6-26.6-14.2c-1.2-1.3-2.8-2.2-4.5-2.7c-2.2-1-4.7-0.3-6.1,1.5
	c-13.1,13.8-33.2,18.2-50.9,11.1c-3.8-1.5-7.3-3.5-10.7-5.9c-1.5-1.1-2-1.1-3.4,0.1c-0.4,0.3-0.8,0.7-1.2,1.2
	c-2.9,3.7-2.2,9.1,1.5,12c0.3,0.2,0.5,0.4,0.8,0.6c3,1.9,6,4,9,5.9C159,247.8,160.4,248.6,162,249.5z M140.4,132.4v-0.9
	c0.7-0.4,1.3-0.9,1.9-1.4c3.8-3.7,7.5-7.5,11.2-11.2c7.4-7.4,14.8-14.8,22.2-22.2c1.1-1.1,2-2.4,2.7-3.9c1.2-3.2,0.2-5.9-2.2-8.3
	c-2.6-2.6-5.3-5.1-7.8-7.8c-4.2-4.6-9.2-4.6-13.6,0c-10.1,10.4-20.5,20.6-30.8,30.9c-1.3,1.3-2.6,2.5-4.3,4.2
	c-0.5-0.8-1.1-1.6-1.7-2.3c-10.8-10.9-21.7-21.7-32.6-32.6c-0.6-0.6-1.2-1.2-1.9-1.8c-3.2-2.6-7-2.8-10-0.1
	c-3.7,3.3-7.1,6.9-10.5,10.5c-1.7,1.9-2.3,4.5-1.5,6.9c0.6,1.8,1.6,3.3,3,4.5L97.6,130c0.6,0.6,1.2,1.2,1.9,2
	c-0.7,0.7-1.3,1.4-1.9,2c-11,11-22,22-33.1,33.1c-1.1,1.1-2.1,2.4-2.7,3.8c-1.4,3.3-0.3,6.2,2.1,8.7c2.8,2.8,5.6,5.7,8.4,8.5
	c0.6,0.6,1.3,1.2,2.1,1.6c1.6,1,3.6,1.4,5.5,1c1.9-0.5,3.7-1.6,5-3.1c11.1-11.1,22.2-22.1,33.2-33.2c0.6-0.6,1.2-1.2,1.9-1.8
	c0.5,0.5,0.9,0.8,1.2,1.1l33.5,33.3c0.5,0.5,1,1,1.5,1.5c3,3,7.8,3,10.7,0c0,0,0,0,0,0c3.3-3.1,6.5-6.4,9.7-9.7
	c2.2-2.1,2.8-5.3,1.6-8c-0.7-1.4-1.6-2.7-2.8-3.8c-11-11-22-22.1-33.1-33C141.8,133.5,141.2,132.9,140.4,132.4z M339.9,132.3
	c0.9-1,1.4-1.5,1.8-1.9c3.9-3.9,7.8-7.8,11.7-11.7c7.3-7.3,14.6-14.6,21.9-21.9c1.2-1.1,2.1-2.4,2.7-3.8c1.3-3.2,0.3-6.1-2.1-8.5
	c-2.9-2.9-5.8-5.8-8.7-8.6c-0.6-0.6-1.3-1.2-2.1-1.6c-1.6-1-3.5-1.3-5.3-0.9c-2,0.5-3.8,1.6-5.2,3.2l-33,33.1c-0.6,0.6-1.2,1.2-2,2
	c-0.7-0.7-1.4-1.3-2-1.9l-32.9-32.9c-0.6-0.6-1.1-1.1-1.7-1.7c-2.8-2.6-7.2-2.6-10,0c-3.6,3.3-7,6.8-10.3,10.4
	c-2,2.1-2.5,5.2-1.2,7.8c0.7,1.4,1.6,2.6,2.7,3.6c11,11.1,22.1,22.2,33.2,33.2c0.6,0.6,1.2,1.2,2,2.2c-0.9,0.7-1.6,1.2-2.2,1.8
	c-11,11-21.9,22-33,32.8c-4.4,4.3-4.5,9.4,0.1,13.4c2.6,2.3,4.9,4.9,7.3,7.3c0.6,0.6,1.3,1.2,2,1.7c1.7,1.3,4,1.7,6.1,1.2
	c1.8-0.5,3.4-1.5,4.6-2.9l33.4-33.4c0.6-0.6,1.2-1.2,1.9-1.8c0.5,0.4,0.8,0.6,1,0.9c8.7,8.7,17.4,17.4,26.1,26.2
	c2.9,2.9,5.8,5.9,8.8,8.8c3.3,3.3,7.8,3.4,11.1,0.2s6.5-6.4,9.7-9.7c2.2-2.1,2.8-5.3,1.6-8c-0.7-1.4-1.6-2.7-2.8-3.8
	c-10.9-11-21.9-22-32.9-33C341.5,133.4,340.7,132.8,339.9,132.3z M217.5,164.7c-0.7-0.5-1.2-0.9-1.8-1.2c-2.9-1.4-6.3-0.8-8.5,1.5
	c-2.5,3.1-2.3,7.5,0.4,10.4c2.5,2.4,5.1,4.7,7.7,7c1.5,1.3,2.9,1.2,4.4-0.1c1.7-1.5,3.5-3,5.2-4.6c2.6-2.3,4.9-4.6,4.4-8.7
	c-0.4-3.6-2.6-6.1-6.2-6.2C221.1,162.6,219.1,163.3,217.5,164.7z"/>
<path d="M162,249.5c-1.6-0.9-3.1-1.7-4.4-2.5c-3-1.9-6-4-9-5.9c-4-2.5-5.3-7.7-2.8-11.7c0.2-0.3,0.4-0.5,0.6-0.8
	c0.3-0.4,0.7-0.8,1.2-1.2c1.4-1.1,1.9-1.1,3.4-0.1c3.3,2.4,6.9,4.4,10.7,5.9c17.6,7.1,37.8,2.6,50.9-11.1c1.5-1.9,4-2.5,6.1-1.5
	c1.7,0.5,3.2,1.4,4.5,2.7c7,7.6,16.4,12.5,26.6,14.2c4.5,1,9.1,1.5,13.8,1.6c7.7-0.1,15.3-2.1,22-5.9l0.2-0.1
	c2.9-1.6,3.6-1.3,4.9,1.8c1.7,4.2-0.2,9-4.4,10.7c0,0-0.1,0-0.1,0c-3.7,1.6-7.3,3.6-10.6,5.9c-0.5,0.3-0.8,0.8-1,1.4
	c-0.5,2.4-0.8,4.8-1.2,7.3c-0.9,4.9-1.8,9.8-2.8,14.7c-0.5,2.8-1.3,5.6-1.8,8.4c-0.5,2.9-1.5,5.7-2.9,8.3c-1.6,3.2-3.1,6.4-4.9,9.5
	c-2.1,3.5-4.2,7.1-6.6,10.4c-3.6,5.1-7.8,9.6-12.6,13.6c-4,3.3-8.3,6.3-13.3,8c-8.7,3.1-18.2,2-26-2.9c-5.6-3.5-10.7-7.8-15-12.9
	c-3.9-4.5-7.5-9.3-10.5-14.5c-2-3.2-3.5-6.8-5.3-10.1c-2.8-5.4-3.8-11.2-5-17.1c-0.8-3.8-1.7-7.6-2.4-11.4c-0.2-1.2-0.2-2.5-0.4-3.8
	C163,256.6,162.5,253.1,162,249.5z"/>
<path d="M140.4,132.4c0.7,0.5,1.4,1.1,2.1,1.6c11,11,22.1,22,33.1,33.1c1.2,1.1,2.1,2.4,2.8,3.8c1.2,2.7,0.6,5.9-1.6,8
	c-3.1,3.3-6.4,6.5-9.7,9.7c-3,3-7.8,3-10.7,0c0,0,0,0,0,0c-0.5-0.5-1-1-1.5-1.5l-33.5-33.4c-0.3-0.3-0.7-0.6-1.2-1.1
	c-0.7,0.6-1.3,1.2-1.9,1.8c-11.1,11.1-22.2,22.2-33.2,33.2c-1.3,1.5-3.1,2.6-5,3.1c-1.9,0.4-3.9,0-5.5-1c-0.7-0.4-1.4-1-2.1-1.6
	c-2.8-2.8-5.7-5.6-8.5-8.5c-2.5-2.5-3.5-5.4-2.1-8.7c0.7-1.4,1.6-2.8,2.8-3.8c11-11.1,22-22.1,33.1-33.1c0.6-0.6,1.2-1.2,1.9-2
	c-0.7-0.7-1.3-1.4-1.9-2l-33.1-33c-1.4-1.2-2.4-2.8-3-4.5c-0.8-2.4-0.2-5,1.5-6.9c3.4-3.6,6.8-7.2,10.5-10.5c3-2.7,6.8-2.5,10,0.1
	c0.7,0.6,1.3,1.2,1.9,1.8c10.9,10.9,21.7,21.7,32.6,32.6c0.6,0.7,1.2,1.5,1.7,2.3c1.7-1.7,3.1-2.9,4.4-4.2
	c10.3-10.3,20.7-20.5,30.8-30.9c4.4-4.6,9.4-4.6,13.6,0c2.5,2.7,5.2,5.2,7.8,7.8c2.3,2.3,3.4,5.1,2.2,8.3c-0.6,1.5-1.5,2.8-2.7,3.9
	c-7.4,7.5-14.8,14.8-22.2,22.2c-3.7,3.7-7.4,7.4-11.2,11.1c-0.6,0.5-1.3,1-1.9,1.4L140.4,132.4z"/>
<path d="M339.9,132.3c0.8,0.5,1.6,1.1,2.3,1.7c11,11,22.1,22,33.1,33.1c1.1,1.1,2.1,2.4,2.8,3.8c1.2,2.7,0.6,5.9-1.6,8
	c-3.1,3.3-6.3,6.5-9.7,9.7s-7.8,3-11.1-0.2c-3-2.9-5.9-5.9-8.8-8.8c-8.7-8.7-17.4-17.4-26.1-26.1c-0.3-0.3-0.6-0.5-1-0.9
	c-0.7,0.6-1.3,1.2-1.9,1.8l-33.4,33.4c-1.2,1.4-2.8,2.4-4.6,2.9c-2.1,0.5-4.4,0.1-6.1-1.2c-0.7-0.5-1.4-1.1-2-1.7
	c-2.4-2.4-4.8-5-7.3-7.3c-4.6-4.1-4.5-9.2-0.1-13.4c11.1-10.8,22-21.9,33-32.8c0.6-0.6,1.4-1.1,2.2-1.8c-0.9-0.9-1.4-1.6-2-2.2
	c-11.1-11.1-22.2-22.2-33.2-33.3c-1.1-1-2-2.2-2.7-3.6c-1.3-2.6-0.8-5.7,1.2-7.8c3.3-3.6,6.8-7,10.3-10.4c2.8-2.6,7.2-2.6,10,0
	c0.6,0.5,1.2,1.1,1.7,1.7l32.9,32.9c0.6,0.6,1.2,1.2,2,1.9c0.8-0.7,1.4-1.3,2-2l33-33.1c1.4-1.6,3.2-2.7,5.2-3.2
	c1.8-0.3,3.7,0,5.3,0.9c0.8,0.4,1.5,1,2.1,1.6c2.9,2.9,5.8,5.7,8.7,8.6c2.4,2.4,3.4,5.3,2.1,8.5c-0.7,1.4-1.6,2.7-2.7,3.8
	c-7.2,7.3-14.6,14.6-21.9,21.9c-3.9,3.9-7.8,7.8-11.7,11.7C341.3,130.9,340.8,131.3,339.9,132.3z"/>
<path d="M217.5,164.7c1.5-1.4,3.6-2.1,5.6-1.9c3.6,0.2,5.8,2.7,6.2,6.2c0.5,4.1-1.8,6.4-4.4,8.7c-1.7,1.6-3.4,3.1-5.2,4.6
	c-1.6,1.3-2.9,1.4-4.4,0.1c-2.6-2.3-5.3-4.6-7.7-7c-2.7-2.9-2.8-7.3-0.4-10.4c2.2-2.3,5.6-2.9,8.5-1.5
	C216.3,163.8,216.8,164.2,217.5,164.7z"/>
</svg>
