<svg id="Calque_1" data-name="Calque 1" xmlns="http://www.w3.org/2000/svg" viewBox="0 0 103.56 95.82"><defs><style>.cls-1,.cls-2{fill:none;stroke:#000;stroke-miterlimit:10;stroke-width:3px;}.cls-2{stroke-dasharray:12.26 12.26;}</style></defs><path class="cls-1" d="M278.08,350.8l.81-.11c.59-.07,1.17-.11,1.76-.17s1.4-.16,2.1-.22c.43,0,.86-.05,1.3-.07v0c.44,0,.88-.07,1.33-.06.79,0,1.58,0,2.37.12a7.38,7.38,0,0,1,2.21.59" transform="translate(-254.37 -348.5)"/><path class="cls-2" d="M300.3,357.47c1,.63,1.95,1.25,2.94,1.87s1.87,1.1,2.8,1.66a.52.52,0,0,0,.56,0c1.12-.59,2.24-1.18,3.34-1.78s2-1.13,3-1.71,2-1.16,3-1.74l3.18-1.89c1.33-.8,2.66-1.6,4-2.38a8.19,8.19,0,0,1,2.82-1.28,11.74,11.74,0,0,1,1.55-.2q1.35-.06,2.7,0c.89,0,1.78.13,2.67.21.62.05,1.24.09,1.86.17.87.11,1.73.24,2.6.38s1.67.28,2.5.46c1.24.26,2.47.55,3.7.86a17.8,17.8,0,0,1,3.22,1.19,6.9,6.9,0,0,1,2.09,1.44,7.52,7.52,0,0,1,1.61,2.69,47.75,47.75,0,0,1,1.68,5.62c.32,1.37.64,2.75.92,4.13s.53,2.7.79,4.05c.17.9.35,1.81.49,2.71.19,1.13.34,2.26.51,3.39.15,1,.31,1.94.44,2.92s.19,1.67.29,2.51l.33,2.84c.05.47.07.95.11,1.42.07.65.15,1.29.22,1.94,0,.28,0,.57.06.85l.06,1.69c0,.86.1,1.72.09,2.58a6.52,6.52,0,0,1-.22,1.45,20.08,20.08,0,0,1-.72,2.69c-.48,1.2-1.06,2.36-1.65,3.52-.45.89-1,1.75-1.46,2.6-.79,1.31-1.57,2.64-2.44,3.9q-2.51,3.63-5.11,7.19c-.79,1.09-1.62,2.16-2.49,3.2s-1.74,2-2.61,3A20.4,20.4,0,0,1,336,424.8c-1.27.9-2.51,1.83-3.77,2.73-1.05.76-2.1,1.52-3.16,2.27q-2,1.44-4,2.85c-1.45,1-2.9,2-4.39,3s-3.28,2.09-4.95,3.08-3.21,1.83-4.83,2.7a13.63,13.63,0,0,1-4,1.36,4.21,4.21,0,0,1-1.72-.17,21.3,21.3,0,0,1-5.24-2.19c-1.45-.78-2.86-1.62-4.27-2.47-1.71-1-3.42-2.1-5.1-3.18-2-1.26-3.94-2.53-5.87-3.84s-3.64-2.54-5.44-3.83c-1.1-.78-2.19-1.59-3.28-2.38a15.51,15.51,0,0,1-2.43-2.22c-.49-.56-.91-1.19-1.35-1.79l-2.52-3.46c-.67-.92-1.33-1.85-2-2.78-1-1.39-2-2.79-3-4.2-1.17-1.7-2.34-3.41-3.47-5.15-1-1.57-2-3.18-3-4.79-.51-.84-1-1.71-1.44-2.59a7.63,7.63,0,0,1-.85-2.92c-.05-.75-.07-1.5-.05-2.25s.09-1.67.16-2.5c.1-1,.22-2,.33-3s.22-1.83.34-2.75.3-1.93.44-2.9c.1-.69.18-1.39.29-2.09s.22-1.35.32-2,.19-1.29.29-1.93.22-1.38.35-2.07q.25-1.42.54-2.85c.25-1.28.49-2.56.77-3.83.39-1.81.79-3.63,1.24-5.43a26.4,26.4,0,0,1,1.68-5,5,5,0,0,1,2.76-2.48,19.84,19.84,0,0,1,2.34-.85c1.42-.39,2.86-.72,4.29-1" transform="translate(-254.37 -348.5)"/></svg>