<?xml version="1.0" encoding="utf-8"?>
<!-- Generator: Adobe Illustrator 25.0.0, SVG Export Plug-In . SVG Version: 6.00 Build 0)  -->
<svg version="1.1" id="Calque_1" xmlns="http://www.w3.org/2000/svg" xmlns:xlink="http://www.w3.org/1999/xlink" x="0px" y="0px"
	 viewBox="0 0 612 792" style="enable-background:new 0 0 612 792;" xml:space="preserve">
<style type="text/css">
	.st0{fill:url(#SVGID_1_);stroke:#000000;stroke-miterlimit:10;}
	.st1{fill:#050505;}
	.st2{fill:#070707;}
	.st3{fill:#EFF0FD;}
	.st4{fill:#647539;}
	.st5{fill:#989898;}
	.st6{fill:#657639;}
	.st7{fill:#1F1F1F;}
	.st8{fill:#404A26;}
	.st9{fill:#EEEFFB;}
	.st10{fill:#1E1E1E;}
	.st11{fill:#333336;}
	.st12{fill:#D2D2D2;}
	.st13{fill:#B8C0D9;}
	.st14{fill:#1A1A1A;}
	.st15{fill:#1B1B1B;}
	.st16{fill:#9E967A;}
	.st17{fill:#EBECF8;}
	.st18{fill:#5C6C32;}
	.st19{fill:#3C3C40;}
	.st20{fill:#504C4C;}
	.st21{fill:#576A1D;}
	.st22{fill:#070806;}
	.st23{fill:#D290B9;}
	.st24{fill:#0E0F10;}
	.st25{fill:#080808;}
	.st26{fill:#C7BFA1;}
	.st27{fill:#945F7F;}
	.st28{fill:#EFF0FC;}
</style>
<linearGradient id="SVGID_1_" gradientUnits="userSpaceOnUse" x1="260.2282" y1="494.4828" x2="365.4211" y2="312.2834">
	<stop  offset="0" style="stop-color:#FFDBBF"/>
	<stop  offset="1" style="stop-color:#F6AB78"/>
</linearGradient>
<circle class="st0" cx="312.8" cy="403.4" r="105.2"/>
<g>
	<path class="st1" d="M385.4,388.8c-0.2,1.6-0.4,3.2-0.6,4.8c0.8,0.5,1.9,1,2.8,1.6c1.2,0.7,1.5,1.9,1.5,3.2c0,1.3,0,2.7-0.1,4
		c0,1.1,0,2.2,0,3.2c0.5,2.9,1,5.8,1.5,8.7c0.7,4.6,0.8,9.3-0.1,13.9c-0.3,1.7-1.2,3.2-1.8,4.8c-0.2,0.5-0.4,1.2-0.3,1.7
		c0.9,4.1-0.2,7.5-3.3,10.3c-3.1,2.8-6.1,5.8-9.2,8.6c-1.1,1-2.3,1.8-3.5,2.7c1,2.2,2,4.4,3,6.6c1.1,2.5,0.8,4.5-1.1,6.5
		c-2.3,2.5-5.3,3.9-8.4,5.1c-7.4,2.9-15.1,4.4-23,5.4c-4.1,0.5-8.3,0.8-12.5,1.2c-0.2,0-0.3,0-0.5,0c-1.2,0.1-2.3,0.1-3.5,0.2
		c-0.2,0-0.3,0-0.5,0c-7.2-0.1-14.3,0-21.5-0.2c-2.7-0.1-5.5-0.5-8.2-0.7c-0.2,0-0.3,0-0.5,0c-4.7-0.7-9.3-1.2-14-2.1
		c-5.6-1-11.1-2.5-16.2-5.1c-1.9-1-3.8-2.3-5.4-3.8c-2.1-2-2.3-4.1-1-6.7c1.1-2.2,2.3-4.5,3.5-6.9c-1-0.5-1.9-1.1-2.9-1.4
		c-6.7-2-12.3-5.5-16.2-11.5c-0.9-1.3-2-2.5-2.9-3.9c-2.5-3.8-3.9-8-4.5-12.5c-0.6-4.5-1.4-9-2-13.5c-1.2-8.9-0.4-17.6,1.9-26.2
		c0.1-0.5,0.2-1,0.4-1.4c0.7-1.8,0.4-3.5,0.1-5.3c-0.3-2-0.2-4.1-0.2-6.2c0.1-3.3,0.3-6.7,0.5-10c0-0.4,0.1-0.8,0.3-1.1
		c2.9-4.3,5.6-8.8,8.8-12.9c2.1-2.7,4.8-4.9,7.6-7c4.3-3.1,8.9-5.9,13.3-8.9c1.9-1.3,3.9-2.1,6.1-2.4c8.8-1.2,17.7-2.5,26.5-3.8
		c8.2-1.2,16.5-2.4,24.7-3.6c2.3-0.3,4.5-0.8,6.8-0.9c1.5-0.1,3,0.4,4.5,0.6c2.9,0.6,5.8,1,8.6,1.8c1.7,0.5,3.1,0.4,4.8,0.1
		c4.6-0.9,9.7,1.8,12.1,6c0.3,0.5,0.8,0.9,1.3,1.4c1.9,1.8,3.9,3.5,5.6,5.4c2.6,3.1,4.9,6.4,7.2,9.7c0.4,0.5,0.8,0.7,1.4,0.7
		c2.8,0,5.5,0.2,8.3,0.1c2.4-0.1,4.2,1,5.5,3.1c-0.2,0.2-0.3,0.5-0.6,0.7c-1.8,1.4-2,3.2-1.8,5.3c0.7,6.6,1.3,13.1,1.7,19.7
		c0.2,3.6-0.7,6.8-4.2,8.7c-0.3,0.2-0.3,1-0.4,1.5C385.4,388.4,385.4,388.6,385.4,388.8z M271.3,456.6L271.3,456.6L271.3,456.6
		C271.4,456.6,271.3,456.6,271.3,456.6C271.3,456.5,271.3,456.5,271.3,456.6c-0.1-0.1-0.2-0.1-0.3-0.1
		C271.1,456.5,271.2,456.5,271.3,456.6z M300.8,455.1c0,0.1,0,0.2,0,0.4c-0.4,0.2-0.8,0.4-1.2,0.6c-0.4,0-0.7,0-1.1,0
		c-3.7,0.6-7.5,1.2-11.2,1.7c-2.7,0-5.5,0-8.2,0c-0.6,0-1.3,0-1.7,0.3c-0.8,0.6-1.2,0.4-1.6-0.3c-0.5-0.7-2.7-1.1-3.4-0.6
		c0.4,0.4,0.7,0.7,1.1,1.1c-1.1-0.5-2.2-1.1-3.2-1.6c-1.4-0.7-2.7-1.7-4.3-1.9c-0.1-0.1-0.1-0.1-0.2-0.2c0,0.1-0.1,0.1-0.1,0.2l0,0
		c-0.5,0.3-1.1,0.5-1.4,1c-1.3,2.2-2.6,4.5-3.8,6.8c-0.4,0.7-0.4,1.6-0.6,2.3c0.2,1.7,0.8,3.1,2.3,4c0.3,0.3,0.5,0.7,0.9,0.9
		c2,1.2,4,2.5,6.1,3.4c8.5,3.5,17.5,4.9,26.6,5.9c3.6,0.4,7.2,0.6,10.8,0.9c0.2,0,0.3,0,0.5,0c0.3,0,0.6,0,0.9,0
		c9.3,0.4,18.6,0.2,27.9-0.7c6.5-0.5,12.8-1.5,19.1-3c4.7-1.1,9.3-2.5,13.6-4.8c0.1,0,0.1-0.1,0.2-0.1c1.3-1,2.8-1.9,4-3
		c0.7-0.7,1-1.9,1.5-2.8c0-0.7,0.2-1.6-0.1-2.2c-0.9-2.1-2-4.1-3-6.2c-0.3,0.2-0.6,0.4-0.8,0.6c-0.9,0.5-1.8,1.1-2.7,1.6
		c-0.3,0.1-0.6,0.1-0.9,0.2c-3.8,1.3-7.5,2.7-11.3,4c-0.3,0.1-0.6,0.1-0.9,0.1c0-0.1,0-0.2-0.1-0.3c0.3-0.1,0.7-0.2,1-0.4
		c2.1-0.7,4.3-1.4,6.3-2.3c0.8-0.3,1.5-1.1,2.2-1.6c0.1,0,0.2,0,0.2,0c0.3-0.2,0.6-0.5,0.9-0.7c0.2-0.2,0.4-0.5,0.6-0.6
		c4.3-2,8.1-4.6,11.4-8c1.7-1.7,3.3-3.5,5-5.2c1.1-1,2.2-2,3.3-3c1.3-1.7,1.5-3.6,1.1-5.6c-1.5,0.9-2.9,1.8-4.3,2.6
		c-0.4,0-0.9,0-1.3,0c0.3-0.3,0.6-0.6,0.9-0.9c1.2-0.5,2.1-1.1,2.4-2.4c1-1.3,2.2-2.5,3-3.8c1.7-2.8,1.8-6,1.9-9.1
		c0.3-7.9-2-15.4-4.8-22.7c-1.2-3-3.3-5.4-5.4-7.8c-0.2-0.7-0.3-1.4-0.5-2.1c-0.3-1-0.9-1.4-1.9-1.1c-0.3,0.1-0.6,0.1-0.9,0.2
		c-1.7,0.4-3.5,0.8-5.2,1.2c-0.2,0-0.4,0-0.7,0c-0.2,0.1-0.3,0.1-0.5,0.2c-1.4,0.2-2.9,0.4-4.3,0.6c0-0.2-0.1-0.4-0.1-0.6
		c1.5-0.4,3-0.8,4.5-1.2c0.6-0.2,1.2-0.4,1.8-0.6c0.3-0.1,0.6-0.1,0.9-0.2c0.1,0,0.3,0,0.4-0.1c0.1,0,0.2,0,0.3,0
		c2.7-0.6,5.5-1.2,8.2-1.9c1.2-0.3,2.5-0.4,3.6-1c2.4-1.3,3.3-3.5,3.3-6.1c0-1.9-0.3-3.7-0.4-5.6c-0.4-5-0.7-10-1.2-14.9
		c-0.1-1.1,0.1-2.5-1.6-2.7c-0.4-0.1-0.9-0.3-1.3-0.3c-2.9,0.4-5.8,0.9-8.7,1.4c-1.9,0.3-3.8,0.8-5.7,1.1c-0.2,0-0.3,0-0.5,0
		c-1.6,0.3-3.2,0.6-4.8,0.9c-0.1,0.3-0.3,0.7-0.3,1c0.5,3.5,1,6.9-0.1,10.5c-0.4,0-0.8,0-1.2,0c-0.3-0.1-0.6-0.2-0.8-0.2
		c-1.6,0.2-3.2,0.4-4.7,0.7c-0.2,0-0.4,0.5-0.6,0.7c0.2,2.9,0.4,5.7,0.7,8.6c0.2,1.8,0.3,3.6,0.7,5.4c0.3,1.3,0.8,2.6,2.3,3.3
		c0,0.1,0,0.2,0,0.4c-0.9,0.5-1.2-0.5-1.8-0.8c-1.6-1-3-2.2-3.8-4c0.3,0,0.5,0,0.8,0c1.2,0.2,1.6-0.3,1.5-1.5
		c-0.1-1-0.2-2.1-0.3-3.1c-0.1-2-0.3-4-0.4-6c0-0.7-0.3-1.2-1.1-0.8c-1.4,0.7-2.8,1.5-4.2,2.2c-0.2-0.2-0.3-0.3-0.5-0.5
		c-0.2-0.8-0.4-1.6-0.4-2.4c-0.1-1-0.5-1.3-1.5-1.2c-3.2,0.6-6.5,1.1-9.8,1.7c0.1,1.2,0.2,2.4,0.3,3.5c0.1,1.3,0.2,2.5,0.3,3.8
		c0.2,3,0.6,6,0.5,8.9c-0.1,3.3-1.5,5.9-4.9,7c0-0.2,0-0.5,0.1-0.7c0.2-0.3,0.4-0.6,0.7-1c0-0.1,0.1-0.2,0.1-0.2
		c0.1-0.1,0.3-0.3,0.4-0.4c0.3-0.5,0.5-0.9,0.8-1.4c0.9-1.4,1.4-3,1.3-4.7c-0.2-4.2-0.4-8.4-0.7-12.7c-0.1-0.1-0.2-0.2-0.2-0.2
		c-1.3-1.9-2.6-3.8-3.9-5.7c1.6-0.1,0-0.9,0.3-1.4c0.2,0,0.4,0,0.6,0.1c1.6,0.4,1.7,0.3,1.9-1.3c0-0.2,0.3-0.4,0.5-0.7
		c0.1,0.6,0.2,1.1,0.2,1.7c0.1,1.3,0.3,2.5,0.4,3.9c1.5-0.2,2.7-0.4,3.9-0.6c3.2-0.6,6.5-1.2,9.7-1.7c3.8-0.7,7.6-1.3,11.4-1.9
		c0.5-0.1,0.9-0.3,0.8-1c-0.2-1.4-0.4-2.9-0.6-4.3c-0.2-1.6-0.4-3.2-0.5-4.8c0.1-0.1,0.2-0.2,0.2-0.2c7.4-1.5,14.9-3,22.3-4.4
		c0.6-0.1,1.4,0,1.9,0.3c1.2,0.6,1.3,0.7,2.1-0.6c-0.9-1.1-2.1-1.8-3.6-1.6c-0.6,0.1-1.3,0.1-1.9,0.2c-2.7,0.4-5.4,0.7-8,1.1
		c-2.9,0.4-5.8,0.7-8.6,1c-0.2,0.2-0.3,0.3-0.5,0.5c-0.3,0.1-0.6,0.2-0.9,0.2l0,0c-0.2,0-0.3,0-0.5,0c-0.3-0.2-0.6-0.3-0.9-0.5
		c-1.1,0-2.1,0-3.2-0.1c0.1-0.2,0.2-0.4,0.3-0.6c3.7-6.9-0.5-13.8-7.6-14.9c-2.9-0.5-5.3,0.6-7.6,2.2c-0.2,0-0.4,0-0.6-0.1
		c-0.2-5.7-4.5-10-10.1-9.9c-2,0-4.1,0.5-6.1,0.7c-0.3,0.2-0.7,0.4-1,0.6c-3.2,0.3-6.4,0.5-10,0.8c0.4-0.4,0.6-0.7,0.9-0.9
		c1.7-1.1,3.5-1.7,5.5-1.7c2.5,0,5.1,0.2,7.4-1c0.1-0.1,0.2-0.2,0.4-0.3c-0.2-0.1-0.3-0.1-0.5-0.2c-2.5-0.4-5-0.4-7.4,0.5
		c-2.4,0.9-4.9,1.1-7.4,1.1c-1.1,0-2.2,0.1-3.3,0.2c-2.3,0.3-4.3,1.3-5.9,2.4c1.7,1,3.4,2,5.1,2.9c-0.3,0-0.7,0.1-0.9,0
		c-1-0.3-2-0.9-3.1-0.9c-2.9-0.1-5.8-0.3-8.4,1.4c-0.3,0.1-0.6,0.1-0.9,0.2c0.1,0.1,0.2,0.2,0.3,0.3c0.3,0.3,0.5,0.6,0.9,1.1
		c-1.1,0-2.2,0.3-2.9-0.1c-3-1.4-6-1.4-8.9-0.1c-0.7,0.1-1.4,0.1-2,0.4c-1,0.5-1.9,1.1-2.8,1.7c-0.1-0.1-0.2-0.1-0.2-0.2
		c0.1-0.2,0.2-0.5,0.3-0.6c3.4-3.4,7.7-5.2,12.7-3.6c0.8,0.2,1.4,0.2,2.1-0.2c1.6-0.8,3.4-1.4,5.1-2.1c0.3-0.1,0.6-0.2,0.8-0.3
		c2-1.2,4.1-2.4,6.1-3.6c2.5-0.2,4.9-0.4,7.4-0.7c1.5-0.2,3.1-0.3,4.5-0.8c4.4-1.4,8.7-1.5,12.9,0.8c0.6,0.3,1.6,0.2,2.3,0.1
		c1.1-0.2,2.2-0.5,3.2-0.7c0.3,0,0.6-0.1,0.8-0.1c0-0.1,0-0.2,0-0.3c-0.3,0-0.6,0-0.8-0.1c-1.4-0.3-2.7-0.5-4.1-0.8
		c-2.8-0.7-5.7-1.2-8.6-0.4c-1.7,0.4-3.4,0.5-5.1,0.8c-4.2,0.6-8.4,1.3-12.6,1.9c-2.5,0.4-5.1,0.7-7.6,1.1
		c-10.1,1.5-20.2,2.9-30.3,4.4c-1.2,0.2-2.4,0.3-3.2,1.3c-0.7,0.5-1.5,0.9-2.2,1.4c-4.3,2.9-8.6,5.7-12.9,8.6l0,0
		c-0.1,0.1-0.3,0.2-0.4,0.3c0,0,0,0,0,0c-2.3,2.1-4.8,4-6.8,6.4c-2.7,3.3-4.9,7-7.2,10.5c-0.5,0.7-1.1,1.4-1.2,2.2
		c-0.3,4.7-0.4,9.4-0.5,14.1c0.1,0.2,0.1,0.4,0.2,0.6c0.1-0.1,0.2-0.2,0.3-0.3c0.3-0.2,0.8-0.4,0.9-0.7c0.5-1.6,1-3.2,1.4-4.9
		c0.2-0.7,0.4-0.8,1-0.7c-0.1,0.5-0.1,1-0.2,1.6c0,0.1,0,0.2,0,0.4c-0.1,0.3-0.1,0.5-0.2,0.8c-1.1,3.8-2.2,7.5-3.2,11.3
		c-2.5,9-3.3,18.1-1.9,27.3c0.7,4.6,1.3,9.3,2.1,13.9c0.8,5,2.8,9.5,6.2,13.3c0.8,0.8,1.6,1.6,2.4,2.5c0,0,0.1,0.1,0.1,0.1
		c0.2,0.2,0.5,0.4,0.7,0.6c0,0,0,0,0,0c0.8,0.6,1.6,1.3,2.5,1.9l0,0c0.2,0.2,0.4,0.4,0.7,0.6c3.2,2,6.8,3.3,10.5,4.2
		c1.4,0.3,2.9,0.5,4.4,0.8c0.5,0,1,0,1.5,0.1c0.6-0.3,1.3-0.6,1.9-0.9c0.1-0.1,0.1-0.1,0.2-0.2c0.2-0.1,0.5-0.1,0.7-0.2
		c1,0.6,1.4-0.5,2.1-0.8c-0.1,1.4-1.8,3.3-3.4,3.7c-0.1,0.1-0.2,0.2-0.4,0.3c0.2,0.1,0.4,0.1,0.6,0.2c2,0.6,4,1.2,6.2,1.8
		c0-0.6,0.1-1,0-1.3c-0.3-1.7-0.7-3.4-1-5.2c-0.1-0.9-0.1-1.8-0.1-2.7c0.8-0.2,1,0.2,1.2,1c0.5,2.5,1,5,1.6,7.6
		c0.1,1.3,1.1,0.9,1.9,1.1c1.2,0.1,2.4,0.2,3.5,0.2c2,0,4-0.1,5.9-0.2c0.7,0,0.8-0.4,0.6-0.9c-0.6-3-1.3-6-1.9-9
		c-0.3-1.6-0.7-3.1-1-4.7c-0.1-0.5,0.3-1,0.4-1.5c0.3,0.4,0.6,0.8,0.9,1.2c0,0,0,0.1,0,0.1c1.1,4.5,2.1,9.1,3.2,13.6
		c0.3,0.2,0.5,0.6,0.8,0.7c0.6,0.1,1.2-0.1,1.8-0.1c1.6-0.2,3.2-0.5,4.8-0.8c0.6,0.3,1.2,0.5,1.6-0.2c0.3-0.4,0.6-0.8,1-1.1
		c0.3-0.2,0.7-0.4,1-0.5c0.9-0.2,1-0.6,0.8-1.5c-0.8-3.2-1.5-6.3-2.1-9.5c-0.8-4-1.5-8-2.2-12c-0.8-4-1.6-8-2.4-12
		c-0.1-0.3-0.4-0.7-0.7-0.8c-1.6-0.4-3.1-0.7-4.7-1.1c-0.4-0.1-0.8-0.4-1.3-0.7c0-0.2,0-0.4,0-0.7c0.6-0.3,1.2-0.6,1.8-0.9
		c1.7-1.3,2.8-2.9,3.6-4.9c0.1-0.3,0.5-0.6,0.8-0.9c0.2,0.4,0.5,0.7,0.5,1.1c0,0.4-0.1,0.9-0.3,1.2c-1.1,1.5-2.2,2.9-3.3,4.3
		c-0.1,0.1-0.2,0.2-0.2,0.3c0.2,0,0.3,0.1,0.5,0.1c0.4,0.1,0.7,0.1,1.1,0.2c2.2,0.3,3.4,1.2,3.9,3.9c1.6,9.1,3.6,18.1,5.5,27.1
		c0.4,1.8,0.8,3.7,1.1,5.5c0.2,1.5-0.2,2-1.5,2.5c-0.5,0.2-0.9,0.6-1.3,0.9C300.7,454.9,300.8,455,300.8,455.1z M381.8,391.9
		c0.2,0.2,0.3,0.4,0.5,0.6c0.1,0.2,0.3,0.3,0.4,0.5c0.1,0,0.3,0,0.4,0c0.2-1.9,0.5-3.8,0.8-5.9c-1.6,0.3-2.8,0.6-4.1,0.8
		c-0.1,0-0.3,0-0.4,0c-0.2,0.1-0.5,0.1-0.7,0.2c0.1,0.2,0.2,0.3,0.3,0.5C380,389.7,380.9,390.8,381.8,391.9
		C381.8,391.9,381.8,391.9,381.8,391.9z M387.2,401.9c0.1,0.1,0.2,0.3,0.2,0.4c0.1-0.1,0.1-0.3,0.2-0.4c0-0.8,0-1.5,0-2.3
		c0-2.3-0.7-3.2-2.9-4.1c0,0-0.1,0-0.1,0c0,0,0.1,0,0.1,0c0.1,0.4,0.3,0.8,0.4,1.1C385.8,398.4,386.5,400.1,387.2,401.9z
		 M339.8,328.9c-0.1,0.1-0.3,0.1-0.4,0.2c0.1,0.1,0.3,0.2,0.4,0.3c3.3,1.5,5.2,4.2,6.3,7.7c2.2-1.3,4.4-1.6,6.8-1.5
		c0.2,0,0.3,0,0.5,0c0.3,0.1,0.7,0.2,1,0.3c5.9,1.8,9.8,6.5,9.1,12.6c-0.1,1.1-0.4,2.2-0.6,3.4c0.7-0.1,1.4-0.3,2-0.3
		c1.1-0.1,1.6-0.7,1.9-1.7c1.4-4.8-0.6-9.1-5.2-11.6c-1.3-0.7-2.5-1.7-3.8-2.6l0,0c1,0,2,0,3,0c-0.6-3.5-2.6-5.8-5.7-7.3
		c-2.6-1.3-5.2-1.2-7.9-0.2c3.3,2.3,3.7,2.6,3.9,3.6C347.4,330,343.9,328.4,339.8,328.9z M373.6,349c-0.9-2.2-5.9-8.6-6.8-8.9
		c0,0.1,0,0.2,0,0.2c1.6,2.3,2.3,4.9,2,7.7c0,0.3,0.3,0.9,0.5,0.9C370.7,349,372.1,349,373.6,349z M366.6,339.7
		c0.1-0.1,0.2-0.1,0.2-0.2c-1.4-1.3-2.7-2.6-4.1-3.9c-0.1,0.1-0.2,0.1-0.3,0.2c0.1,0.4,0.1,0.9,0.4,1.1
		C364,337.9,365.3,338.8,366.6,339.7z"/>
	<path class="st2" d="M389,405.6c0-1.1,0-2.2,0-3.2C389.1,403.5,389.1,404.6,389,405.6z"/>
	<path class="st2" d="M385.4,388.8c0-0.2,0-0.5,0-0.7C385.4,388.4,385.4,388.6,385.4,388.8z"/>
	<path class="st2" d="M295.7,480.3c0.2,0,0.3,0,0.5,0C296,480.3,295.9,480.3,295.7,480.3z"/>
	<path class="st2" d="M329.8,481c0.2,0,0.3,0,0.5,0C330.1,481,330,481,329.8,481z"/>
	<path class="st2" d="M325.9,481.2c0.2,0,0.3,0,0.5,0C326.2,481.2,326.1,481.2,325.9,481.2z"/>
	<path class="st3" d="M382.4,438.4c1.4-0.9,2.8-1.7,4.3-2.6c0.4,2,0.2,3.9-1.1,5.6c-0.3,0.2-0.7,0.3-1,0.5c-2.8,1.8-5.5,3.5-8.3,5.3
		c-1.4,0.9-2.8,1.8-4.3,2.6c-1.5,0.8-3.1,1.7-4.7,1.9c-2.4,0.4-4.9,0.4-7.3,0.3c-2.8-0.1-5.5-0.6-8.3-0.8c-2-0.2-4-0.3-6-0.3
		c-1.2,0-2.5,0.1-3.7,0.2c-0.8,0-1.5-1-2.3-0.2c-0.4,0.1-0.7,0.2-1.1,0.2c-0.7,0-1.2,0.1-1.3,1.1c-0.1,0.7-0.7,1.5-1.3,1.9
		c-0.9,0.6-2,1-3.1,1.3c-1.8,0.6-3.7,1.1-5.5,1.7c-1.6,0.5-2.9,1.6-4.6,1.6c-1.2,0-2.4,0.1-3.7,0.2c-2.7,0.1-5.4,0.3-8.2,0.4
		c-0.2,0-0.5,0-0.7-0.1c-2.1-0.3-4.1-0.6-6.2-0.8c-1.1-0.2-2.3-0.3-3.4-0.5c-0.4-0.1-0.8-0.4-1.1-0.5c0.7-0.7,1.3-1.4,1.9-2
		c0.2-0.1,0.3-0.2,0.5-0.2c1.3-0.3,2.6-0.5,4-0.8c0-0.2-0.1-0.3-0.1-0.5c-1.3,0.3-2.6,0.6-3.8,0.9c-0.3,0.1-0.6,0.1-0.9,0.2
		c-0.1,0-0.2-0.1-0.3-0.1c0.4-0.3,0.8-0.7,1.3-0.9c1.4-0.6,1.8-1.1,1.5-2.5c-0.3-1.9-0.7-3.7-1.1-5.5c-1.9-9-4-18-5.5-27.1
		c-0.5-2.7-1.6-3.5-3.9-3.9c-0.4-0.1-0.7-0.1-1.1-0.2c-0.1-0.1-0.2-0.3-0.3-0.4c1.1-1.4,2.3-2.9,3.3-4.3c0.2-0.3,0.4-0.8,0.3-1.2
		c0-0.4-0.3-0.8-0.5-1.1c-0.3,0.3-0.7,0.5-0.8,0.9c-0.8,2-1.9,3.7-3.6,4.9c-0.2-0.1-0.4-0.3-0.6-0.3c-1.2,0-2.3,0.1-3.4-0.1
		c-1.1-0.2-2.2-0.6-3.3-0.9c-0.9-1.3-1.9-2.6-2.5-4.1c-1.2-2.9-1-5.8,0.5-8.5c0.3-0.5,0.6-1.1,1.4-0.6c0.2,0.1,0.6-0.4,1-0.6
		c-0.3-0.3-0.5-0.7-0.8-0.9c-2.8-2.1-5.2-4.5-5.9-8.1c-0.3-1.4-0.7-2.8,0.3-4.2c0.4-0.6,0-1-0.7-1c-0.3,0-0.6,0.2-0.9,0.3
		c-0.5-0.8-1.1-1.5-1.6-2.3c-0.8-1.5-1.6-3.1-1.3-4.8c0.6-3.3,2.2-6.1,5-8.1c0.3-0.2,0.5-0.6,0.7-1c0.3-1.1,0.6-2.1,0.9-3.2
		c0.2,0.3,0.3,0.7,0.5,1c0.4,0.7,0.9,1.3,1.3,2c0.4,0.6,0.8,1.2,1.1,1.6c-0.5,1-1,1.7-1.3,2.6c-0.1,0.2,0.2,0.6,0.3,1
		c0.3-0.2,0.7-0.2,0.9-0.5c0.5-0.7,1-1.3,1.4-2.1c0.2-0.5,0.3-1.2,0.1-1.6c-1-1.6-1.6-3.3-1.3-5.2c0-0.3-0.3-0.6-0.5-0.9
		c-0.3,0.2-0.7,0.3-0.8,0.5c-0.2,0.6-0.2,1.3-0.3,1.9c-0.2-0.2-0.6-0.4-0.6-0.7c-0.5-1.6-0.4-3.3-0.1-5c0.9-2.5,2.6-4.3,4.8-5.7
		c0.4-0.2,0.8-0.4,1.3-0.6c0.5-0.1,1-0.3,1.4-0.3c-1.1-1.3-2.5-2.4-3.2-3.8c-0.7-1.3-0.8-3-0.9-4.6c-0.1-1,0.2-2.1,0.4-3.1
		c0-0.1,0-0.1,0.1-0.1c0.1-0.1,0.1-0.2,0.2-0.3c0-0.1,0-0.1,0.1-0.1c0.1-0.1,0.1-0.2,0.2-0.3l0,0c0.1-0.1,0.1-0.2,0.2-0.3
		c0-0.1,0-0.1,0.1-0.1c0.1-0.1,0.1-0.2,0.2-0.3c1.3-1,2.5-2.1,3.8-3.1c3-1.3,5.9-1.4,8.9,0.1c0.7,0.3,1.7,0.1,2.9,0.1
		c-0.4-0.5-0.6-0.8-0.9-1.1c0.2-0.1,0.4-0.3,0.6-0.4c2.6-1.6,5.5-1.4,8.4-1.4c1,0,2,0.6,3.1,0.9c0.3,0.1,0.6,0,0.9,0
		c0.1,0.1,0.1,0.2,0.2,0.3c0,0.2,0,0.4,0.1,0.5c0.4,0.4,0.9,0.8,1.3,1.3c0.5,0.7,0.9,1.5,0.7,2.5c-0.1,0.4,0,0.9,0,1.4
		c0.1,0.2,0.2,0.3,0.2,0.5c0.1,0.2,0.2,0.3,0.2,0.5c0,0.1,0,0.1,0,0.2c0.1,0.1,0.2,0.2,0.2,0.3c0,0.2,0,0.3,0,0.5
		c-1.2,1.5-2.4,3.1-3.6,4.6c-2.7-2.4-5.7-4.4-9.8-3.5c0.4,0.2,0.8,0.3,1.3,0.3c3.1,0,5.8,1,7.5,3.7c1,1.6,1.4,3.6,2.1,5.4
		c0.1,0.3,0.1,0.6,0.2,0.9c0,0.2,0,0.4,0.1,0.7c-0.1,0.1-0.4,0.2-0.4,0.3c-0.5,1.6-1,3.2-1.4,4.7c-0.6,0.2-1.2,0.4-1.8,0.5
		c-2.8,0.4-5.6,0.7-8.4,1c-0.8,0.1-1.5,0.3-1.9-0.7c-0.1-0.3-0.8-0.5-1.2-0.5c-6.4,0.2-8.7,7-6.9,11.3c0.4-0.4,0.8-0.9,1.2-1.3
		c0,1.4,0.7,2.5,1.3,3.6c2.3,4.3,2.5,8.9,1.5,13.7c-0.2,0.6-0.5,1.2-0.7,1.8c-0.1,0.4-0.1,0.8-0.2,1.1c-0.1,0.3-0.2,0.6-0.2,0.8
		c-0.4-0.4-0.8-0.8-1.3-1.3c0,0.6,0,1,0,1.4c-1.3-0.1-2.5-0.3-3.8-0.4c0,0.1-0.1,0.2-0.1,0.2c1.2,0.7,2.4,1.5,3.6,2.2
		c0.1,0.3,0.4,0.7,0.4,1c0.4,2.2,1.7,3.4,3.8,4.1c0.1-0.4,0.2-0.7,0.3-1c0.5,0.2,1,0.3,1.5,0.5c3.4,1.3,6.8,2.6,10.3,3.7
		c1.1,0.4,2.4,0.5,3.5,0.2c4.3-1.1,8.6-2.4,12.9-3.7c1.8-0.5,3.6-1,5.4-1.5c0.1,0,0.2,0,0.3-0.1c0.2-0.1,0.4-0.1,0.6-0.2
		c0.9-0.3,1.8-0.5,2.6-0.8c0,0,0,0,0,0c0.3-0.1,0.5-0.2,0.8-0.2l0,0c3.4-1.1,4.8-3.7,4.9-7c0.1-3-0.3-6-0.5-8.9
		c-0.1-1.3-0.2-2.5-0.3-3.8c0.5-0.1,1-0.2,1.4-0.2c2.4-0.3,4.8-0.5,7.2-0.8c0.9-0.1,1.9-0.3,2.8-0.5c0.2,0.2,0.3,0.3,0.5,0.5
		c1.2,3.1,2.5,6.1,3.7,9.2c0.8,1.7,2.2,3,3.8,4c0.5,0.3,0.8,1.3,1.8,0.8c0.1,0.1,0.3,0.2,0.4,0.3c0.2,0.1,0.5,0.2,0.7,0.2
		c0.4,0.1,0.8,0.1,1.2,0.2c0.4,0,0.7,0,1.1-0.1c0.3,0.1,0.6,0.1,1.1,0.2c-0.7,0.2-1.1,0.4-1.6,0.5c0.6,0.3,1.3,0.4,1.9,0.4
		c4.3-0.1,8.6-0.3,12.9-0.5c0.1,0.1,0.3,0.2,0.4,0.2c0.2,0.1,0.4,0.2,0.5,0.3c0.2,0.2,0.4,0.4,0.7,0.6c2.1,2.4,4.2,4.8,5.4,7.8
		c2.8,7.3,5,14.7,4.8,22.7c-0.1,3.1-0.2,6.3-1.9,9.1c-0.9,1.4-2,2.6-3,3.8c-0.7,0.4-1.5,0.8-2.2,1.3l0,0c-0.3,0.1-0.6,0.1-1,0.2
		c-2.2,0.3-4.5,0.7-6.7,1c0.6-1.2,1-2.4,1.7-3.5c0.5-0.7,1.2-1.5,2-1.8c2.4-1,3-2.9,3.1-5.2c0.1-3.4-2-5.8-4.4-8
		c-2.2-1.9-4.7-2.1-7.4-1.8c-0.8,0.1-1.2,0.4-1,1.3c-2,0.6-3.5,1.8-5,3.2c-1.3,1.2-2.3,2.7-2.4,4.5c-0.1,1.8-0.2,3.6-0.1,5.4
		c0,0.4,0.7,0.8,1.1,1.2c0.4,0.3,0.8,0.8,1.3,0.9c1.5,0.4,3.1,0.6,4.6,0.8c0.2,0,0.3-0.1,0.5-0.2c0.1,0.4,0.4,0.9,0.4,1.3
		c0,0.8-0.3,1.6-0.4,2.4c-1.8,0.8-3.6,1.7-5.5,2.2c-4.1,1-8.3,0.8-12.5,0.1c-5.4-0.9-10.9-1.7-15.8-4.7c-1.8-1.1-3.6-1.9-4-4.3
		c0-0.3-0.6-0.5-1-0.7c-0.1,0.4-0.4,0.8-0.4,1.2c0,0.5,0.3,1,0.5,1.5c-0.8,0.2-1.5,0.2-2.2,0.5c-0.3,0.1-0.4,0.5-0.7,0.8
		c0.3,0.2,0.5,0.5,0.9,0.6c0.3,0.1,0.7,0,1,0c1.4,0,2.6,0.2,3.7,1.1c1.1,0.9,2.3,1.7,3.7,2.1c3.8,1.2,7.8,2.1,11.6,3.1
		c1.2,0.3,2.3,0.6,3.5,0.8c1.2,0.2,2.3,0.4,3.5,0.5c1.5,0.1,3,0,4.4,0c0.9,0,1.8,0.1,2.7-0.1c1.3-0.2,2.6-0.5,4-0.8
		c0.1,0.1,0.2,0.2,0.3,0.3c0-0.1,0.1-0.3,0.1-0.4l0,0c0.2,0.2,0.4,0.5,0.6,0.7c0.2,0.2,0.6,0.5,0.7,0.4c0.6-0.4,1-1,1.6-1.5
		c0.1-0.4,0.2-0.8,0.3-1.1c0.1-0.1,0.3-0.3,0.4-0.4l0-0.1l-0.1,0c0.2,0.1,0.3,0.1,0.5,0.2c0.1,0.1,0.3,0.1,0.4,0.2l0,0
		c0.1,0.4,0.2,0.9,0.3,1.3c0.4-0.1,0.7-0.2,1.1-0.3c0.3-0.5,0.7-1,1-1.5c0.1,0,0.1-0.1,0.1-0.2c0.7,0,1.4,0.1,2.1,0.1
		c0.8,0,1.7-0.3,2.5-0.1C379.9,440.1,381.3,439.6,382.4,438.4z M356.4,397.7c-0.3-1.2-1.1-1-1.7-0.8c-3.3,0.8-6.5,1.6-9.8,2.5
		c-0.6,0.2-1.2,0.5-1.6,0.8c-0.3,0.3-0.4,0.8-0.6,1.2c0.4,0,0.9,0.1,1.2,0c1.3-0.4,2.6-1.1,4-1.5c2.4-0.6,4.8-1.1,7.3-1.7
		C355.7,398.2,356.1,397.9,356.4,397.7z M279.2,380.8c-0.4,1.6,1,2.2,1.8,3c1.1,1.1,2.4,2.1,3.7,3.1c0.2,0.2,0.7,0,1.1-0.1
		c-0.1-0.4-0.1-0.8-0.3-1.1c-0.3-0.4-0.8-0.6-1.2-0.9c-2.5-1.9-4.2-4.1-2.9-7.4c0.1-0.3-0.2-0.7-0.4-1c-0.4,0.2-0.9,0.3-1,0.6
		C279.6,378.2,279.4,379.5,279.2,380.8z M294.1,350.3c-0.6,0.5-0.9,0.6-1.1,0.9c-0.9,1.2-0.6,5.6,0.4,6.6c0.3,0.3,0.9,0.2,1.3,0.3
		c0-0.4,0-0.8-0.1-1.1c-0.7-1.7-1.2-3.3-0.3-5.1C294.6,351.5,294.3,351,294.1,350.3z M313.2,404.9c0-0.1,0-0.3,0-0.4
		c-0.4-0.1-0.8-0.5-1.2-0.4c-2,0.7-4,1.4-5.9,2.2c-0.3,0.1-0.4,0.6-0.6,0.9c0.3,0.1,0.7,0.5,1,0.4c1.9-0.6,3.8-1.3,5.7-2
		C312.6,405.5,312.9,405.2,313.2,404.9z M314,407.3c-0.7-0.2-1.1-0.5-1.3-0.4c-1.2,0.4-2.3,0.8-3.4,1.3c-0.3,0.1-0.4,0.6-0.6,0.9
		c0.4,0.1,0.7,0.4,1,0.3c1.1-0.3,2.1-0.7,3.1-1.1C313.2,408.2,313.4,407.8,314,407.3z M340.9,401.8c-0.9,0.3-1.6,0.5-2.2,0.8
		c-0.2,0.1-0.3,0.6-0.5,0.9c0.3,0.1,0.7,0.3,1,0.3c0.6-0.1,1.2-0.2,1.8-0.5c0.3-0.1,0.7-0.5,0.7-0.7
		C341.6,402.3,341.2,402,340.9,401.8z"/>
	<path class="st4" d="M284.2,340.4c0,0-0.1,0.1-0.1,0.1c-0.1,0.1-0.1,0.2-0.2,0.3c0,0,0,0,0,0c-0.1,0.1-0.1,0.2-0.2,0.3
		c0,0-0.1,0.1-0.1,0.1c-0.1,0.1-0.1,0.2-0.2,0.3c0,0-0.1,0.1-0.1,0.1c-0.3,0.7-0.7,1.3-0.8,2c-0.1,1.4,0,2.8-0.1,4.3
		c0.1,0.3,0.2,0.7,0.2,1c0,0,0,0,0,0c0.3,1.2,0.6,2.3,0.9,3.5c-3.1,1.5-5.1,3.9-6.4,7.1c-1.1,2.6-1,5.2-0.6,7.9
		c0.1,0.3-0.1,0.8-0.4,1.1c-1,1.2-2.2,2.1-3.1,3.4c-2,3.1-3.2,6.4-1.4,10.1c0.7,1.3,1.4,2.5,2.2,3.9c-0.1,0.1-0.3,0.2-0.4,0.2
		c-3.1,2-4.4,5.2-5.3,8.6c-0.3,1.2-0.2,2.6,0,3.9c0.2,1.1,0.6,2.1-0.6,3c-0.2,0.1-0.2,0.4-0.3,0.6c-0.8,2-0.9,4-0.6,6.1
		c0.1,0.4,0,1.1-0.2,1.2c-1.5,0.7-3.1,1.2-4.8,1.8c0-1.3,0.1-2.5,0-3.6c-0.8-5.3-1.6-10.7-2.4-16c-0.3-1.9-0.8-3.8-0.8-5.6
		c0.1-3.4,0.6-6.8,1-10.2c0.1-0.9-0.2-1.2-1-1.2c0.4-2,0.8-3.9,1.2-5.9c1,0.7,1.2,0.7,2-0.6c2.1-3.8,4.2-7.6,6.3-11.4
		c0.4-0.7,0.6-1.5,1.7-1.5c0.2,0,0.4-0.3,0.5-0.6c0.6-0.9,1.1-1.8,1.7-2.6c1.4-1.8,2.8-3.6,4.2-5.4c0.4-0.6,0.8-1.2,1.1-1.9
		c0.1-0.2-0.1-0.7-0.3-0.8c-0.2-0.1-0.6,0-0.9,0.2c-0.3,0.2-0.4,0.6-0.6,0.8c-1.8,2.3-3.6,4.7-5.4,7.1c-0.5-1.5,1.3-3-0.2-4.6
		c-1.2,1.6-1.1,3.4-1.6,5.1c-0.8-0.2-1.7-0.3-2.4-0.6c-3.6-1.9-7.2-3.8-10.8-5.8c-0.6-0.3-1.2-0.8-1.8-1.2c0,0,0,0,0,0
		c0.1-0.1,0.3-0.2,0.4-0.3c0,0,0,0,0,0c0.7-0.2,1.5-0.3,2.1-0.7c4.3-2.8,8.5-5.6,12.8-8.4c0.2-0.1,0.1-0.6,0.2-0.8
		c0.8-1,2-1.1,3.2-1.3c10.1-1.5,20.2-2.9,30.3-4.4c2.5-0.4,5.1-0.7,7.6-1.1c0,0.1,0,0.3,0,0.4c-2,1.2-4.1,2.4-6.1,3.6
		c-0.3,0.1-0.6,0.2-0.8,0.3c-1.7,0.7-3.4,1.3-5.1,2.1c-0.8,0.4-1.3,0.5-2.1,0.2c-5-1.5-9.2,0.2-12.7,3.6c-0.2,0.2-0.2,0.4-0.3,0.6
		c-0.1,0.2-0.1,0.4-0.2,0.6c0,0,0,0,0,0c0.1-0.1,0.3-0.2,0.4-0.3c0.9-0.6,1.8-1.3,2.8-1.7c0.6-0.3,1.4-0.3,2-0.4
		c-1.3,1-2.5,2.1-3.8,3.1C284.4,340.3,284.3,340.3,284.2,340.4z M271.9,335.6c-0.2,0.2-0.5,0.3-0.6,0.5c-0.1,0.2,0,0.7,0.2,0.8
		c1.3,0.9,2.5,1.8,3.9,2.7c0.3,0.2,0.8,0,1.2,0c-0.1-0.4-0.1-0.9-0.3-1.1c-1.1-0.9-2.2-1.7-3.3-2.5
		C272.6,335.8,272.3,335.7,271.9,335.6z"/>
	<path class="st5" d="M306.6,479.8c-3.6-0.3-7.2-0.5-10.8-0.9c-9.1-1-18.1-2.4-26.6-5.9c-2.1-0.9-4.1-2.2-6.1-3.4
		c-0.3-0.2-0.6-0.6-0.9-0.9c1.4-0.7,2.8-1.3,4.3-2c0.5-0.2,1.1-0.7,1.6-0.7c1.3,0,2.6,0.3,3.9,0.4c2.3,0.1,4.6,0.7,6.9-0.2
		c0.1,0,0.2,0,0.3,0c2.1-0.4,4.3-0.7,6.4-1.3c1.4-0.4,2.8-1.1,4.1-1.6c0.4-0.2,0.8-0.2,1.2-0.4c0.1,0,0.2,0,0.3,0
		c0.1,0,0.2,0,0.3,0.1c0.5,0,1.1,0.5,1.4-0.4c0.1,0,0.1,0.1,0.2,0.1c0.1,0.1,0.2,0.3,0.3,0.4c0.8,0.1,1.5,0.2,2.3,0.3
		c3.6,0.3,7.2,0.6,10.8,1c1.8,0,3.5,0,5.3,0.1c1.1,0.1,2.3,0.3,3.4,0.4c3.7,0.3,7.5,0.5,11.2,0.9c6.2,0.6,12.3,0.8,18.5,0.2
		c2.9-0.3,5.7-0.5,8.6-0.7c0.7,0,1.4,0.1,2,0.2c-0.2,0.3-0.3,0.7-0.5,0.8c-1.1,0.7-2.3,1.4-3.5,2.1c-1.2,0.7-2.5,1.3-3.6,2.1
		c-1.6,1.1-3.1,2.4-4.7,3.5c-2.2,1.4-4.4,2.8-6.6,4.2c-0.4,0.2-0.6,0.7-0.9,1.1c-9.3,0.9-18.6,1.1-27.9,0.7c-0.3,0-0.6,0-0.9,0
		C306.9,479.8,306.7,479.8,306.6,479.8z"/>
	<path class="st6" d="M290.2,454.7c-1.1-4.5-2.1-9.1-3.2-13.6c0,0,0-0.1,0-0.1c-0.3-0.4-0.6-0.8-0.9-1.2c-0.2,0.5-0.5,1-0.4,1.5
		c0.2,1.6,0.6,3.1,1,4.7c0.6,3,1.3,6,1.9,9c-1.2,0.1-2.3,0.2-3.5,0.2c-2.2,0-4.4,0-6.6,0c-0.6-0.1-1.2-0.3-1.9-0.4
		c-0.5-2.5-1.1-5-1.6-7.6c-0.1-0.7-0.3-1.2-1.2-1c-0.4-1.1-0.9-2.1-1.1-3.2c-0.2-0.6,0-1.3,0-1.9c1-0.1,1.1-0.6,1-1.5
		c-1.1-5.9-2.1-11.9-3.1-17.9c-0.2-1.4-0.6-2.9-0.6-4.3c0-1.2-1-1.6-1.4-2.3c-0.4-0.7-0.9-1.2-1.3-1.8c1.1,0.2,2.3,0.3,3.6,0.5
		c2.2,0.4,4.3,1,6.5,1.3c1.6,0.2,3.2,0.4,4.6-0.8c2.2,0.2,4.4,0.5,6.6,0.7c0.4,0.2,0.8,0.5,1.3,0.7c1.6,0.4,3.1,0.7,4.7,1.1
		c0.3,0.1,0.7,0.5,0.7,0.8c0.8,4,1.7,8,2.4,12c0.8,4,1.4,8,2.2,12c0.6,3.2,1.4,6.4,2.1,9.5c0.2,0.9,0.1,1.3-0.8,1.5
		c-0.4,0.1-0.7,0.3-1,0.5c-0.3,0-0.7,0.1-1,0.1C296.2,453.7,293.2,454.2,290.2,454.7z M285.4,431.8c0-0.3-0.1-0.3-0.1-0.4
		c-0.8-4.1-1.5-8.2-2.3-12.3c-0.1-0.4-0.6-0.7-0.9-1c-0.2,0.4-0.6,0.8-0.5,1.2c0.6,3.9,1.3,7.8,2,11.6c0.1,0.4,0.2,0.8,0.5,1.1
		c0.1,0.2,0.6,0.4,0.8,0.3C285.1,432.3,285.3,431.9,285.4,431.8z M284.6,435.8c0.2,0.9,0.1,1.9,1.1,1.8c1-0.1,0.5-1,0.4-1.6
		c0,0,0-0.1,0-0.1c-0.3-0.3-0.5-0.7-0.8-1C285,435.2,284.8,435.6,284.6,435.8z"/>
	<path class="st7" d="M337.2,375c0.2,4.2,0.5,8.4,0.7,12.7c0.1,1.7-0.4,3.2-1.3,4.7c-0.3,0.4-0.5,0.9-0.8,1.4
		c-0.1,0.1-0.3,0.3-0.4,0.4c0,0.1-0.1,0.2-0.1,0.2c-0.3,0-0.6,0-0.9,0.1c-1.6,0.5-3.2,1.1-4.7,1.7c-0.2,0.1-0.3,0.2-0.4,0.3
		c-0.4,0.1-0.8,0.2-1.1,0.3c-0.2,0.1-0.5,0.4-0.6,0.3c-1-0.6-1.8,0.2-2.8,0.3c-5.3,0.7-10.6,1.4-15.9,2.1c-0.4,0-0.8-0.1-1.1-0.1
		c0-0.1,0-0.1,0-0.2c0.2-0.1,0.4-0.2,0.4-0.2c-0.7-0.7-1.6-1.3-2.2-2.1c-1.4-1.8-1.3-4.1-1.6-6.2c-0.1-0.7-0.2-1.5-0.2-2.2
		c-0.1-1.3-0.1-2.5-0.2-3.8c-0.1-1.3-0.4-2.6-0.5-3.9c-0.1-0.9-0.2-1.7-0.2-2.6c-0.1-1.5-0.3-3-0.3-4.6c-0.1-1.9-0.1-3.9-0.1-5.8
		c0-0.1,0-0.3,0-0.4c0.1-0.1,0.2-0.2,0.2-0.3c0,0,0.1,0,0.1,0l0.1,0c1.2-0.1,2.2,0.4,3.1,1.2c0.9,0.8,2,1.4,2.8,2
		c1-0.9,1.8-1.7,2.7-2.5c3.8-0.6,7.7-1.1,11.5-1.7c2.9-0.5,5.8-1,8.8-1.5c0.1,1.2,0.2,2.5,0.2,3.7c-0.4,0.2-1,0.3-1.2,0.6
		c-2,3.1-3.9,6.3-5.9,9.4c-1,1.7-1,1.6-2.9,1c-1.9-0.7-3.3-0.5-4.4,1.4c-2,3.6-4.2,7.2-6.2,10.8c-0.1,0.2,0,0.6,0.1,0.9
		c0.3-0.1,0.6-0.1,0.8-0.2c0.4-0.5,0.8-1,1.2-1.6c1.7-3,3.4-5.9,5-8.9c1-1.7,1.4-1.9,3.3-1.3c0.3,0.1,0.6,0.2,0.9,0.3
		c1.2,0.5,1.9,0.4,2.6-0.8c2.3-3.7,4.6-7.4,6.9-11.1c0.1,0,0.2,0,0.4,0c0.1,0,0.1,0,0.2,0c1.3,1.9,2.6,3.8,3.9,5.7
		C337.1,374.8,337.1,374.9,337.2,375z"/>
	<path class="st8" d="M272.7,441.1c0,0.6-0.2,1.3,0,1.9c0.3,1.1,0.8,2.2,1.1,3.2c0,0.9-0.1,1.8,0.1,2.7c0.3,1.7,0.7,3.4,1,5.2
		c0.1,0.3,0,0.7,0,1.3c-2.2-0.6-4.2-1.2-6.2-1.8c-0.1-0.2-0.1-0.3-0.2-0.5c1.7-0.4,3.4-2.3,3.4-3.7c0,0,0,0,0,0c0.2-0.4,1-0.8,0-1.2
		c0-0.1,0-0.2,0-0.4c0.9-0.3,0.4-0.7,0.1-1.1c-0.1-0.4-0.1-0.9-0.4-1.2c-1.1-1.5-2.1-3-3.3-4.3c-2.4-2.6-4.9-5.1-7.3-7.8
		c-2.1-2.4-3.8-5.3-4.6-8.4c-1.2-4.5-1.1-9.1-1-13.7c0-0.5-0.2-1.1-0.2-1.6c0-1,0-2.1,0-3.1c0.2-0.5,0.4-0.9,0.5-1.4
		c0.1-1.6,0-3.1,0-4.7c0.1-1.1,0.2-2.2,0.2-3.3c0.2-4.6,0.3-9.2,0.5-13.9c0.1-2.2,0.5-4.5,0.6-6.7c0.1-1.5,0.2-3,0-4.5
		c-0.5-3.3-2.8-5-5.7-6.1c-0.3-0.1-0.6,0.1-1,0.1c-1.8,0-3.5,0.2-4.8,1.6c-0.9,1-1.7,2-2.6,3.1c-0.4,0.5-0.9,0.9-1.3,1.3
		c-0.6-0.1-0.9,0.1-1,0.7c-0.4,1.7-0.9,3.3-1.4,4.9c-0.1,0.3-0.6,0.5-0.9,0.7c-0.1-0.1-0.3-0.2-0.4-0.4c0.2-4.7,0.3-9.4,0.5-14.1
		c0-0.7,0.7-1.5,1.2-2.2c2.4-3.5,4.6-7.2,7.2-10.5c1.9-2.4,4.5-4.3,6.8-6.4c0.6,0.4,1.1,0.9,1.8,1.2c3.6,1.9,7.2,3.9,10.8,5.8
		c0.7,0.4,1.6,0.4,2.4,0.6c-0.1,0.7-0.1,1.5-0.4,2.1c-1.7,3-3.5,5.9-5.2,8.8c-1,1.7-1.9,3.5-2.9,5.2c-0.4,2-0.8,3.9-1.2,5.9
		c-0.2,0.9-0.3,1.9-0.5,2.8c-1.3,4.8-0.5,9.6-0.1,14.4c0.5,5.1,1.5,10.1,2.1,15.2c0.2,1.5,0,3,0,4.5c-1.3-0.3-2.4-0.5-3.5-0.8
		c0.2,0.3,0.4,0.5,0.7,0.5c2.9,0.8,5.8,1.6,8.7,2.4c1,0.3,2.2,1.8,2.3,2.9c0.1,1.8,0.2,3.6,0.5,5.4c0.8,4.9,1.6,9.9,2.5,14.8
		C271.8,438.2,272.3,439.6,272.7,441.1z M241.6,370.8c0.1-0.2,0.1-0.5,0.2-0.7c0.3-0.5,0.6-0.9,1-1.4c-0.1-0.1-0.3-0.1-0.4-0.2
		c-0.2,0.5-0.4,1.1-0.6,1.6c-0.1,0.2-0.3,0.5-0.4,0.7c0,0.2,0,0.3,0,0.5c0.1,0,0.1,0,0.2,0C241.6,371.2,241.6,371,241.6,370.8z
		 M242.7,368.1c0.1,0.1,0.2,0.1,0.3,0.2c0.3-0.4,0.6-0.7,0.9-1.1c-0.1-0.1-0.2-0.2-0.3-0.2C243.3,367.3,243,367.7,242.7,368.1z"/>
	<path class="st9" d="M314.6,341.6c-0.1-0.2-0.2-0.3-0.2-0.5c0.1-0.5,0-1.2,0.3-1.6c0.6-1,0.5-1.7-0.5-2.3c-0.6-0.6-1.2-1.1-1.8-1.7
		c-0.1-0.1-0.1-0.2-0.2-0.3c-1.7-1-3.4-2-5.1-2.9c1.6-1.1,3.6-2.1,5.9-2.4c1.1-0.1,2.2-0.2,3.3-0.2c2.5,0,5-0.2,7.4-1.1
		c2.4-0.9,4.9-0.9,7.4-0.5c0,0.1,0.1,0.3,0.1,0.4c-2.4,1.1-4.9,0.9-7.4,1c-2,0-3.8,0.7-5.5,1.7c-0.3,0.2-0.5,0.4-0.9,0.9
		c3.5-0.3,6.8-0.5,10-0.8c0.3-0.2,0.7-0.4,1-0.6c2-0.3,4.1-0.7,6.1-0.7c5.6-0.1,9.9,4.2,10.1,9.9c-0.3-0.2-0.7-0.3-1-0.5
		c-1.7-0.8-3.4-1.6-5.1-2.3c-0.3-0.1-0.6-0.1-0.9-0.1c0,0.1,0,0.2-0.1,0.3c0.3,0.1,0.6,0.2,0.9,0.3c1.4,0.9,3,1.6,4.2,2.8
		c0.9,0.8,1.5,1.8,2.9,1.9c0.5,0.1,1,0.7,1.5,1c0.2,0.1,0.3,0.3,0.5,0.4c0.1-0.1,0.2-0.2,0.3-0.3c-0.7-0.8-1.5-1.7-2.2-2.5
		c-0.2-0.2-0.2-0.6-0.3-0.9c2.3-1.6,4.8-2.7,7.6-2.2c7.1,1.1,11.3,8,7.6,14.9c-0.1,0.2-0.2,0.4-0.3,0.6c-0.4,0.2-0.7,0.4-1.1,0.6
		c-1,0.5-2.1,1.1-3.1,1.6c-0.3-0.1-0.5-0.2-0.8-0.2c-2,0.1-3.9,0.2-5.9,0.4c0.1-0.7,0.1-1.4,0.2-2.3c-0.6,1-1,1.8-1.4,2.5
		c-0.1-0.1-0.2-0.1-0.3-0.2c0-0.2-0.1-0.4-0.2-0.7c-0.4,0.9-0.8,1.7-1.2,2.4c-0.2,0.3-0.6,0.7-0.9,0.7c-3.4,0.7-6.9,1.4-10.4,0.3
		c-0.2,0-0.4-0.1-0.6-0.1c-0.1-0.3-0.2-0.6-0.2-0.8c0.1-0.6,0.4-1.3,0.6-1.9c0.6-1.8,0.6-3.5,0.2-5.3c-0.4-2.7-1.6-4.8-3.5-6.7
		c-3.4-3.4-8.8-4.5-13.1-2.4c-1.2,0.6-2.2,1.3-3.3,2c0-0.2,0-0.3,0-0.5c-0.1-0.1-0.2-0.2-0.2-0.3c0-0.1,0-0.1,0-0.2
		C314.8,341.9,314.7,341.7,314.6,341.6z M315.3,336.7c0,0.1-0.1,0.2-0.1,0.3C315.3,336.9,315.3,336.8,315.3,336.7c0,0,0-0.1,0.1-0.1
		C315.4,336.7,315.3,336.7,315.3,336.7z M316,335.6c0.1-0.2,0.3-0.3,0.4-0.5c-0.1,0-0.1-0.1-0.2-0.1
		C316.2,335.2,316.1,335.4,316,335.6C316,335.6,316,335.6,316,335.6C316,335.6,316,335.6,316,335.6z M316.7,332.3
		c0.1,0.1,0.2,0.2,0.3,0.3c0.2-0.2,0.3-0.3,0.5-0.5c0,0-0.1-0.1-0.2-0.3C317,332,316.8,332.1,316.7,332.3z"/>
	<path class="st10" d="M361,389.7c-0.2-0.1-0.5-0.2-0.7-0.2c-0.2-0.2-0.3-0.4-0.5-0.6c-1.4-0.6-2-1.9-2.3-3.3
		c-0.4-1.8-0.5-3.6-0.7-5.4c-0.3-2.9-0.5-5.7-0.7-8.6c0.6-0.1,1.3-0.1,1.9-0.3c1.4-0.3,2.9-0.6,4.3-0.9c0.4,0,0.8,0,1.2,0
		c1.2-3.6,0.6-7.1,0.1-10.5c0-0.3,0.2-0.7,0.3-1c1.7,0.3,3.2-0.1,4.8-0.7c0,0,0-0.1,0.1-0.2c0.2,0,0.3,0,0.5,0
		c0.4,0.1,0.8,0.3,1.2,0.2c2.9-0.4,5.8-0.9,8.7-1.3c0.5-0.1,0.9,0,1.4,0c-0.8,1.8-1.9,3.6-2.5,5.5c-1.2,3.7-2.2,7.6-3.3,11.3
		c-0.6,1.9-0.7,2-2.4,1c-0.2-0.1-0.5-0.3-0.7-0.4c-1.4-0.7-2.2-0.4-3,1c-0.2,0.3-0.3,0.5-0.4,0.8c-1,2.4-1.9,4.7-2.9,7.1
		c-0.1,0.2,0.1,0.6,0.1,0.9c0.3-0.1,0.7-0.2,0.8-0.4c0.4-0.5,0.7-1.1,0.9-1.7c0.8-2,1.6-4,2.3-6c0.3-0.9,0.9-1,1.7-0.6
		c0.2,0.1,0.5,0.2,0.7,0.4c2,1.1,3.2,0.7,3.8-1.5c0.7-2.4,1.2-4.8,2-7.2c1.1-3.2,2.4-6.3,3.6-9.4c0.1-0.3,0.1-0.7,0.1-1.1
		c0.4-0.2,0.9-0.4,1.3-0.6c0.7-0.2,1.4-0.4,2.1-0.5c1.7,0.2,1.5,1.7,1.6,2.7c0.5,5,0.8,9.9,1.2,14.9c0.1,1.9,0.4,3.7,0.4,5.6
		c0.1,2.6-0.9,4.8-3.3,6.1c-1.1,0.6-2.4,0.7-3.6,1c-2.7,0.6-5.5,1.3-8.2,1.9c-0.1,0-0.2,0-0.3,0c-0.1,0-0.3,0-0.4,0.1
		c-0.3,0.1-0.6,0.1-0.9,0.2c-0.2-0.1-0.4-0.2-0.6-0.2c-2.2,0.4-4.5,0.8-6.7,1.3c-0.3,0.1-0.5,0.3-0.8,0.5c-0.4,0-0.7,0-1.1,0.1
		C361.7,389.8,361.3,389.7,361,389.7z"/>
	<path class="st10" d="M302.9,367.4c0,0.1,0,0.3,0,0.4c-0.2,0.2-0.4,0.4-0.5,0.6c-0.2,0.6-0.3,1.3-0.5,1.9c-1.9-0.1-3.7-0.2-5.6-0.2
		c-1.5-0.1-3.1,0.4-4.3-0.9c0.1-0.8,0.1-1.6,0.3-2.4c0.7-2.8,2.7-4.3,5.6-4.3c2.9,0,5.8,0.2,8.7,0.2c0.8,0,1.5,0.1,1.5,1
		c0.7-0.3,1.4-0.8,2.1-0.9c1.5-0.3,3-0.5,4.5-0.8c5.6-1.1,11.3-2.3,16.9-3.4c0.8-0.1,1.6,0.1,2.4,0.1c0.1,0.3,0.2,0.6,0.3,0.8
		c0.1,0.1,0.2,0.4,0.4,0.4c2.6,0,5.2,0.2,7.7-0.1c4.5-0.6,9-1.4,13.5-2.2c1.1-0.2,2.2-0.5,3.3-0.8c0-0.1,0-0.2,0-0.2
		c-0.3,0-0.7-0.1-1-0.1c0,0.1,0.1,0.1,0.1,0.2c2-1,3.9-2.1,5.9-3.1c0.2,0,0.3,0,0.5,0c0,0,0,0.1,0,0.1c0,0,0,0,0.1,0
		c0,0-0.1-0.1-0.1-0.1c0.3-0.1,0.6-0.2,0.9-0.2c0.2-0.2,0.3-0.3,0.5-0.5c2.9-0.3,5.8-0.7,8.6-1c2.7-0.3,5.4-0.7,8-1.1
		c0.6-0.1,1.3-0.2,1.9-0.2c1.5-0.1,2.7,0.5,3.6,1.6c-0.8,1.3-0.9,1.3-2.1,0.6c-0.6-0.3-1.3-0.5-1.9-0.3c-7.5,1.4-14.9,2.9-22.3,4.4
		c0,0-0.1,0-0.2,0.2c0.2,1.5,0.3,3.1,0.5,4.8c0.2,1.4,0.4,2.9,0.6,4.3c0.1,0.7-0.3,0.9-0.8,1c-3.8,0.6-7.6,1.3-11.4,1.9
		c-3.2,0.6-6.5,1.2-9.7,1.7c-1.2,0.2-2.5,0.4-3.9,0.6c-0.1-1.3-0.3-2.6-0.4-3.9c-0.1-0.6-0.1-1.1-0.2-1.7c0-0.4,0-0.8,0-1.1
		c0-0.6,0-1.2,0-1.8c-0.1-0.2-0.1-0.5-0.2-0.7c-0.7-0.2-1.5-0.6-2.2-0.6c-1.1,0-2.3,0.3-3.4,0.4c-5.5,0.8-11,1.5-16.5,2.3
		c-1.9,0.3-4.1,0.1-5.2,2.4c-0.6-0.4-1-0.7-1.5-1c0.1-0.1,0.1-0.2,0.2-0.2c0-0.2,0-0.4,0-0.5c-0.6,1.1-1.6,1.1-2.6,1
		c-0.3,0-0.6,0-0.9,0C302.8,365.8,302.5,366.2,302.9,367.4z"/>
	<path class="st11" d="M287.2,457.7c3.7-0.6,7.5-1.2,11.2-1.7c0.4-0.1,0.7,0,1.1,0c-0.8,0.8-1.5,1.7-2.5,2.7
		c1.4,0.3,2.4,0.6,3.4,0.8c7.5,1.4,15.1,2.4,22.8,2.3c5-0.1,10,0.3,14.9-0.8c2.7-0.6,5.4-1.2,8-2c2.5-0.7,4.9-1.7,7.3-2.6
		c0.4-0.2,0.9-0.3,1.3-0.5c-0.3-0.4-0.6-1.1-1-1.2c-1.2-0.5-2.5-0.7-3.7-1.1c-1-0.3-2.1-0.5-3.1-0.8c3.2,0,6.4,0.1,9.5,0.1
		c2.3,0,4.6,0,6.9,0.1c2.1,0,4.2-0.3,6.1-1.3c2.4-1.3,4.9-2.6,7.3-4c1.8-1,3.6-2.2,5.4-3.3c-1.7,1.7-3.3,3.5-5,5.2
		c-3.3,3.4-7.1,6-11.4,8c-0.3,0.1-0.4,0.4-0.6,0.6c-0.3,0.2-0.6,0.5-0.9,0.7c-0.1,0-0.2,0-0.2,0c-0.3-0.1-0.6-0.3-0.8-0.3
		c-0.6,0.2-1.2,0.5-1.8,0.7c-8.8,3.2-18,5-27.3,5.5c-4.9,0.3-9.9-0.1-14.8-0.5c-4-0.3-7.9-1-11.9-1.8c-6.6-1.3-13.1-2.9-19.7-4.3
		C287.7,458.1,287.5,457.9,287.2,457.7z"/>
	<path class="st12" d="M335.8,479.1c0.3-0.4,0.5-0.9,0.9-1.1c2.2-1.4,4.4-2.7,6.6-4.2c1.6-1.1,3.1-2.4,4.7-3.5
		c1.2-0.8,2.4-1.4,3.6-2.1c1.2-0.7,2.3-1.4,3.5-2.1c0.2-0.2,0.3-0.6,0.5-0.8c0.3-0.1,0.6-0.1,0.8-0.2c1-0.6,1.9-1.2,2.9-1.8
		c0.5-0.3,0.8-0.6,1.3,0.1c0.2,0.3,1.1,0.2,1.5,0c0.8-0.4,1.5-1,2.3-1.5c0.6,1.2,1.3,2.3,1.8,3.5c0.8,1.9,1.5,3.9,2.3,5.8
		c0,0.1,0,0.1,0,0.2c-4.3,2.3-8.9,3.7-13.6,4.8C348.7,477.6,342.3,478.5,335.8,479.1z"/>
	<path class="st13" d="M353.6,456.3c-2.4,0.9-4.9,1.8-7.3,2.6c-2.6,0.8-5.3,1.4-8,2c-4.9,1.2-9.9,0.8-14.9,0.8
		c-7.7,0.1-15.3-0.9-22.8-2.3c-1-0.2-2.1-0.5-3.4-0.8c0.9-1,1.7-1.9,2.5-2.7c0.4-0.2,0.8-0.4,1.2-0.6c0.2,0,0.5,0,0.7,0
		c-0.6,0.6-1.2,1.2-1.9,2c0.4,0.2,0.7,0.5,1.1,0.5c1.1,0.2,2.3,0.3,3.4,0.5c2.1,0.3,4.1,0.6,6.2,0.8c0.2,0,0.5,0.1,0.7,0.1
		c2.7-0.1,5.4-0.3,8.2-0.4c1.2-0.1,2.4-0.2,3.7-0.2c1.7,0,3.1-1.1,4.6-1.6c1.8-0.6,3.7-1.1,5.5-1.7c1.1-0.4,2.2-0.7,3.1-1.3
		c0.6-0.4,1.3-1.2,1.3-1.9c0.1-1,0.5-1.1,1.3-1.1c0.4,0,0.7-0.1,1.1-0.2c0.3,0.5,0.4,1.2,0.8,1.3c3.1,1,5.9,2.6,9.3,2.9
		C351.1,455.1,352.3,455.9,353.6,456.3z"/>
	<path class="st14" d="M290.9,462.9c-0.4,0.1-0.8,0.2-1.2,0.4c-1.4,0.5-2.7,1.3-4.1,1.6c-2.1,0.6-4.3,0.9-6.4,1.3
		c-0.1,0-0.2,0-0.3,0c-2.3,0.8-4.6,0.3-6.9,0.2c-1.3-0.1-2.6-0.3-3.9-0.4c-0.5,0-1.1,0.4-1.6,0.7c-1.4,0.7-2.8,1.3-4.3,2
		c-1.5-0.9-2.2-2.3-2.3-4c0.2-0.2,0.4-0.3,0.5-0.5c1.7-2.9,3.4-5.8,5-8.8c0.1-0.2,0.1-0.6,0.2-0.8c0,0,0,0,0,0c0.1,0,0.2,0,0.3,0
		c1.7,0.1,2.9,1.1,4.3,1.9c1.1,0.5,2.2,1.1,3.2,1.6c0.2,0.1,0.4,0.3,0.7,0.4c1.3,0.4,2.6,0.9,4,1.3c1.6,0.5,3.2,0.8,4.8,1.2
		c0.1,0,0.3,0,0.4,0c0.2,0,0.4,0,0.5,0c0.1,0,0.3,0,0.4,0c0.3,0.1,0.5,0.2,0.8,0.2c0.1,0,0.3,0,0.4,0c0.6,0.2,1.3,0.5,1.9,0.7
		c0.1,0,0.3,0,0.4,0C288.7,462.4,289.8,462.7,290.9,462.9z"/>
	<path class="st15" d="M287.6,462.1c-0.1,0-0.3,0-0.4,0c-0.6-0.2-1.3-0.5-1.9-0.7c-0.1,0-0.3,0-0.4,0c-0.3-0.1-0.5-0.2-0.8-0.2
		c-0.1,0-0.3,0-0.4,0c-0.2,0-0.4,0-0.5,0c-0.1,0-0.3,0-0.4,0c-0.3-0.2-0.5-0.6-0.8-0.7c-2.4-0.7-4.7-1.5-7.1-2.1
		c-0.2-0.1-0.6,0.2-0.8,0.2c-0.2-0.1-0.4-0.3-0.7-0.4c-0.4-0.4-0.7-0.7-1.1-1.1c0.7-0.5,2.9-0.1,3.4,0.6c0.4,0.7,0.8,0.9,1.6,0.3
		c0.4-0.3,1.1-0.3,1.7-0.3c2.7,0,5.5,0,8.2,0c0.2,0.2,0.4,0.4,0.7,0.5c6.6,1.5,13.1,3,19.7,4.3c3.9,0.8,7.9,1.5,11.9,1.8
		c4.9,0.4,9.9,0.7,14.8,0.5c9.3-0.5,18.5-2.2,27.3-5.5c0.6-0.2,1.2-0.5,1.8-0.7c0.2-0.1,0.5,0.2,0.8,0.3c-0.7,0.6-1.4,1.3-2.2,1.6
		c-2.1,0.9-4.2,1.5-6.3,2.3c-0.3,0.1-0.7,0.2-1,0.4c0,0.1,0,0.2,0.1,0.3c0.3,0,0.6,0,0.9-0.1c3.8-1.3,7.5-2.7,11.3-4
		c0.3-0.1,0.6-0.1,0.9-0.2c-1,0.9-2.1,1.8-3.1,2.7c-0.8,0.5-1.5,1.1-2.3,1.5c-0.4,0.2-1.3,0.3-1.5,0c-0.5-0.6-0.9-0.3-1.3-0.1
		c-1,0.6-1.9,1.2-2.9,1.8c-0.2,0.1-0.5,0.2-0.8,0.2c-0.7-0.1-1.4-0.2-2-0.2c-2.9,0.2-5.7,0.4-8.6,0.7c-6.2,0.6-12.3,0.4-18.5-0.2
		c-3.7-0.4-7.5-0.6-11.2-0.9c-1.1-0.1-2.3-0.2-3.4-0.4c-0.5-0.2-0.9-0.4-1.4-0.5c-1.1-0.1-2.2-0.1-3.2-0.1c-0.2,0-0.4,0.4-0.7,0.5
		c-3.6-0.3-7.2-0.6-10.8-1c0-0.1,0-0.3,0-0.4c2.8,0.3,5.5,0.5,8.3,0.8c0-0.1,0-0.2,0-0.3c-2.7-0.4-5.5-0.8-8.2-1.2
		c-0.5-0.1-1.1,0.3-1.7,0.5c-0.2,0-0.5,0-0.7,0c-0.1,0-0.2-0.1-0.3-0.1c-0.1,0-0.1-0.1-0.2-0.1c-0.5,0.1-0.9,0.2-1.4,0.4
		c-0.1,0-0.2,0-0.3-0.1C290.7,462.1,288.9,461.7,287.6,462.1z"/>
	<path class="st16" d="M241.6,372.2c0.4-0.4,0.9-0.8,1.3-1.3c0.9-1,1.7-2,2.6-3.1c-0.9,2.7-2.7,5-3.2,8c-0.5,3-2,5.8-2.3,8.9
		c-0.3,3-1.8,5.9-1.7,9c0,2.3-1,4.5-0.6,6.9c0.3,1.9-0.2,3.8,0.4,5.7c0.4,1.5,0.2,3.2,0.3,4.8c0.2,1.7-0.2,3.4,0.6,5.2
		c0.8,1.8,0.2,4,1,6c0.4,1.2,0.3,2.6,0.3,3.9c-0.3,5.2,3,8.8,5.5,12.7c0.7,1.1,1.8,1.8,2.7,2.8c1.3,1.5,3.1,2.6,4.9,3.5
		c2,1,4.2,1.7,6.3,2.4c1.7,0.6,3.4,1.2,5.2,1.8c0.8,0.2,1.6,0.3,2.4,0.4c0.5,0,1-0.1,1.5-0.2c0.1,0.1,0.1,0.2,0.2,0.3
		c0,0.1,0,0.3,0.1,0.4c-0.6,0.3-1.2,0.6-1.8,0.9c-0.5,0-1,0-1.5-0.1c-1.2-0.4-2.4-0.8-3.6-1.2c-2.6-0.8-5.1-1.6-7.7-2.5
		c-1.5-0.5-2.9-1.2-4.3-1.8c0,0,0,0,0,0c-0.4-1.2-1.4-1.6-2.5-1.9c0,0,0,0,0,0c-0.2-0.2-0.5-0.4-0.7-0.6c-0.1,0-0.1-0.1-0.1-0.1
		c-0.8-0.8-1.6-1.6-2.4-2.5c-3.4-3.8-5.3-8.3-6.2-13.3c-0.8-4.6-1.4-9.2-2.1-13.9c-1.4-9.3-0.5-18.4,1.9-27.3
		c1-3.8,2.2-7.5,3.2-11.3c0.1-0.3,0.1-0.5,0.2-0.8c0-0.1,0-0.2,0-0.4C241.5,373.2,241.6,372.7,241.6,372.2z"/>
	<path class="st17" d="M352.9,335.6c-2.4-0.1-4.6,0.2-6.8,1.5c-1-3.5-3-6.2-6.3-7.7c0-0.1,0-0.3,0-0.4c4.1-0.5,7.6,1.1,11.1,3
		c-0.2-1-0.5-1.4-3.9-3.6c2.8-1.1,5.3-1.1,7.9,0.2c3.1,1.5,5.2,3.8,5.7,7.3c-1.1,0-2,0-3,0c-0.1,0-0.2,0-0.1,0c-0.1,0,0,0,0.1,0
		c1.3,0.9,2.4,1.9,3.8,2.6c4.6,2.4,6.6,6.8,5.2,11.6c-0.3,1.1-0.8,1.7-1.9,1.7c-0.7,0-1.3,0.2-2,0.3c0.2-1.2,0.5-2.3,0.6-3.4
		c0.7-6.1-3.2-10.9-9.1-12.6c-0.3-0.1-0.7-0.2-1-0.3c-0.1-0.2-0.2-0.5-0.2-0.7c-0.4-0.8-0.9-1.6-1.3-2.4c-0.2-0.3-0.5-0.5-0.7-0.8
		c-0.1,0.1-0.2,0.2-0.3,0.3c0.2,0.3,0.5,0.6,0.7,0.9c0.4,0.8,0.9,1.6,1.3,2.4C352.8,335.3,352.9,335.5,352.9,335.6z"/>
	<path class="st5" d="M364.6,461.8c1-0.9,2.1-1.8,3.1-2.7c0.9-0.5,1.8-1.1,2.7-1.6c0.1,0.2,0.2,0.3,0.3,0.5c1.2,2.5,2.4,4.9,3.6,7.4
		c-0.5,1-0.8,2.1-1.5,2.8c-1.2,1.2-2.7,2-4,3c-0.1,0-0.1-0.1-0.2-0.1c-0.7-1.9-1.5-3.9-2.3-5.8C365.8,464.1,365.2,462.9,364.6,461.8
		z"/>
	<path class="st13" d="M382.3,444.4c-1.8,1.1-3.6,2.2-5.4,3.3c-2.4,1.4-4.9,2.7-7.3,4c-1.9,1-3.9,1.4-6.1,1.3c-2.3,0-4.6,0-6.9-0.1
		c-3.2,0-6.4-0.1-9.5-0.1c-1.7-0.6-3.4-1.1-5.1-1.7c1.2-0.1,2.5-0.2,3.7-0.2c2,0,4,0.2,6,0.3c2.8,0.2,5.5,0.7,8.3,0.8
		c2.4,0.1,4.9,0.1,7.3-0.3c1.6-0.3,3.2-1.2,4.7-1.9c1.5-0.8,2.9-1.7,4.3-2.6c2.8-1.8,5.5-3.5,8.3-5.3c0.3-0.2,0.7-0.3,1-0.5
		C384.5,442.3,383.4,443.3,382.3,444.4z"/>
	<path class="st2" d="M364.2,353.6c-2,1-3.9,2.1-5.9,3.1c0-0.1-0.1-0.1-0.1-0.2c0.3,0,0.7,0.1,1,0.1c0,0.1,0,0.2,0,0.2
		c-1.1,0.3-2.2,0.6-3.3,0.8c-4.5,0.8-9,1.7-13.5,2.2c-2.5,0.3-5.2,0.1-7.7,0.1c-0.1,0-0.2-0.2-0.4-0.4c0,0,0.1,0,0.1,0l0.1,0
		c0.1,0,0.2,0,0.2,0c1.2-0.1,2.4-0.1,3.6-0.2c-1-0.3-2-0.4-3-0.6c-0.1,0-0.2-0.4-0.3-0.5c3.5,1.1,6.9,0.4,10.4-0.3
		c0.3-0.1,0.7-0.4,0.9-0.7c0.4-0.7,0.8-1.6,1.2-2.4c0.1,0.3,0.1,0.5,0.2,0.7c0.1,0.1,0.2,0.1,0.3,0.2c0.4-0.8,0.9-1.5,1.4-2.5
		c-0.1,0.9-0.1,1.6-0.2,2.3c-0.1,0.3-0.2,0.6-0.4,1.2c1.8-0.2,3.2-0.4,4.7-0.5c0.2,0.1,0.4,0.4,0.6,0.4c2.9-0.4,5.8-0.9,8.4-2.5
		c0.3-0.2,0.5-0.6,0.7-0.9C363.6,353.3,363.9,353.4,364.2,353.6z"/>
	<path class="st2" d="M354.3,384.4c-1.2-3.1-2.5-6.1-3.7-9.2c1.4-0.7,2.8-1.5,4.2-2.2c0.7-0.3,1,0.1,1.1,0.8c0.1,2,0.3,4,0.4,6
		c0.1,1,0.1,2.1,0.3,3.1c0.1,1.2-0.3,1.6-1.5,1.5C354.8,384.4,354.6,384.4,354.3,384.4z"/>
	<path class="st11" d="M350.1,374.7c-0.9,0.2-1.8,0.4-2.8,0.5c-2.4,0.3-4.8,0.6-7.2,0.8c-0.5,0.1-1,0.2-1.4,0.2
		c-0.1-1.1-0.2-2.3-0.3-3.5c3.3-0.6,6.6-1.1,9.8-1.7c0.9-0.2,1.4,0.2,1.5,1.2C349.7,373.1,350,373.9,350.1,374.7z"/>
	<path class="st18" d="M310.3,328.5c0-0.1,0-0.3,0-0.4c4.2-0.6,8.4-1.3,12.6-1.9c1.7-0.3,3.4-0.3,5.1-0.8c2.9-0.7,5.8-0.2,8.6,0.4
		c1.3,0.3,2.7,0.5,4.1,0.8c0,0.1,0,0.3,0,0.4c-1.1,0.3-2.1,0.6-3.2,0.7c-0.8,0.1-1.7,0.3-2.3-0.1c-4.2-2.3-8.5-2.2-12.9-0.8
		c-1.4,0.5-3,0.6-4.5,0.8C315.2,328,312.7,328.2,310.3,328.5z"/>
	<path class="st18" d="M373.6,349c-1.5,0-2.8,0-4.2,0c-0.2,0-0.5-0.6-0.5-0.9c0.2-2.8-0.5-5.4-2-7.7c0-0.1,0-0.1,0-0.2
		C367.7,340.4,372.7,346.8,373.6,349z"/>
	<path class="st19" d="M374.5,437.4c2.2-0.3,4.5-0.7,6.7-1c0.3,0,0.6-0.1,1-0.2c-0.9,0.8-1.9,1.6-2.8,2.4c-0.4,0.1-0.8,0.2-1.2,0.4
		c0,0.1,0.1,0.3,0.1,0.4c0.9-0.4,1.9-0.7,2.8-1.1c0,0,0,0,0,0c0.4,0,0.9,0,1.3,0c-1.1,1.3-2.5,1.8-4.2,1.4c-0.8-0.2-1.6,0.1-2.5,0.1
		c-0.7,0-1.4-0.1-2.1-0.1C373.9,439,374.2,438.2,374.5,437.4z"/>
	<path class="st20" d="M363.2,389.8c0.3-0.2,0.5-0.5,0.8-0.5c2.2-0.5,4.5-0.9,6.7-1.3c0.2,0,0.4,0.1,0.6,0.2
		c-0.6,0.2-1.2,0.5-1.8,0.6c-1.5,0.4-3,0.8-4.5,1.2c0,0.2,0.1,0.4,0.1,0.6c1.4-0.2,2.9-0.4,4.3-0.6c0.2-0.1,0.3-0.1,0.5-0.2
		c0.2,0,0.4,0,0.7,0c1,0,2,0,3,0.1c1.3,0.1,2.6,0.4,3.9,0.6c-4.3,0.2-8.6,0.3-12.9,0.5c-0.6,0-1.3-0.1-1.9-0.4
		c0.5-0.1,0.9-0.3,1.6-0.5C363.8,389.9,363.5,389.8,363.2,389.8z"/>
	<path class="st2" d="M336.3,364.6c0,0.4,0,0.8,0,1.1c-0.2,0.2-0.4,0.4-0.5,0.7c-0.3,1.6-0.4,1.6-1.9,1.3c-0.2,0-0.4-0.1-0.6-0.1
		c-0.3,0.5,1.3,1.3-0.3,1.4c-0.1,0-0.1,0-0.2,0c0-0.4,0-0.8-0.1-1.2c-0.3-1.6-0.5-3,1.2-4c0.8-0.4,1.4-1.1,2.1-1.7
		c0.1,0.2,0.1,0.5,0.2,0.7C335.6,363.4,335.5,364,336.3,364.6z"/>
	<path class="st17" d="M379.8,387.9c1.2-0.2,2.5-0.5,4.1-0.8c-0.3,2.1-0.5,4-0.8,5.9c-0.1,0-0.3,0-0.4,0c-0.1-0.2-0.3-0.3-0.4-0.5
		c0.2-0.5,0.2-0.8-0.5-0.6c0,0,0,0,0,0c-0.1-0.5-0.1-1-0.3-1.5C381,389.6,380.4,388.7,379.8,387.9z"/>
	<path class="st19" d="M288.6,415.1c-2.2-0.2-4.4-0.5-6.6-0.7c0-0.7-0.4-1-1.1-0.9c-0.7,0.1-1.3,0.1-2,0.2c0.2-0.2,0.4-0.4,0.8-0.9
		c-0.3-0.9-0.8-2.2-1.2-3.4c0.3,0.1,0.6,0.3,1,0.4c0.5,0.7,1,1.4,1.4,2.2c0.5,0.9,1.1,1.5,2.2,1.3c1.8,0.6,3.5,1.5,5.5,1.2
		C288.6,414.6,288.6,414.9,288.6,415.1z"/>
	<path class="st7" d="M363.2,353.1c-0.2,0.3-0.4,0.7-0.7,0.9c-2.6,1.6-5.5,2.1-8.4,2.5c-0.2,0-0.4-0.2-0.6-0.4
		c0.8-0.3,1.6-0.6,2.3-0.9c1-0.5,2.1-1.1,3.1-1.6c0.4-0.2,0.7-0.4,1.1-0.6C361.1,353.1,362.2,353.1,363.2,353.1z"/>
	<path class="st21" d="M269.1,334.8c0,0.3,0,0.7-0.2,0.8c-4.2,2.8-8.5,5.7-12.8,8.4c-0.6,0.4-1.4,0.5-2.1,0.7
		c4.3-2.9,8.6-5.7,12.9-8.6C267.6,335.7,268.4,335.3,269.1,334.8z"/>
	<path class="st2" d="M345.2,339.8c0.1,0.3,0.1,0.7,0.3,0.9c0.7,0.9,1.5,1.7,2.2,2.5c-0.1,0.1-0.2,0.2-0.3,0.3
		c-0.2-0.1-0.3-0.3-0.5-0.4c-0.5-0.4-1-1-1.5-1c-1.4-0.1-2-1.1-2.9-1.9c-1.2-1.1-2.7-1.9-4.2-2.8c-0.3-0.2-0.6-0.2-0.9-0.3
		c0-0.1,0-0.2,0.1-0.3c0.3,0,0.6,0,0.9,0.1c1.7,0.8,3.4,1.5,5.1,2.3c0.3,0.2,0.7,0.3,1,0.5C344.8,339.7,345,339.8,345.2,339.8z"/>
	<path class="st2" d="M380.6,356.8c-0.5,0-1-0.1-1.4,0c-2.9,0.4-5.8,0.9-8.7,1.3c-0.4,0.1-0.8-0.1-1.2-0.2c1.9-0.4,3.8-0.8,5.7-1.1
		c2.9-0.5,5.8-1,8.7-1.4c0.4-0.1,0.9,0.2,1.3,0.3c-0.7,0.2-1.4,0.3-2.1,0.5c-0.5,0.1-0.9,0.4-1.3,0.6
		C381.2,356.8,380.9,356.8,380.6,356.8z"/>
	<path class="st5" d="M265.5,454.7c-0.1,0.3-0.1,0.6-0.2,0.8c-1.7,2.9-3.4,5.8-5,8.8c-0.1,0.2-0.3,0.3-0.5,0.5
		c0.2-0.8,0.2-1.6,0.6-2.3c1.2-2.3,2.5-4.6,3.8-6.8C264.5,455.2,265.1,455,265.5,454.7z"/>
	<path class="st11" d="M377.5,390.5c-1.3-0.2-2.6-0.5-3.9-0.6c-1-0.1-2-0.1-3-0.1c1.7-0.4,3.5-0.8,5.2-1.2c0.3-0.1,0.6-0.1,0.9-0.2
		c1-0.3,1.6,0.1,1.9,1.1c0.2,0.7,0.3,1.4,0.5,2.1c-0.2-0.2-0.4-0.4-0.7-0.6c-0.2-0.1-0.4-0.2-0.5-0.3
		C377.8,390.6,377.7,390.5,377.5,390.5z"/>
	<path class="st20" d="M250.1,445.8c1.4,0.6,2.8,1.3,4.3,1.8c2.5,0.9,5.1,1.7,7.7,2.5c1.2,0.4,2.4,0.8,3.6,1.2
		c-1.5-0.3-2.9-0.5-4.4-0.8c-3.7-0.8-7.3-2.1-10.5-4.2C250.5,446.2,250.3,446,250.1,445.8z"/>
	<path class="st21" d="M278.4,455.2c2.2,0,4.4,0,6.6,0c1.2,0,2.3-0.2,3.5-0.2c0.2,0.5,0.1,0.9-0.6,0.9c-2,0.1-4,0.2-5.9,0.2
		c-1.2,0-2.4-0.1-3.5-0.2C278.5,455.6,278.4,455.4,278.4,455.2z"/>
	<path class="st17" d="M374.3,465.3c-1.2-2.5-2.4-4.9-3.6-7.4c-0.1-0.2-0.2-0.3-0.3-0.5c0.2-0.2,0.5-0.3,0.8-0.6
		c1.1,2.1,2.1,4.1,3,6.2C374.5,463.7,374.3,464.6,374.3,465.3z"/>
	<path class="st21" d="M290.2,454.7c3-0.5,6-1,9-1.5c0.3-0.1,0.7-0.1,1-0.1c-0.3,0.4-0.6,0.8-1,1.1c-0.5,0.1-1.1,0.1-1.6,0.2
		c-1.6,0.3-3.2,0.5-4.8,0.8c-0.6,0.1-1.2,0.2-1.8,0.1C290.7,455.4,290.4,455,290.2,454.7z"/>
	<path class="st13" d="M288.6,414.4c-2,0.3-3.7-0.6-5.5-1.2c0-0.3,0-0.6,0-0.9c1.1,0.3,2.2,0.7,3.3,0.9c1.1,0.2,2.3,0,3.4,0.1
		c0.2,0,0.4,0.2,0.6,0.3C289.8,413.8,289.2,414.1,288.6,414.4z"/>
	<path class="st18" d="M384.7,395.5c2.3,0.8,2.9,1.7,2.9,4.1c0,0.8,0,1.5,0,2.3c-0.1,0-0.3,0-0.4,0.1c-0.7-1.8-1.4-3.5-2.1-5.3
		C385,396.3,384.8,395.9,384.7,395.5C384.7,395.5,384.7,395.5,384.7,395.5z"/>
	<path class="st12" d="M329.3,396.4c0.1-0.1,0.3-0.3,0.4-0.3c1.6-0.6,3.1-1.1,4.7-1.7c0.3-0.1,0.6-0.1,0.9-0.1
		c-0.2,0.3-0.5,0.6-0.7,1c-0.1,0.2-0.1,0.4-0.1,0.7c0,0,0,0,0,0c-0.1-0.1-0.2-0.2-0.3-0.4c-0.2,0.2-0.3,0.4-0.5,0.6c0,0,0,0,0,0
		c-0.7,0-1.4,0.1-2.1,0.1C330.9,396.3,330.1,396.4,329.3,396.4z"/>
	<path class="st18" d="M272,447.8c0,0.1,0,0.2,0,0.4c0,0.4,0,0.8,0,1.2c0,0,0,0,0,0c-0.7,0.3-1,1.4-2.1,0.8c0-0.3,0-0.5,0-0.8
		c0.3-0.8,0.6-1.5,0.9-2.3c0.4,0,0.7,0.1,1.1,0.1C271.9,447.4,272,447.6,272,447.8z"/>
	<path class="st2" d="M362.3,370.4c-1.4,0.3-2.9,0.6-4.3,0.9c-0.6,0.1-1.3,0.2-1.9,0.3c0.2-0.2,0.4-0.7,0.6-0.7
		c1.6-0.3,3.1-0.5,4.7-0.7C361.8,370.1,362,370.3,362.3,370.4z"/>
	<path class="st13" d="M379.8,387.9c0.5,0.8,1.1,1.7,1.6,2.5c0.2,0.4,0.2,1,0.3,1.5c-0.9-1.1-1.8-2.2-2.7-3.3
		c0.1-0.2,0.3-0.4,0.4-0.7C379.6,387.9,379.7,387.9,379.8,387.9z"/>
	<path class="st18" d="M366.6,339.7c-1.3-0.9-2.5-1.8-3.7-2.8c-0.3-0.2-0.3-0.7-0.4-1.1c0.1-0.1,0.2-0.1,0.3-0.2
		c1.4,1.3,2.7,2.6,4.1,3.9C366.7,339.5,366.6,339.6,366.6,339.7z"/>
	<path class="st2" d="M368.8,357.9c0,0.1,0,0.2-0.1,0.2c-1.5,0.6-3.1,1-4.8,0.7C365.6,358.6,367.2,358.2,368.8,357.9z"/>
	<path class="st13" d="M381,438.3C381,438.3,381.1,438.3,381,438.3c-0.5,0.1-1.1,0.2-1.7,0.3c0.9-0.8,1.9-1.6,2.8-2.4c0,0,0,0,0,0
		c0.1,0.1,0.3,0.3,0.3,0.3c-0.1,0.3-0.3,0.6-0.5,0.9C381.6,437.7,381.3,438,381,438.3z"/>
	<path class="st19" d="M381.9,437.4c0.2-0.3,0.4-0.6,0.5-0.9c0,0-0.2-0.2-0.3-0.3c0.7-0.4,1.5-0.8,2.2-1.3
		C384.1,436.3,383.1,437,381.9,437.4z"/>
	<path class="st20" d="M269.9,449.4c0,0.3,0,0.5,0,0.8c-0.2,0.1-0.5,0.1-0.7,0.2c-0.1-0.1-0.2-0.1-0.4-0.2c-0.1-0.1-0.1-0.2-0.2-0.3
		c0.2-1.8,0.5-2.4,1.2-2.8c-0.2,0.8-0.5,1.7-0.8,2.6c0.1,0,0.2,0.1,0.3,0.1C269.6,449.6,269.7,449.5,269.9,449.4z"/>
	<path class="st20" d="M244.3,440.7c0.8,0.8,1.6,1.6,2.4,2.5C245.9,442.3,245.1,441.5,244.3,440.7z"/>
	<path class="st20" d="M247.6,443.9c1,0.3,2.1,0.7,2.5,1.9C249.2,445.2,248.4,444.5,247.6,443.9z"/>
	<path class="st8" d="M278.4,455.2c0,0.2,0,0.4,0,0.6c-0.8-0.1-1.8,0.3-1.9-1.1C277.2,454.9,277.8,455,278.4,455.2z"/>
	<path class="st20" d="M267.1,451.4c0.6-0.3,1.2-0.6,1.8-0.9c0,0,0.1,0,0.1,0s0.1,0,0.1,0C268.4,450.8,267.8,451.1,267.1,451.4z"/>
	<path class="st2" d="M297.6,454.5c0.5-0.1,1.1-0.1,1.6-0.2C298.7,455,298.2,454.8,297.6,454.5z"/>
	<path class="st2" d="M301.5,455.4c-0.2,0-0.5,0-0.7,0c0-0.1,0-0.2,0-0.4c0.1,0,0.1-0.1,0.2-0.1c0.3-0.1,0.6-0.1,0.9-0.2
		c0,0.1,0,0.3,0,0.4C301.8,455.2,301.6,455.3,301.5,455.4z"/>
	<path class="st2" d="M328.3,330.5c-0.3,0.2-0.7,0.4-1,0.6C327.6,330.9,328,330.7,328.3,330.5z"/>
	<path class="st2" d="M340.6,327c0-0.1,0-0.3,0-0.4c0.3,0,0.6,0,0.8,0.1c0,0.1,0,0.2,0,0.3C341.2,327,340.9,327,340.6,327z"/>
	<path class="st2" d="M364.4,458.9c0.3-0.2,0.6-0.5,0.9-0.7C365,458.4,364.7,458.6,364.4,458.9z"/>
	<path class="st2" d="M379.4,387.9c-0.1,0.2-0.3,0.4-0.4,0.7c-0.1-0.2-0.2-0.3-0.3-0.5C379,388,379.2,388,379.4,387.9z"/>
	<path class="st2" d="M299.8,335.6c-0.2,0.1-0.4,0.3-0.6,0.4c-0.1-0.1-0.2-0.2-0.3-0.3C299.2,335.7,299.5,335.7,299.8,335.6z"/>
	<path class="st20" d="M246.8,443.2c0.2,0.2,0.5,0.4,0.7,0.6C247.3,443.7,247.1,443.5,246.8,443.2z"/>
	<path class="st13" d="M381.8,391.9c0.7-0.2,0.8,0.1,0.5,0.6C382.2,392.4,382,392.1,381.8,391.9z"/>
	<path class="st2" d="M359.8,388.8c0.2,0.2,0.3,0.4,0.5,0.6c-0.1-0.1-0.3-0.2-0.4-0.3C359.8,389.1,359.8,388.9,359.8,388.8z"/>
	<path class="st2" d="M237.9,378.2c0.1,0.1,0.3,0.2,0.4,0.4c-0.1,0.1-0.2,0.2-0.3,0.3C238,378.6,238,378.4,237.9,378.2z"/>
	<path class="st2" d="M352.9,335.6c0-0.1,0-0.2,0-0.4c0.1-0.1,0.2-0.2,0.3-0.3c0.1,0.2,0.2,0.5,0.2,0.7
		C353.2,335.6,353,335.6,352.9,335.6z"/>
	<path class="st2" d="M268.6,453.1c0.1,0.2,0.1,0.3,0.2,0.5c-0.2-0.1-0.4-0.1-0.6-0.2C268.3,453.3,268.4,453.2,268.6,453.1z"/>
	<path class="st2" d="M339.8,328.9c0,0.1,0,0.3,0,0.4c-0.1-0.1-0.3-0.2-0.4-0.3C339.5,329,339.7,329,339.8,328.9z"/>
	<path class="st2" d="M331.2,328.4c0-0.1-0.1-0.3-0.1-0.4c0.2,0.1,0.3,0.1,0.5,0.2C331.4,328.3,331.3,328.3,331.2,328.4z"/>
	<path class="st2" d="M387.2,401.9c0.1,0,0.3,0,0.4-0.1c-0.1,0.1-0.1,0.3-0.2,0.4C387.4,402.2,387.3,402,387.2,401.9z"/>
	<path class="st11" d="M370,389.8c-0.2,0.1-0.3,0.1-0.5,0.2C369.6,389.9,369.8,389.8,370,389.8z"/>
	<path class="st2" d="M291.7,414.4c0.1,0.1,0.2,0.3,0.3,0.4c-0.2,0-0.3-0.1-0.5-0.1C291.6,414.6,291.6,414.5,291.7,414.4z"/>
	<path class="st2" d="M366,352.9c-0.2,0.2-0.3,0.3-0.5,0.5C365.7,353.2,365.9,353,366,352.9z"/>
	<path class="st2" d="M269.1,450.5L269.1,450.5c-0.1,0-0.1,0-0.1,0c0-0.1,0-0.3-0.1-0.4c0.1,0.1,0.2,0.1,0.4,0.2
		C269.2,450.4,269.1,450.5,269.1,450.5z"/>
	<path class="st2" d="M335.5,394.1c0.1-0.1,0.3-0.3,0.4-0.4C335.7,393.8,335.6,394,335.5,394.1z"/>
	<path class="st2" d="M306.6,479.8c0.2,0,0.3,0,0.5,0C306.9,479.8,306.7,479.8,306.6,479.8z"/>
	<path class="st21" d="M254,344.8c-0.1,0.1-0.3,0.2-0.4,0.3C253.7,345,253.9,344.9,254,344.8z"/>
	<path class="st15" d="M271.3,456.6c-0.1,0-0.2-0.1-0.3-0.1c0.1,0,0.2,0,0.2,0C271.3,456.5,271.3,456.5,271.3,456.6z"/>
	<path class="st20" d="M372.2,387.9c0.1,0,0.3,0,0.4-0.1C372.5,387.9,372.4,387.9,372.2,387.9z"/>
	<path class="st2" d="M357.7,335.7C357.6,335.7,357.5,335.7,357.7,335.7C357.5,335.7,357.6,335.7,357.7,335.7
		C357.7,335.7,357.7,335.7,357.7,335.7z"/>
	<path class="st11" d="M301,455c-0.1,0-0.1,0.1-0.2,0.1c-0.1-0.1-0.1-0.1-0.1-0.2C300.8,454.9,300.9,454.9,301,455z"/>
	<path class="st8" d="M241.5,373.8c0,0.1,0,0.2,0,0.4C241.4,374,241.4,373.9,241.5,373.8z"/>
	<polygon class="st15" points="271.3,456.6 271.4,456.6 271.4,456.7 	"/>
	<path class="st2" d="M337.2,375c-0.1-0.1-0.2-0.2-0.2-0.2C337.1,374.8,337.1,374.9,337.2,375z"/>
	<path class="st18" d="M384.7,395.5C384.7,395.5,384.6,395.5,384.7,395.5C384.6,395.5,384.6,395.5,384.7,395.5
		C384.7,395.5,384.7,395.5,384.7,395.5z"/>
	<path class="st2" d="M368.6,471.1c0.1,0,0.1,0,0.2,0.1c-0.1,0-0.1,0.1-0.2,0.1C368.6,471.2,368.6,471.2,368.6,471.1z"/>
	<path class="st5" d="M265.8,454.7c-0.1,0-0.2,0-0.3,0c0-0.1,0.1-0.1,0.1-0.2C265.7,454.6,265.8,454.7,265.8,454.7z"/>
	<path class="st22" d="M283.1,412.3c0,0.3,0,0.6,0,0.9c-1.1,0.2-1.7-0.4-2.2-1.3c-0.4-0.8-1-1.5-1.4-2.2c-0.2-0.5-0.4-1.1-0.6-1.6
		c-0.6-2.8-0.5-5.6,0.5-8.3c0.4-0.7,0.8-1.3,1.3-2.1c-3.1-2.6-5.3-5.7-5.5-10.2c-1.2,0.9-2.4,1.5-3.1,2.5c-0.9,1.2-1.6,2.6-1.9,4
		c-0.3,1.5-0.2,3.1-0.1,4.6c0,0.3,0.4,0.7,0.6,0.8c1.1,0.4,0.7,0.9,0.2,1.5c-1.6,1.8-2,5.5-0.9,7.5c2,3.4,4.9,5.2,8.9,5.2
		c0.7-0.1,1.3-0.2,2-0.2c0.7-0.1,1.1,0.2,1.1,0.9c-1.4,1.2-3,1-4.6,0.8c-2.2-0.3-4.3-0.9-6.5-1.3c-1.2-0.2-2.5-0.4-3.6-0.5
		c0.4,0.5,0.9,1.1,1.3,1.8c0.4,0.8,1.4,1.2,1.4,2.3c0,1.4,0.3,2.9,0.6,4.3c1,6,2,11.9,3.1,17.9c0.2,0.9,0,1.4-1,1.5
		c-0.4-1.5-0.9-2.9-1.2-4.4c-0.9-4.9-1.7-9.8-2.5-14.8c-0.3-1.8-0.4-3.6-0.5-5.4c-0.1-1.1-1.2-2.6-2.3-2.9c-2.9-0.8-5.8-1.6-8.7-2.4
		c-0.2-0.1-0.5-0.2-0.7-0.5c1.1,0.2,2.2,0.5,3.5,0.8c0-1.5,0.2-3,0-4.5c-0.7-5.1-1.7-10.1-2.1-15.2c-0.4-4.8-1.2-9.6,0.1-14.4
		c0.2-0.9,0.3-1.9,0.5-2.8c0.8,0.1,1.1,0.3,1,1.2c-0.4,3.4-0.9,6.8-1,10.2c-0.1,1.9,0.5,3.8,0.8,5.6c0.8,5.3,1.7,10.7,2.4,16
		c0.2,1.1,0,2.3,0,3.6c1.7-0.6,3.3-1.2,4.8-1.8c0.2-0.1,0.2-0.8,0.2-1.2c-0.3-2.1-0.2-4.1,0.6-6.1c0.1-0.2,0.1-0.5,0.3-0.6
		c1.2-0.8,0.8-1.8,0.6-3c-0.2-1.3-0.3-2.6,0-3.9c0.8-3.4,2.2-6.6,5.3-8.6c0.1-0.1,0.3-0.2,0.4-0.2c-0.8-1.4-1.5-2.6-2.2-3.9
		c-1.9-3.7-0.6-7,1.4-10.1c0.8-1.3,2.1-2.2,3.1-3.4c0.2-0.3,0.4-0.7,0.4-1.1c-0.4-2.7-0.5-5.3,0.6-7.9c1.3-3.1,3.3-5.5,6.4-7.1
		c0.4,0,0.8,0,1.2,0c0.3,0.4,0.6,0.8,0.9,1.2c-0.4,0.2-0.8,0.4-1.3,0.6c-0.5,0.1-1,0.1-1.4,0.3c-3.5,2.4-5.2,5.8-5.1,10
		c0,1.3,0.2,2.6,0.3,3.8c-0.2,0.3-0.4,0.8-0.7,1c-2.8,2-4.3,4.8-5,8.1c-0.3,1.7,0.4,3.3,1.3,4.8c0.4,0.8,1,1.5,1.6,2.3
		c0.3-0.1,0.6-0.3,0.9-0.3c0.7,0,1.1,0.4,0.7,1c-1,1.4-0.6,2.8-0.3,4.2c0.7,3.6,3.1,6,5.9,8.1c0.3,0.2,0.5,0.6,0.8,0.9
		c-0.3,0.2-0.8,0.7-1,0.6c-0.8-0.5-1.1,0.1-1.4,0.6c-1.4,2.8-1.7,5.7-0.5,8.5C281.2,409.7,282.3,410.9,283.1,412.3z M268.2,408.7
		c0.1,0.1,0.1,0.2,0.2,0.3c0-0.1,0-0.2-0.1-0.4c-0.1-2-0.2-4-0.4-5.8C267.5,404.7,266.9,406.7,268.2,408.7z M272.5,413.5
		C272.5,413.5,272.5,413.5,272.5,413.5C272.5,413.5,272.5,413.5,272.5,413.5c-0.5-0.3-1-0.6-1.4-1c-0.6-0.7-1.2-1.1-2-0.3
		c-1.5-1.5-2.7-1.5-5.1,0.1C267,412.7,269.7,413.1,272.5,413.5z"/>
	<path class="st2" d="M292.1,369.2c1.2,1.3,2.8,0.9,4.3,0.9c1.9,0.1,3.7,0.2,5.6,0.2c0.1,1.2,0.2,2.3,0.3,3.5c0,0.1,0.1,0.3,0.2,0.4
		c0.2,1.2,0.4,2.3,0.5,3.5c0.1,1.2,0.1,2.4,0.2,3.6c0.1,1.4,0.4,2.7,0.5,4.1c0.2,2.3,0.4,4.6,0.7,6.9c0.1,1.1-0.2,1.6-1.4,1.5
		c-2.1,0-4.3-0.2-6.4-0.2c-1.2,0-2.4,0.1-2.5-1.6c0-0.1-0.2-0.2-0.3-0.3c0.1-0.3,0.2-0.6,0.2-0.8c0.1-0.4,0.1-0.8,0.2-1.1
		c0.7-0.4,1.2-0.9,0.7-1.8c1-4.7,0.8-9.3-1.5-13.7c-0.6-1.2-1.3-2.3-1.3-3.6C292,370.2,292.1,369.7,292.1,369.2z"/>
	<path class="st23" d="M362.1,432.8c-0.4-0.4-1.1-0.8-1.1-1.2c-0.1-1.8-0.1-3.6,0.1-5.4c0.1-1.8,1-3.3,2.4-4.5c1.5-1.4,3-2.6,5-3.2
		c0.6,0.1,1.2,0.2,1.8,0.1c1.9-0.2,3.7,0,5.2,1.3c1.2,1,2.4,2.2,3.4,3.5c1,1.2,1.2,2.6,0.9,4.1c-1.9,0.3-3.1,1.8-4.6,2.7
		c-1.3,0.9-2.7,1.3-4.4,1c-0.8-0.2-2.1-0.6-2.9,0.4c-0.4,0-0.8,0-1.1,0.1c-0.9,0.2-1.9,0.4-2.8,0.6
		C363.3,432.4,362.5,431.8,362.1,432.8z"/>
	<path class="st1" d="M293.7,391.7c0.1,0.1,0.3,0.2,0.3,0.3c0.1,1.7,1.3,1.6,2.5,1.6c2.1,0,4.3,0.2,6.4,0.2c1.2,0,1.5-0.4,1.4-1.5
		c-0.3-2.3-0.4-4.6-0.7-6.9c-0.1-1.4-0.4-2.7-0.5-4.1c-0.1-1.2-0.1-2.4-0.2-3.6c-0.1-1.2-0.3-2.3-0.5-3.5c0-0.1-0.2-0.3-0.2-0.4
		c-0.1-1.2-0.2-2.3-0.3-3.5c0.2-0.6,0.3-1.3,0.5-1.9c0.1-0.2,0.3-0.4,0.5-0.6c0,1.9,0,3.9,0.1,5.8c0.1,1.5,0.2,3,0.3,4.6
		c0.1,0.9,0.1,1.7,0.2,2.6c0.2,1.3,0.4,2.6,0.5,3.9c0.1,1.3,0.1,2.5,0.2,3.8c0,0.7,0.1,1.5,0.2,2.2c0.3,2.1,0.1,4.4,1.6,6.2
		c0.6,0.8,1.5,1.4,2.2,2.1c0,0-0.2,0.1-0.4,0.2c0,0.1,0,0.1,0,0.2c0.4,0,0.8,0.2,1.1,0.1c5.3-0.7,10.6-1.4,15.9-2.1
		c0.9-0.1,1.8-0.9,2.8-0.3c0.1,0.1,0.3-0.2,0.6-0.3c0.4-0.1,0.7-0.2,1.1-0.3c0.8,0,1.6-0.1,2.4-0.1c0.7,0,1.4-0.1,2.1-0.1
		c-0.9,0.3-1.8,0.5-2.6,0.8c-0.2,0.1-0.4,0.1-0.6,0.2c-0.1,0-0.2,0-0.3,0.1c-0.2,0-0.5-0.1-0.7,0c-4.1,0.8-8.2,1.4-12.3,2.4
		c-4.1,1-8.3,1.2-12.5,0.8c-0.3,0-0.5-0.1-0.8-0.2c0-0.1,0-0.3,0-0.4c1-0.1,2.1-0.1,3.1-0.2c0-0.1,0-0.3,0-0.4
		c-0.6-0.1-1.2-0.3-1.8-0.4c-1.5-0.1-3-0.2-4.5-0.2c-1,0-1.9,0-2.9,0c-0.5-0.2-0.9-0.3-1.5-0.5c-0.1,0.3-0.2,0.7-0.3,1
		c-2.1-0.7-3.4-1.9-3.8-4.1c-0.1-0.4-0.3-0.7-0.4-1c0.1-0.7,0.2-1.4,0.3-2.1c0-0.4,0-0.8,0-1.4C292.9,390.9,293.3,391.3,293.7,391.7
		z"/>
	<path class="st24" d="M366.2,442.1c-1.3,0.3-2.6,0.6-4,0.8c-0.9,0.1-1.8,0.1-2.7,0.1c-1.5,0-3,0.1-4.4,0c-1.2-0.1-2.4-0.3-3.5-0.5
		c-1.2-0.2-2.4-0.5-3.5-0.8c-3.9-1-7.8-1.9-11.6-3.1c-1.3-0.4-2.6-1.2-3.7-2.1c-1.1-0.9-2.4-1.1-3.7-1.1c-0.3,0-0.7,0.1-1,0
		c-0.3-0.1-0.6-0.4-0.9-0.6c0.2-0.3,0.4-0.7,0.7-0.8c0.7-0.2,1.4-0.3,2.2-0.5c-0.2-0.5-0.4-1-0.5-1.5c0-0.4,0.2-0.8,0.4-1.2
		c0.3,0.2,0.9,0.4,1,0.7c0.4,2.4,2.2,3.2,4,4.3c4.9,3,10.3,3.8,15.8,4.7c4.2,0.7,8.3,0.9,12.5-0.1c1.9-0.5,3.6-1.5,5.5-2.2
		c0.4,0,0.9-0.1,1.3-0.1c0.1,0,0.2,0,0.3,0c0.1,0,0.3-0.1,0.4-0.1c-0.2,0.6-0.3,1.2-0.5,1.8c-0.7,0.4-1.4,0.9-2.1,1.3
		c-0.5,0.3-1,0.6-1.5,0.8c0,0,0,0,0,0C366.5,442,366.3,442,366.2,442.1z"/>
	<path class="st1" d="M292.1,369.2c0,0.5,0,0.9,0,1.4c-0.4,0.4-0.8,0.9-1.2,1.3c-1.8-4.3,0.5-11.1,6.9-11.3c0.4,0,1,0.2,1.2,0.5
		c0.4,1,1.1,0.8,1.9,0.7c2.8-0.4,5.6-0.7,8.4-1c0.6-0.1,1.2-0.3,1.8-0.5c0.8,0,1.3-0.3,1.5-1.1c0.2-1.1,0.4-2.3,0.6-3.4
		c0.5,0.7,1,1.3,1.3,2c0.5,0.9,1.7,1.9,2.7,1.8c0.5,0,1,0,1.5-0.1c3.2-0.3,6.4-0.7,9.7-1c0.6,0.4,0.7,0,0.7-0.5c1-0.1,2-0.2,3-0.3
		c0.3,0,0.5,0.1,0.8,0.1c0.6-0.8,1.2-1.5,1.7-2.3c0.1,0,0.3,0,0.4,0c-0.2,0.6-0.4,1.3-0.6,1.9c-0.1,0.2,0.1,0.5,0.2,0.8
		c-0.2,0.2-0.3,0.4-0.5,0.6c-0.8,0-1.6-0.3-2.4-0.1c-5.6,1.1-11.3,2.2-16.9,3.4c-1.5,0.3-3,0.5-4.5,0.8c-0.7,0.2-1.3,0.6-2.1,0.9
		c0-0.9-0.6-1-1.5-1c-2.9,0-5.8-0.2-8.7-0.2c-2.8,0-4.9,1.5-5.6,4.3C292.1,367.6,292.1,368.4,292.1,369.2z"/>
	<path class="st24" d="M315.1,343c1.1-0.7,2.2-1.4,3.3-2c4.3-2.1,9.7-1,13.1,2.4c1.9,1.9,3.2,4.1,3.5,6.7c-0.1,0-0.2,0-0.4,0
		c0-0.1-0.1-0.2-0.1-0.3c-0.7-2.7-1.7-5-4.8-5.6c-0.3-0.1-0.6-0.4-0.9-0.5c-2.7-1.7-5.4-2.7-8.6-1.4c-2.6,1.1-4.9,2.4-6.2,5.1
		c-0.4,0.6-1.2,1.3-1.2,1.9c-0.1,1.7,0.2,3.4,0.3,5.1c-0.1,0-0.3,0-0.4,0c-0.1-0.2-0.2-0.5-0.3-0.7c-0.7-1.8-1.1-3.8-2.1-5.4
		c-1.7-2.6-4.4-3.7-7.5-3.7c-0.4,0-0.9-0.1-1.3-0.3c4.1-0.9,7.1,1.1,9.8,3.5C312.7,346.1,313.9,344.5,315.1,343z"/>
	<path class="st25" d="M379.8,427.5c0.3-1.5,0.1-2.9-0.9-4.1c-1.1-1.2-2.2-2.4-3.4-3.5c-1.5-1.2-3.3-1.5-5.2-1.3
		c-0.6,0.1-1.2-0.1-1.8-0.1c-0.2-0.9,0.3-1.2,1-1.3c2.7-0.3,5.3-0.1,7.4,1.8c2.4,2.2,4.4,4.5,4.4,8c0,2.2-0.7,4.2-3.1,5.2
		c-0.8,0.3-1.5,1.1-2,1.8c-0.7,1.1-1.2,2.3-1.7,3.5c-0.3,0.8-0.6,1.5-0.8,2.3c0,0.1-0.1,0.1-0.1,0.2c-0.9-0.1-1.7-0.2-2.9-0.3
		c1.7-1.1,2-2.5,2-4c0.2-0.4,0.4-0.8,0.6-1.3c0.2-0.3,0.4-0.5,0.6-0.8c1.8-2,3.1-4.5,5.8-5.6C379.7,428,379.7,427.7,379.8,427.5z"/>
	<path class="st19" d="M298,398.5c1,0,1.9,0,2.9,0c1.5,0.1,3,0.1,4.5,0.2c0.6,0,1.2,0.2,1.8,0.4c0,0.1,0,0.3,0,0.4
		c-1,0.1-2.1,0.1-3.1,0.2c0,0.1,0,0.3,0,0.4c0.3,0.1,0.5,0.2,0.8,0.2c4.2,0.4,8.4,0.2,12.5-0.8c4-0.9,8.2-1.6,12.3-2.4
		c0.2,0,0.4,0,0.7,0c-1.8,0.5-3.6,1-5.4,1.5c-4.3,1.2-8.6,2.6-12.9,3.7c-1.1,0.3-2.4,0.2-3.5-0.2C304.9,401.1,301.5,399.7,298,398.5
		z"/>
	<path class="st2" d="M342,451c1.7,0.6,3.4,1.1,5.1,1.7c1,0.3,2.1,0.5,3.1,0.8c1.2,0.3,2.5,0.6,3.7,1.1c0.4,0.2,0.7,0.8,1,1.2
		c-0.4,0.2-0.9,0.3-1.3,0.5c-1.3-0.5-2.5-1.2-3.8-1.3c-3.3-0.3-6.2-2-9.3-2.9c-0.4-0.1-0.5-0.9-0.8-1.3
		C340.6,450.1,341.3,451,342,451z"/>
	<path class="st24" d="M356.4,397.7c-0.4,0.2-0.7,0.5-1.2,0.6c-2.4,0.6-4.9,1-7.3,1.7c-1.4,0.4-2.6,1-4,1.5c-0.4,0.1-0.8,0-1.2,0
		c0.2-0.4,0.3-0.9,0.6-1.2c0.5-0.4,1-0.7,1.6-0.8c3.2-0.9,6.5-1.7,9.8-2.5C355.3,396.7,356.1,396.5,356.4,397.7z"/>
	<path class="st25" d="M279.2,380.8c0.2-1.3,0.4-2.6,0.8-3.8c0.1-0.3,0.7-0.4,1-0.6c0.1,0.4,0.5,0.8,0.4,1c-1.3,3.4,0.4,5.6,2.9,7.4
		c0.4,0.3,0.9,0.5,1.2,0.9c0.2,0.3,0.2,0.7,0.3,1.1c-0.4,0-0.9,0.2-1.1,0.1c-1.3-1-2.5-2-3.7-3.1C280.1,383,278.8,382.4,279.2,380.8
		z"/>
	<path class="st25" d="M280.5,365.5c0.1-0.6,0.1-1.3,0.3-1.9c0.1-0.2,0.5-0.4,0.8-0.5c0.2,0.3,0.5,0.6,0.5,0.9
		c-0.4,1.9,0.3,3.6,1.3,5.2c0.2,0.4,0.1,1.1-0.1,1.6c-0.3,0.8-0.8,1.4-1.4,2.1c-0.2,0.2-0.6,0.3-0.9,0.5c-0.1-0.3-0.4-0.7-0.3-1
		c0.3-0.8,0.8-1.6,1.3-2.6c-0.3-0.4-0.7-1-1.1-1.6C280.8,367.3,280.6,366.4,280.5,365.5z"/>
	<path class="st13" d="M313.3,354.2c-0.1-1.7-0.4-3.4-0.3-5.1c0-0.7,0.8-1.3,1.2-1.9c-0.1,0.4-0.1,0.9-0.2,1.3
		c-1,2.8-0.2,5.3,1.3,7.6c0.8,1.3,2.3,2.2,3.4,3.2c-0.5,0-1,0-1.5,0.1c-0.4-0.4-0.9-0.7-1.3-1.2c-0.7-0.9-1.2-1.8-1.8-2.7
		c-0.3-0.5-0.6-0.8-0.9,0c-0.2,1.1-0.4,2.3-0.6,3.4c-0.2,0.8-0.7,1.1-1.5,1.1c0.5-1.6,0.9-3.2,1.4-4.7c0-0.1,0.3-0.2,0.4-0.3
		c0.2,0,0.4,0,0.6,0.1C313.3,354.9,313.3,354.6,313.3,354.2z"/>
	<path class="st25" d="M366.7,431.7c0.4,0,0.8,0,1.1-0.1c1.7,0.5,1.7,0.6,1,2.2c0,0.1-0.1,0.2-0.1,0.3c-0.1,0.1-0.1,0.2-0.2,0.3
		c-0.2,0.1-0.4,0.2-0.5,0.2c-1.5-0.3-3.1-0.5-4.6-0.8c-0.5-0.1-0.9-0.6-1.3-0.9c0.4-1,1.2-0.4,1.8-0.5
		C364.9,432.1,365.8,431.9,366.7,431.7z"/>
	<path class="st4" d="M278.3,368.3c-0.1-1.3-0.2-2.6-0.3-3.8c-0.1-4.2,1.7-7.6,5.1-10c0.4-0.3,0.9-0.2,1.4-0.3
		c-2.2,1.4-3.9,3.2-4.8,5.7c-0.1,1.5-0.3,3-0.4,4.5c0,0.3-0.1,0.6-0.2,0.9C278.9,366.2,278.6,367.3,278.3,368.3z"/>
	<path class="st24" d="M294.1,350.3c0.1,0.7,0.4,1.2,0.3,1.5c-0.9,1.8-0.4,3.4,0.3,5.1c0.1,0.3,0.1,0.7,0.1,1.1
		c-0.4-0.1-1,0-1.3-0.3c-1.1-1-1.3-5.4-0.4-6.6C293.2,350.9,293.5,350.8,294.1,350.3z"/>
	<path class="st24" d="M313.2,404.9c-0.3,0.2-0.5,0.6-0.9,0.7c-1.9,0.7-3.8,1.4-5.7,2c-0.3,0.1-0.7-0.2-1-0.4
		c0.2-0.3,0.3-0.8,0.6-0.9c1.9-0.8,3.9-1.5,5.9-2.2c0.3-0.1,0.8,0.2,1.2,0.4C313.2,404.7,313.2,404.8,313.2,404.9z"/>
	<path class="st23" d="M368.6,434.4c0.1-0.1,0.1-0.2,0.2-0.3c0.3,0.1,0.6,0.2,0.9,0.4c0.6,0.4,1.1,0.9,1.8,1.4
		c0.2-1.5,0.3-2.9,1.8-3.3c0,0.6-0.1,1.2-0.1,1.7c-0.2,0.4-0.4,0.8-0.5,1.3c-0.6,0.7-1.3,1.5-1.9,2.2c-0.1,0-0.3,0.1-0.4,0.1
		c-0.1,0-0.2,0-0.3,0c-0.4,0-0.9,0.1-1.3,0.1c0.1-0.8,0.4-1.6,0.4-2.4C369,435.3,368.7,434.8,368.6,434.4z"/>
	<path class="st13" d="M285.8,353.5c-0.3-0.4-0.6-0.8-0.9-1.2c-0.7-1.2-1.4-2.3-2.1-3.5c0,0,0,0,0,0c-0.1-0.3-0.2-0.7-0.2-1
		c0-1.4-0.1-2.9,0.1-4.3c0.1-0.7,0.5-1.3,0.8-2c-0.1,1-0.5,2.1-0.4,3.1c0.1,1.5,0.2,3.2,0.9,4.6c0.7,1.4,2.1,2.5,3.2,3.8
		C286.8,353.3,286.3,353.4,285.8,353.5z"/>
	<path class="st24" d="M314,407.3c-0.6,0.5-0.9,0.9-1.2,1.1c-1,0.4-2.1,0.8-3.1,1.1c-0.3,0.1-0.7-0.2-1-0.3c0.2-0.3,0.3-0.8,0.6-0.9
		c1.1-0.5,2.3-0.9,3.4-1.3C313,406.8,313.4,407.1,314,407.3z"/>
	<path class="st19" d="M370.6,437.9c0.6-0.7,1.3-1.5,1.9-2.2c0,1.5-0.3,2.9-2,4c1.2,0.1,2.1,0.2,2.9,0.3c-0.3,0.5-0.7,1-1,1.5
		c-0.9,0.2-1-0.6-1.4-1c0,0,0,0,0,0c-0.1-0.1-0.3-0.1-0.4-0.2c-0.2-0.1-0.3-0.1-0.5-0.2c0-0.1,0-0.2,0-0.2
		C370.3,439.1,370.5,438.5,370.6,437.9z"/>
	<path class="st13" d="M292.3,391.8c-0.1,0.7-0.2,1.4-0.3,2.1c-1.2-0.7-2.4-1.5-3.6-2.2c0-0.1,0.1-0.2,0.1-0.2
		C289.8,391.5,291.1,391.7,292.3,391.8z"/>
	<path class="st24" d="M340.9,401.8c0.2,0.2,0.7,0.5,0.7,0.8c0,0.2-0.4,0.6-0.7,0.7c-0.6,0.2-1.2,0.4-1.8,0.5c-0.3,0-0.7-0.2-1-0.3
		c0.1-0.3,0.2-0.8,0.5-0.9C339.4,402.3,340.1,402.1,340.9,401.8z"/>
	<path class="st20" d="M279.2,365.2c0.1-0.3,0.2-0.6,0.2-0.9c0.1-1.5,0.3-3,0.4-4.5c-0.3,1.7-0.4,3.3,0.1,5c0.1,0.3,0.4,0.5,0.6,0.7
		c0.1,0.9,0.3,1.8,0.4,2.6c-0.4-0.7-0.9-1.3-1.3-2C279.4,365.9,279.3,365.5,279.2,365.2z"/>
	<path class="st13" d="M366.6,441.9c0.5-0.3,1-0.6,1.5-0.8c0.1,1.2,0.2,1.2,1.4,0.5c-0.5,0.5-1,1-1.6,1.5c-0.1,0.1-0.5-0.2-0.7-0.4
		C367,442.4,366.8,442.2,366.6,441.9z"/>
	<path class="st11" d="M302,455.2c0-0.1,0-0.3,0-0.4c1.3-0.3,2.6-0.6,3.8-0.9c0,0.2,0.1,0.3,0.1,0.5
		C304.6,454.6,303.3,454.9,302,455.2z"/>
	<path class="st5" d="M369.5,441.6c-1.2,0.7-1.3,0.7-1.4-0.5c0.7-0.4,1.4-0.9,2.1-1.3c0,0.1,0,0.2,0,0.2c0,0,0.1,0,0.1,0
		s0,0.1,0,0.1c-0.1,0.1-0.3,0.3-0.4,0.4C369.7,440.9,369.6,441.2,369.5,441.6z"/>
	<path class="st12" d="M314.2,337.2c1.1,0.5,1.1,1.3,0.5,2.3c-0.3,0.5-0.2,1.1-0.3,1.6c0-0.5-0.1-1,0-1.4c0.2-1-0.2-1.7-0.7-2.5
		C313.9,337.2,314,337.2,314.2,337.2z"/>
	<path class="st2" d="M314.2,337.2c-0.1,0-0.3,0-0.4,0c-0.4-0.4-0.9-0.8-1.3-1.3c-0.1-0.1,0-0.3-0.1-0.5
		C312.9,336,313.5,336.6,314.2,337.2z"/>
	<path class="st5" d="M371.1,440.4c0.4,0.4,0.5,1.2,1.4,1c-0.4,0.1-0.7,0.2-1.1,0.3C371.4,441.3,371.2,440.8,371.1,440.4z"/>
	<path class="st1" d="M294.8,387.9c0.5,0.9,0.1,1.4-0.7,1.8C294.4,389.1,294.6,388.5,294.8,387.9z"/>
	<path class="st20" d="M361,389.7c0.4,0.1,0.8,0.1,1.2,0.2C361.7,389.8,361.3,389.7,361,389.7z"/>
	<path class="st1" d="M313.3,354.2c0,0.3,0.1,0.7,0.1,1c-0.2,0-0.4,0-0.6-0.1c0-0.2,0-0.4-0.1-0.7c0-0.1,0.1-0.2,0.1-0.2
		C313,354.2,313.1,354.2,313.3,354.2z"/>
	<path class="st13" d="M312.8,354.2c0,0.1-0.1,0.2-0.1,0.2c-0.1-0.3-0.1-0.6-0.2-0.9C312.7,353.8,312.8,354,312.8,354.2z"/>
	<path class="st2" d="M333.8,396.2c0.2-0.2,0.3-0.4,0.5-0.6c0.1,0.1,0.2,0.2,0.3,0.4C334.3,396,334,396.1,333.8,396.2z"/>
	<path class="st20" d="M377.9,390.7c0.2,0.1,0.4,0.2,0.5,0.3C378.3,390.9,378.1,390.8,377.9,390.7z"/>
	<path class="st19" d="M330.5,397.1c0.2-0.1,0.4-0.1,0.6-0.2C330.9,397,330.7,397.1,330.5,397.1z"/>
	<path class="st13" d="M369.8,440.5c0.1-0.1,0.3-0.3,0.4-0.4C370.1,440.2,369.9,440.3,369.8,440.5z"/>
	<path class="st13" d="M366.2,442.1c0.1,0,0.2-0.1,0.3-0.1c0,0.1-0.1,0.3-0.1,0.4C366.4,442.3,366.3,442.2,366.2,442.1z"/>
	<path class="st5" d="M370.7,440.2c0.1,0.1,0.3,0.1,0.4,0.2C371,440.3,370.8,440.2,370.7,440.2z"/>
	<path class="st12" d="M314.6,341.6c0.1,0.2,0.2,0.3,0.2,0.5C314.8,341.9,314.7,341.7,314.6,341.6z"/>
	<path class="st13" d="M283.5,341.6c0.1-0.1,0.1-0.2,0.2-0.3C283.7,341.4,283.6,341.5,283.5,341.6z"/>
	<path class="st13" d="M283.8,341.1c0.1-0.1,0.1-0.2,0.2-0.3C283.9,341,283.9,341,283.8,341.1z"/>
	<path class="st13" d="M284,340.9c0.1-0.1,0.1-0.2,0.2-0.3C284.1,340.7,284,340.8,284,340.9z"/>
	<path class="st13" d="M284.2,340.4c0.1-0.1,0.1-0.2,0.2-0.3C284.4,340.3,284.3,340.3,284.2,340.4z"/>
	<path class="st12" d="M314.9,342.2c0.1,0.1,0.2,0.2,0.2,0.3C315,342.4,314.9,342.3,314.9,342.2z"/>
	<path class="st1" d="M260.1,368.7c0.9-1.7,1.9-3.5,2.9-5.2c1.7-2.9,3.5-5.8,5.2-8.8c0.3-0.6,0.3-1.4,0.4-2.1
		c0.4-1.6,0.4-3.4,1.6-5.1c1.5,1.6-0.3,3.1,0.2,4.6c1.8-2.4,3.6-4.7,5.4-7.1c0.2-0.3,0.3-0.6,0.6-0.8c0.2-0.2,0.7-0.3,0.9-0.2
		c0.2,0.1,0.4,0.6,0.3,0.8c-0.3,0.7-0.7,1.3-1.1,1.9c-1.4,1.8-2.8,3.5-4.2,5.4c-0.6,0.8-1.1,1.7-1.7,2.6c-0.1,0.2-0.3,0.6-0.5,0.6
		c-1.1,0-1.3,0.8-1.7,1.5c-2.1,3.8-4.2,7.6-6.3,11.4C261.3,369.4,261.1,369.4,260.1,368.7z"/>
	<path class="st22" d="M271.9,335.6c0.4,0.2,0.7,0.3,0.9,0.4c1.1,0.8,2.3,1.6,3.3,2.5c0.2,0.2,0.2,0.7,0.3,1.1c-0.4,0-0.9,0.2-1.2,0
		c-1.3-0.8-2.6-1.7-3.9-2.7c-0.2-0.1-0.3-0.6-0.2-0.8C271.3,335.9,271.7,335.7,271.9,335.6z"/>
	<path class="st19" d="M282.8,348.9c0.7,1.2,1.4,2.3,2.1,3.5c-0.4,0-0.8,0-1.2,0C283.5,351.3,283.2,350.1,282.8,348.9z"/>
	<path class="st1" d="M282.9,339.5c0.1-0.2,0.1-0.4,0.2-0.6c0.1,0.1,0.2,0.1,0.2,0.2C283.3,339.3,283.1,339.4,282.9,339.5
		C283,339.5,282.9,339.5,282.9,339.5z"/>
	<path class="st19" d="M282.6,347.9c0.1,0.3,0.2,0.7,0.2,1C282.8,348.6,282.7,348.3,282.6,347.9z"/>
	<path class="st2" d="M282.9,339.5C282.9,339.5,283,339.5,282.9,339.5C283,339.5,283,339.5,282.9,339.5z"/>
	<path class="st24" d="M306.6,464.4c0.2-0.2,0.4-0.5,0.7-0.5c1.1,0,2.2,0,3.2,0.1c0.5,0,0.9,0.3,1.4,0.5
		C310.1,464.4,308.3,464.4,306.6,464.4z"/>
	<path class="st1" d="M287.6,462.1c1.3-0.4,3.1,0,3.5,0.8c-0.1,0-0.2,0-0.3,0C289.8,462.7,288.7,462.4,287.6,462.1z"/>
	<path class="st2" d="M293.4,462.8c0.2,0,0.5,0,0.7,0c0.5,0.1,1.1,0.2,1.6,0.3c0,0.1,0,0.3,0,0.4c-0.8-0.1-1.5-0.2-2.3-0.3
		C293.4,463,293.4,462.9,293.4,462.8z"/>
	<path class="st1" d="M291.5,463c0.5-0.1,0.9-0.2,1.4-0.4C292.6,463.4,292,463,291.5,463z"/>
	<path class="st1" d="M293.4,462.8c0,0.1,0,0.2,0,0.3c-0.1-0.1-0.2-0.3-0.3-0.4C293.2,462.7,293.3,462.8,293.4,462.8z"/>
	<path class="st1" d="M285.4,431.8c-0.1,0.2-0.3,0.5-0.5,0.6c-0.2,0.1-0.6-0.1-0.8-0.3c-0.2-0.3-0.4-0.7-0.5-1.1
		c-0.7-3.9-1.4-7.8-2-11.6c-0.1-0.4,0.3-0.8,0.5-1.2c0.3,0.3,0.8,0.6,0.9,1c0.8,4.1,1.6,8.2,2.3,12.3
		C285.3,431.5,285.3,431.5,285.4,431.8z"/>
	<path class="st22" d="M284.6,435.8c0.2-0.3,0.5-0.6,0.7-0.9c0.3,0.3,0.5,0.7,0.8,1c0,0,0,0.1,0,0.1c0.1,0.6,0.5,1.5-0.4,1.6
		C284.7,437.8,284.8,436.7,284.6,435.8z"/>
	<path class="st1" d="M336.1,362.1c-0.7,0.6-1.3,1.3-2.1,1.7c-1.7,1-1.6,2.4-1.2,4c0.1,0.4,0,0.8,0.1,1.2c-0.1,0-0.2,0-0.4,0
		c0-0.2-0.1-0.4-0.1-0.7c-0.1-1.2-0.2-2.5-0.2-3.7c-0.3-0.2-0.6-0.7-0.9-0.6c-3.2,0.5-6.4,1.1-9.7,1.6c-3,0.5-6,1-9,1.6
		c-0.3,0.1-0.5,0.4-0.8,0.7c-0.8,0.8-1.7,1.6-2.7,2.5c-0.8-0.6-1.9-1.2-2.8-2c-0.9-0.8-1.9-1.3-3.1-1.2c0-0.2,0.1-0.4,0.1-0.6
		c-0.1,0-0.1,0-0.2-0.1c-0.1,0.2-0.1,0.4-0.2,0.6c-0.1,0.1-0.2,0.2-0.2,0.3c-0.3-1.2-0.1-1.6,1.1-1.7c0.3,0,0.6,0,0.9,0
		c1,0.1,2,0.1,2.6-1c0,0.2,0,0.4,0,0.5c-0.1,0.1-0.1,0.2-0.2,0.2c0.5,0.3,0.9,0.6,1.5,1c1.1-2.3,3.3-2.1,5.2-2.4
		c5.5-0.8,11-1.5,16.5-2.3c1.1-0.2,2.3-0.4,3.4-0.4C334.6,361.5,335.3,361.9,336.1,362.1z"/>
	<path class="st20" d="M332.4,368.3c0,0.2,0.1,0.4,0.1,0.7c-2.3,3.7-4.6,7.4-6.9,11.1c-0.7,1.1-1.4,1.3-2.6,0.8
		c-0.3-0.1-0.6-0.2-0.9-0.3c-1.9-0.5-2.3-0.4-3.3,1.3c-1.7,3-3.3,5.9-5,8.9c-0.3,0.6-0.7,1.1-1.2,1.6c-0.2,0.2-0.5,0.2-0.8,0.2
		c0-0.3-0.2-0.7-0.1-0.9c2.1-3.6,4.2-7.2,6.2-10.8c1.1-1.9,2.4-2.1,4.4-1.4c1.9,0.6,1.9,0.7,2.9-1c1.9-3.2,3.9-6.3,5.9-9.4
		C331.4,368.6,332,368.5,332.4,368.3z"/>
	<path class="st2" d="M311.9,367.8c0.3-0.2,0.5-0.6,0.8-0.7c3-0.5,6-1,9-1.6c3.2-0.6,6.4-1.1,9.7-1.6c0.2,0,0.6,0.4,0.9,0.6
		c-2.9,0.5-5.8,1-8.8,1.5C319.5,366.7,315.7,367.3,311.9,367.8z"/>
	<path class="st2" d="M303.1,367.2c0.1-0.2,0.1-0.4,0.2-0.6c0.1,0,0.1,0,0.2,0.1c0,0.2-0.1,0.4-0.1,0.6c0,0-0.1,0-0.1,0L303.1,367.2
		z"/>
	<path class="st26" d="M269.9,449.4c-0.2,0.1-0.3,0.2-0.5,0.3c-0.1,0-0.2-0.1-0.3-0.1c0.3-0.9,0.5-1.8,0.8-2.6
		c-0.8,0.3-1,0.9-1.2,2.8c-0.5,0.1-1,0.2-1.5,0.2c-0.8-0.1-1.6-0.2-2.4-0.4c-1.7-0.5-3.5-1.1-5.2-1.8c-2.1-0.8-4.3-1.4-6.3-2.4
		c-1.8-0.9-3.6-2.1-4.9-3.5c-0.9-1-2-1.7-2.7-2.8c-2.5-3.9-5.8-7.5-5.5-12.7c0.1-1.3,0.2-2.7-0.3-3.9c-0.8-2-0.2-4.2-1-6
		c-0.8-1.8-0.4-3.5-0.6-5.2c-0.2-1.6,0.1-3.3-0.3-4.8c-0.5-1.9-0.1-3.9-0.4-5.7c-0.4-2.4,0.6-4.6,0.6-6.9c0-3.2,1.4-6,1.7-9
		c0.3-3.1,1.8-5.9,2.3-8.9c0.5-3,2.3-5.3,3.2-8c1.3-1.4,3-1.6,4.8-1.6c-0.1,1.1,0.8,1.3,1.5,1.6c2.1,0.9,3.5,2.5,3.8,4.7
		c0.2,1.9,0.4,3.9,0.1,5.7c-0.9,5.8-1.2,11.7-1.2,17.5c0,0.6,0.2,1.2,0.3,1.8c-0.7,1-0.5,2.1-0.3,3.2c0,1.9,0,3.7-0.1,5.6
		c-0.2,0.2-0.5,0.5-0.5,0.7c0.1,1.1,0.2,2.1,0.3,3.2c0,3-0.2,6-0.1,9c0.1,2,0.4,4.1,0.9,6c1.8,6.5,5.9,11.6,10.7,16.1
		c1.9,1.8,3.9,3.5,5.2,5.9C270.5,447.9,270.2,448.6,269.9,449.4z M258.7,438.4c-2,0.7-3.7,1.5-5.1,2.8c-0.1,0.1-0.2,0.3-0.2,0.4
		c0,0.3,0,0.7,0.2,0.9c0.1,0.1,0.6,0,0.8-0.1c1.5-0.8,3-1.7,4.4-2.6c0.3-0.2,0.6-0.5,0.6-0.8C259.3,438.8,258.9,438.6,258.7,438.4z"
		/>
	<path class="st2" d="M270.8,447.1c-1.2-2.4-3.3-4.1-5.2-5.9c-4.7-4.5-8.9-9.6-10.7-16.1c-0.5-1.9-0.8-4-0.9-6c-0.1-3,0-6,0.1-9
		c0.3-0.1,0.7-0.3,1-0.4c0.1,0.5,0.2,1.1,0.2,1.6c0,4.6-0.1,9.2,1,13.7c0.8,3.1,2.5,6,4.6,8.4c2.3,2.7,4.9,5.2,7.3,7.8
		c1.2,1.4,2.3,2.9,3.3,4.3c0.2,0.3,0.3,0.8,0.4,1.2c0,0.2-0.1,0.3-0.1,0.5C271.6,447.2,271.2,447.2,270.8,447.1z"/>
	<path class="st22" d="M254.7,397.6c-0.1-0.6-0.3-1.2-0.3-1.8c0-5.9,0.3-11.7,1.2-17.5c0.3-1.9,0.1-3.8-0.1-5.7
		c-0.3-2.3-1.7-3.8-3.8-4.7c-0.7-0.3-1.6-0.5-1.5-1.6c0.3,0,0.7-0.2,1-0.1c2.9,1.1,5.2,2.8,5.7,6.1c0.2,1.5,0.1,3,0,4.5
		c-0.2,2.2-0.5,4.5-0.6,6.7c-0.2,4.6-0.3,9.2-0.5,13.9c-0.2,0.1-0.5,0.2-0.7,0.2C255,397.6,254.9,397.6,254.7,397.6z"/>
	<path class="st22" d="M254.4,406.3c0-1.9,0-3.7,0.1-5.6c0.3-0.1,0.5-0.3,0.8-0.4c0.2,0.1,0.3,0.2,0.5,0.3c0,1.6,0,3.1,0,4.7
		c0,0.5-0.3,0.9-0.5,1.4C254.9,406.5,254.6,406.4,254.4,406.3z"/>
	<path class="st16" d="M254.4,406.3c0.3,0.1,0.5,0.2,0.8,0.3c0,1,0,2.1,0,3.1c-0.3,0.1-0.7,0.3-1,0.4c-0.1-1.1-0.3-2.1-0.3-3.2
		C253.8,406.8,254.2,406.5,254.4,406.3z"/>
	<path class="st4" d="M255.6,400.6c-0.2-0.1-0.3-0.2-0.5-0.3c0-0.9,0-1.8,0-2.7c0.2-0.1,0.5-0.2,0.7-0.2
		C255.8,398.4,255.7,399.5,255.6,400.6z"/>
	<path class="st24" d="M242.7,368.1c0.3-0.4,0.6-0.7,0.9-1.1c0.1,0.1,0.2,0.2,0.3,0.2c-0.3,0.4-0.6,0.7-0.9,1.1
		C242.9,368.2,242.8,368.1,242.7,368.1z"/>
	<path class="st24" d="M241.8,370.1c0.2-0.5,0.4-1.1,0.6-1.6c0.1,0.1,0.3,0.1,0.4,0.2C242.4,369.2,242.1,369.7,241.8,370.1
		C241.8,370.1,241.8,370.1,241.8,370.1z"/>
	<path class="st1" d="M272,449.4c0-0.4,0-0.8,0-1.2C273,448.6,272.2,449,272,449.4z"/>
	<path class="st1" d="M271.9,447.2c0-0.2,0.1-0.3,0.1-0.5c0.3,0.4,0.9,0.7-0.1,1.1C272,447.6,271.9,447.4,271.9,447.2z"/>
	<path class="st24" d="M241.8,370.1c-0.1,0.2-0.1,0.5-0.2,0.7c-0.1,0-0.1,0-0.2,0C241.5,370.6,241.7,370.4,241.8,370.1
		C241.8,370.1,241.8,370.1,241.8,370.1z"/>
	<path class="st1" d="M241.4,370.8c0.1,0,0.1,0,0.2,0c0,0.2,0,0.3,0,0.5c-0.1,0-0.1,0-0.2,0C241.4,371.2,241.4,371,241.4,370.8z"/>
	<path class="st13" d="M355.9,355.2c-0.8,0.3-1.6,0.6-2.3,0.9c-1.5,0.2-3,0.3-4.7,0.5c0.2-0.7,0.3-0.9,0.4-1.2
		c2-0.1,3.9-0.3,5.9-0.4C355.4,355,355.6,355.2,355.9,355.2z"/>
	<path class="st5" d="M334,358.8c0.2-0.2,0.3-0.4,0.5-0.6c0.2,0,0.4,0.1,0.6,0.1c0.1,0.2,0.2,0.5,0.3,0.5c1,0.2,2,0.3,3,0.6
		c-1.2,0.1-2.4,0.1-3.6,0.2c-0.1,0-0.2,0-0.2,0l-0.1,0c0,0-0.1,0-0.1,0C334.1,359.3,334,359.1,334,358.8z"/>
	<path class="st2" d="M334.7,350.1c0.1,0,0.2,0,0.4,0c0.3,1.8,0.3,3.6-0.2,5.3c-0.1,0-0.3,0-0.4,0
		C334.5,353.6,334.6,351.9,334.7,350.1z"/>
	<path class="st2" d="M316.7,332.3c0.2-0.2,0.4-0.3,0.5-0.5c0.1,0.2,0.2,0.2,0.2,0.3c-0.1,0.2-0.3,0.3-0.5,0.5
		C316.8,332.5,316.7,332.4,316.7,332.3z"/>
	<path class="st12" d="M316,335.6c0.1-0.2,0.1-0.4,0.2-0.6c0.1,0,0.1,0.1,0.2,0.1C316.3,335.3,316.1,335.4,316,335.6L316,335.6z"/>
	<path class="st12" d="M315.3,336.7c0,0.1-0.1,0.2-0.1,0.3C315.3,336.9,315.3,336.8,315.3,336.7
		C315.3,336.7,315.3,336.7,315.3,336.7z"/>
	<path class="st12" d="M315.3,336.7c0,0,0-0.1,0.1-0.1C315.4,336.7,315.3,336.7,315.3,336.7C315.3,336.7,315.3,336.7,315.3,336.7z"
		/>
	<path class="st12" d="M316,335.6C316,335.6,316,335.6,316,335.6C316,335.6,316,335.6,316,335.6C316,335.6,316,335.6,316,335.6z"/>
	<path class="st20" d="M380.6,356.8c0.3,0,0.6,0,0.9-0.1c0,0.4,0.1,0.7-0.1,1.1c-1.2,3.1-2.5,6.2-3.6,9.4c-0.8,2.3-1.3,4.8-2,7.2
		c-0.7,2.2-1.8,2.7-3.8,1.5c-0.2-0.1-0.5-0.2-0.7-0.4c-0.8-0.5-1.4-0.3-1.7,0.6c-0.8,2-1.5,4-2.3,6c-0.2,0.6-0.6,1.2-0.9,1.7
		c-0.2,0.2-0.5,0.3-0.8,0.4c0-0.3-0.2-0.7-0.1-0.9c0.9-2.4,1.9-4.7,2.9-7.1c0.1-0.3,0.2-0.6,0.4-0.8c0.8-1.4,1.6-1.6,3-1
		c0.2,0.1,0.5,0.2,0.7,0.4c1.7,0.9,1.9,0.9,2.4-1c1.1-3.8,2.1-7.6,3.3-11.3C378.7,360.4,379.7,358.6,380.6,356.8z"/>
	<path class="st1" d="M336.3,364.6c-0.8-0.6-0.7-1.2,0-1.8C336.3,363.4,336.3,364,336.3,364.6z"/>
	<path class="st2" d="M307.3,365.5c0.1-0.1,0.1-0.2,0.2-0.2C307.4,365.4,307.3,365.5,307.3,365.5z"/>
	<path class="st2" d="M364.6,353.6C364.7,353.6,364.7,353.6,364.6,353.6C364.7,353.6,364.7,353.6,364.6,353.6
		C364.7,353.6,364.6,353.6,364.6,353.6C364.6,353.6,364.6,353.6,364.6,353.6z"/>
	<path class="st1" d="M274.1,458.6c0.3-0.1,0.6-0.3,0.8-0.2c2.4,0.7,4.8,1.4,7.1,2.1c0.3,0.1,0.6,0.4,0.8,0.7
		c-1.6-0.4-3.2-0.8-4.8-1.2C276.7,459.5,275.4,459.1,274.1,458.6z"/>
	<path class="st1" d="M285.3,461.4c0.6,0.2,1.3,0.5,1.9,0.7C286.6,461.9,286,461.6,285.3,461.4z"/>
	<path class="st1" d="M284.2,461.2c0.3,0.1,0.5,0.2,0.8,0.2C284.7,461.3,284.4,461.2,284.2,461.2z"/>
	<path class="st1" d="M283.3,461.2c0.2,0,0.4,0,0.5,0C283.6,461.2,283.4,461.2,283.3,461.2z"/>
	<path class="st5" d="M295.7,463c-0.5-0.1-1.1-0.2-1.6-0.3c0.6-0.2,1.2-0.5,1.7-0.5c2.7,0.3,5.5,0.8,8.2,1.2c0,0.1,0,0.2,0,0.3
		C301.3,463.5,298.5,463.3,295.7,463z"/>
	<path class="st11" d="M353.1,334.9c-0.1,0.1-0.2,0.2-0.3,0.3c-0.4-0.8-0.9-1.6-1.3-2.4c0.1-0.1,0.2-0.2,0.3-0.3
		C352.2,333.3,352.7,334.1,353.1,334.9z"/>
	<path class="st2" d="M351.8,332.5c-0.1,0.1-0.2,0.2-0.3,0.3c-0.2-0.3-0.5-0.6-0.7-0.9c0.1-0.1,0.2-0.2,0.3-0.3
		C351.3,332,351.6,332.2,351.8,332.5z"/>
	<path class="st10" d="M334.4,359.6c0.1,0,0.2,0,0.2,0C334.6,359.6,334.5,359.6,334.4,359.6z"/>
	<path class="st2" d="M379.4,438.6c0.6-0.1,1.2-0.2,1.7-0.3c-0.9,0.4-1.9,0.7-2.8,1.1c0-0.1-0.1-0.3-0.1-0.4
		C378.6,438.9,379,438.8,379.4,438.6z"/>
	<path class="st9" d="M278.9,413.7c-4,0-6.9-1.8-8.9-5.2c-1.2-2-0.8-5.8,0.9-7.5c0.5-0.5,0.8-1.1-0.2-1.5c-0.3-0.1-0.6-0.5-0.6-0.8
		c0-1.6-0.2-3.2,0.1-4.6c0.3-1.4,1-2.9,1.9-4c0.7-1,1.9-1.6,3.1-2.5c0.2,4.5,2.3,7.7,5.5,10.2c-0.4,0.7-0.9,1.4-1.3,2.1
		c-0.1,0.1-0.3,0.1-0.4,0.2c-1.4,2.2-1.6,4.6-1.2,7.1c0,0.1,0.3,0.2,0.4,0.3c0.1,0.6,0.2,1.2,0.3,1.9c0.4,1.3,0.9,2.5,1.2,3.4
		C279.3,413.2,279.1,413.5,278.9,413.7z"/>
	<path class="st5" d="M278.5,409.3c-0.1-0.6-0.2-1.2-0.3-1.9c0.2,0.2,0.4,0.4,0.6,0.7c0.2,0.5,0.4,1.1,0.6,1.6
		C279.2,409.6,278.8,409.5,278.5,409.3z"/>
	<path class="st18" d="M272.5,413.5c-2.7-0.4-5.5-0.8-8.4-1.2c2.4-1.6,3.6-1.7,5.1-0.1c0.8-0.8,1.3-0.4,2,0.3
		C271.5,412.8,272,413.1,272.5,413.5L272.5,413.5z"/>
	<path class="st13" d="M278.8,408.2c-0.2-0.2-0.4-0.4-0.6-0.7c-0.1-0.1-0.4-0.2-0.4-0.3c-0.5-2.5-0.2-4.9,1.2-7.1
		c0.1-0.1,0.3-0.1,0.4-0.2C278.4,402.6,278.2,405.3,278.8,408.2z"/>
	<path class="st8" d="M268.2,408.7c-1.3-2-0.8-4-0.2-5.9c0.1,1.8,0.2,3.8,0.4,5.8C268.3,408.6,268.3,408.7,268.2,408.7z"/>
	<path class="st8" d="M268.4,408.6c0,0.1,0,0.2,0.1,0.4c-0.1-0.1-0.1-0.2-0.2-0.3C268.3,408.7,268.3,408.6,268.4,408.6z"/>
	<path class="st18" d="M272.5,413.5C272.5,413.5,272.5,413.5,272.5,413.5C272.5,413.5,272.5,413.5,272.5,413.5
		C272.5,413.5,272.5,413.5,272.5,413.5z"/>
	<path class="st27" d="M373.1,434.4c0-0.6,0.1-1.1,0.1-1.7c-1.5,0.4-1.6,1.8-1.8,3.3c-0.7-0.6-1.2-1-1.8-1.4
		c-0.3-0.2-0.6-0.3-0.9-0.4c0-0.1,0.1-0.2,0.1-0.3c0.8-1.6,0.7-1.7-1-2.2c0.8-1.1,2-0.6,2.9-0.4c1.7,0.4,3.1-0.1,4.4-1
		c1.5-1,2.7-2.4,4.6-2.7c-0.1,0.2-0.1,0.5-0.2,0.6c-2.7,1-4,3.5-5.8,5.6C373.5,433.9,373.3,434.2,373.1,434.4z"/>
	<path class="st27" d="M366.7,431.7c-0.9,0.2-1.9,0.4-2.8,0.6C364.9,432.1,365.8,431.9,366.7,431.7z"/>
	<path class="st19" d="M369.8,438c0.1,0,0.2,0,0.3,0C370.1,438,370,438,369.8,438z"/>
	<path class="st28" d="M334.7,350.1c-0.1,1.8-0.2,3.5-0.3,5.3c-0.6,0.8-1.2,1.5-1.7,2.3c0-0.4,0-0.7,0.1-1.1c-0.1,0-0.1,0-0.2,0
		c-0.2,0.3-0.4,0.7-0.6,1c-1,0.1-2,0.2-3,0.3c-0.3,0-1-0.4-0.7,0.5c-3.2,0.3-6.4,0.7-9.7,1c-1.2-1.1-2.6-2-3.4-3.2
		c-1.5-2.3-2.3-4.8-1.3-7.6c0.2-0.4,0.2-0.9,0.2-1.3c1.3-2.6,3.7-4,6.2-5.1c3.2-1.3,5.9-0.3,8.6,1.4c0.3,0.2,0.6,0.5,0.9,0.5
		c3.1,0.6,4.2,2.9,4.8,5.6C334.7,349.9,334.7,350,334.7,350.1z"/>
	<path class="st24" d="M313,355.7c0.3-0.9,0.6-0.5,0.9,0c0.6,0.9,1.2,1.8,1.8,2.7c0.4,0.5,0.9,0.8,1.3,1.2c-1,0-2.2-0.9-2.7-1.8
		C314,357,313.5,356.3,313,355.7z"/>
	<path class="st2" d="M332,357.6c0.2-0.3,0.4-0.7,0.6-1c0.1,0,0.1,0,0.2,0c0,0.4,0,0.7-0.1,1.1C332.5,357.7,332.2,357.7,332,357.6z"
		/>
	<path class="st2" d="M328.2,358.4c-0.3-0.9,0.3-0.5,0.7-0.5C328.9,358.4,328.9,358.8,328.2,358.4z"/>
	<path class="st25" d="M258.7,438.4c0.2,0.2,0.7,0.4,0.7,0.7c0,0.3-0.3,0.6-0.6,0.8c-1.5,0.9-2.9,1.7-4.4,2.6
		c-0.2,0.1-0.7,0.2-0.8,0.1c-0.2-0.2-0.2-0.6-0.2-0.9c0-0.1,0.1-0.3,0.2-0.4C255,439.9,256.7,439,258.7,438.4z"/>
	<path class="st16" d="M255.2,397.6c0,0.9,0,1.8,0,2.7c-0.3,0.1-0.5,0.3-0.8,0.4c-0.2-1.1-0.4-2.2,0.3-3.2
		C254.9,397.6,255,397.6,255.2,397.6z"/>
</g>
</svg>
