<svg id="Calque_1" data-name="Calque 1" xmlns="http://www.w3.org/2000/svg" xmlns:xlink="http://www.w3.org/1999/xlink" viewBox="0 0 211.35 211.35"><defs><style>.cls-1{stroke:#000;stroke-miterlimit:10;fill:url(#Dégradé_sans_nom_48);}.cls-2{fill:#050505;}.cls-3{fill:#070707;}.cls-4{fill:#eff0fd;}.cls-5{fill:#647539;}.cls-6{fill:#989898;}.cls-7{fill:#657639;}.cls-8{fill:#1f1f1f;}.cls-9{fill:#404a26;}.cls-10{fill:#eeeffb;}.cls-11{fill:#1e1e1e;}.cls-12{fill:#333336;}.cls-13{fill:#d2d2d2;}.cls-14{fill:#b8c0d9;}.cls-15{fill:#1a1a1a;}.cls-16{fill:#1b1b1b;}.cls-17{fill:#9e967a;}.cls-18{fill:#ebecf8;}.cls-19{fill:#5c6c32;}.cls-20{fill:#3c3c40;}.cls-21{fill:#504c4c;}.cls-22{fill:#576a1d;}.cls-23{fill:#070806;}.cls-24{fill:#d290b9;}.cls-25{fill:#0e0f10;}.cls-26{fill:#080808;}.cls-27{fill:#c7bfa1;}.cls-28{fill:#945f7f;}.cls-29{fill:#eff0fc;}</style><linearGradient id="Dégradé_sans_nom_48" x1="53.08" y1="196.78" x2="158.27" y2="14.58" gradientUnits="userSpaceOnUse"><stop offset="0" stop-color="#ffdbbf"/><stop offset="1" stop-color="#f6ab78"/></linearGradient></defs><circle class="cls-1" cx="105.68" cy="105.68" r="105.18"/><path class="cls-2" d="M385.36,388.81c-.19,1.58-.38,3.15-.57,4.82.84.47,1.85,1,2.82,1.58a3.55,3.55,0,0,1,1.52,3.17c0,1.34,0,2.68-.06,4l0,3.23c.49,2.89,1,5.78,1.48,8.68a39.29,39.29,0,0,1-.13,13.85,33.72,33.72,0,0,1-1.82,4.8,3.44,3.44,0,0,0-.29,1.7A10.08,10.08,0,0,1,385,444.93c-3.13,2.83-6.12,5.8-9.22,8.65-1.07,1-2.29,1.79-3.47,2.7,1,2.21,2,4.4,3,6.6a5.27,5.27,0,0,1-1.1,6.51,22.27,22.27,0,0,1-8.39,5.08,94.55,94.55,0,0,1-23,5.35c-4.14.51-8.31.78-12.47,1.15l-.47,0-3.45.19h-.46c-7.16-.05-14.32,0-21.49-.19-2.75-.05-5.49-.46-8.23-.7l-.46,0c-4.66-.69-9.34-1.25-14-2.1a57.74,57.74,0,0,1-16.16-5.1,25.14,25.14,0,0,1-5.42-3.79c-2.14-2-2.31-4.1-1-6.69l3.55-6.93a21.13,21.13,0,0,0-2.91-1.37c-6.75-2-12.34-5.51-16.22-11.52-.87-1.35-2-2.52-2.89-3.87a30.3,30.3,0,0,1-4.51-12.54c-.61-4.52-1.4-9-2-13.54a67.13,67.13,0,0,1,1.9-26.23,11.73,11.73,0,0,1,.38-1.44,9.92,9.92,0,0,0,.13-5.27,32.9,32.9,0,0,1-.16-6.2c.1-3.34.32-6.67.52-10a2.23,2.23,0,0,1,.32-1.08c2.9-4.33,5.6-8.82,8.83-12.89a39.09,39.09,0,0,1,7.61-7c4.29-3.15,8.89-5.87,13.27-8.91a13.83,13.83,0,0,1,6.12-2.37c8.85-1.22,17.69-2.5,26.53-3.77l24.7-3.57c2.28-.33,4.54-.82,6.83-.93a19,19,0,0,1,4.52.64c2.9.56,5.83,1,8.65,1.84a9.67,9.67,0,0,0,4.75.06c4.61-.86,9.71,1.8,12.09,6.05a6.94,6.94,0,0,0,1.29,1.37,71.86,71.86,0,0,1,5.59,5.44c2.56,3.1,4.86,6.42,7.23,9.67a1.55,1.55,0,0,0,1.4.74c2.77,0,5.53.16,8.29.1a5.86,5.86,0,0,1,5.48,3.05,3.28,3.28,0,0,1-.55.68c-1.82,1.38-2,3.16-1.78,5.34.71,6.56,1.26,13.14,1.72,19.72.25,3.6-.7,6.77-4.16,8.71-.31.17-.25,1-.36,1.5Zm-114,67.74.06.1,0,0s-.1-.06-.08,0-.05-.11-.07-.11a2.09,2.09,0,0,0-.25,0A1.67,1.67,0,0,0,271.31,456.55Zm29.49-1.5v.36l-1.24.58a8.21,8.21,0,0,0-1.11,0l-11.22,1.74c-2.73,0-5.47,0-8.2,0a3,3,0,0,0-1.71.29c-.79.61-1.18.37-1.63-.33s-2.66-1.06-3.38-.58l1.08,1.08-3.24-1.62c-1.41-.71-2.68-1.73-4.34-1.85l-.2-.17-.08.16h0c-.46.31-1.09.53-1.35,1-1.33,2.23-2.6,4.48-3.79,6.78a10.33,10.33,0,0,0-.58,2.33,5,5,0,0,0,2.34,4,5.18,5.18,0,0,0,.87.88,51.48,51.48,0,0,0,6.13,3.36c8.52,3.48,17.54,4.88,26.63,5.87,3.58.39,7.17.61,10.76.91l.46,0c.31,0,.62,0,.92,0a201.42,201.42,0,0,0,27.9-.72,131.54,131.54,0,0,0,19.15-3,54.68,54.68,0,0,0,13.59-4.79l.19-.14a37.08,37.08,0,0,0,4-3,10.63,10.63,0,0,0,1.53-2.85,6.4,6.4,0,0,0-.09-2.2c-.9-2.08-2-4.09-3-6.22l-.79.6-2.7,1.64a6,6,0,0,0-.88.16l-11.29,4a4.93,4.93,0,0,1-.87.12l-.07-.29,1-.36c2.11-.74,4.25-1.42,6.32-2.27a11.47,11.47,0,0,0,2.25-1.63l.24,0,.92-.68c.2-.21.36-.52.62-.64a37.57,37.57,0,0,0,11.35-8c1.68-1.72,3.32-3.47,5-5.21l3.28-3a6.75,6.75,0,0,0,1.1-5.61l-4.27,2.64-1.34,0,.87-.89a3.43,3.43,0,0,0,2.44-2.42,41.31,41.31,0,0,0,3-3.84c1.72-2.78,1.78-6,1.88-9.12.27-7.93-2-15.36-4.77-22.65-1.16-3-3.31-5.39-5.37-7.8-.17-.7-.31-1.4-.51-2.09a1.36,1.36,0,0,0-1.9-1.09c-.3.09-.6.11-.9.17l-5.2,1.16-.67,0-.49.15-4.29.58-.11-.57c1.51-.4,3-.77,4.51-1.19.61-.17,1.19-.42,1.79-.63l.86-.2.44-.06a1.37,1.37,0,0,0,.35,0c2.74-.62,5.48-1.23,8.22-1.88a14.16,14.16,0,0,0,3.6-1,6.38,6.38,0,0,0,3.27-6.14c0-1.86-.28-3.72-.43-5.58-.39-5-.74-9.95-1.19-14.92-.1-1.08.13-2.52-1.58-2.75a4.29,4.29,0,0,0-1.33-.26q-4.35.66-8.67,1.42c-1.9.34-3.78.76-5.67,1.15h-.46l-4.84.92c-.11.33-.34.68-.3,1,.48,3.48,1,7-.13,10.54h-1.18a2.49,2.49,0,0,0-.85-.22c-1.58.19-3.16.4-4.73.68-.24,0-.42.46-.64.7.23,2.87.43,5.75.7,8.61a44.5,44.5,0,0,0,.72,5.41,4.12,4.12,0,0,0,2.26,3.26l0,.37c-.92.47-1.22-.48-1.76-.81a9.22,9.22,0,0,1-3.77-3.95,5.48,5.48,0,0,1,.81,0c1.16.16,1.63-.31,1.49-1.48s-.2-2.08-.28-3.12c-.15-2-.3-4-.42-6,0-.74-.33-1.18-1.06-.84-1.43.68-2.82,1.46-4.23,2.19l-.46-.51a20.3,20.3,0,0,1-.45-2.45c-.08-1-.54-1.34-1.49-1.18-3.25.58-6.5,1.14-9.83,1.72l.34,3.49c.09,1.26.18,2.51.26,3.77.2,3,.62,6,.54,8.93-.1,3.25-1.55,5.87-4.9,7a1.76,1.76,0,0,1,.09-.66,10.78,10.78,0,0,1,.67-.95l.09-.24.38-.42c.26-.45.5-.92.77-1.36a8.28,8.28,0,0,0,1.27-4.68c-.18-4.22-.43-8.44-.66-12.66l-.23-.24L333,369c1.6-.12,0-.95.27-1.41.22,0,.41,0,.59.09,1.56.37,1.66.3,2-1.28,0-.23.29-.43.45-.65.07.56.15,1.11.22,1.67.14,1.27.28,2.54.43,3.88,1.47-.22,2.71-.38,3.94-.6,3.23-.56,6.46-1.16,9.69-1.71,3.79-.66,7.59-1.28,11.38-1.93.53-.09.93-.32.83-1-.22-1.43-.42-2.86-.6-4.3-.2-1.61-.36-3.23-.52-4.75.13-.13.16-.17.19-.17,7.44-1.48,14.88-3,22.33-4.38a3.25,3.25,0,0,1,1.95.33c1.23.64,1.27.68,2.09-.62a4,4,0,0,0-3.6-1.63l-1.93.23c-2.68.36-5.35.74-8,1.07-2.87.36-5.75.68-8.63,1l-.48.46-.92.23h-.45l-.94-.46-3.15-.07.33-.6c3.7-6.92-.47-13.76-7.62-14.91-2.86-.45-5.34.63-7.62,2.25l-.61,0a9.93,9.93,0,0,0-10.11-9.91,58,58,0,0,0-6.12.74l-1,.6-10,.81a6.15,6.15,0,0,1,.86-.86,10.66,10.66,0,0,1,5.54-1.72c2.52,0,5.07.16,7.44-1l.37-.25-.46-.15a14.14,14.14,0,0,0-7.36.46,21.21,21.21,0,0,1-7.44,1.15c-1.11,0-2.22.09-3.32.21a13.35,13.35,0,0,0-5.91,2.38l5.06,2.94a3.3,3.3,0,0,1-.94,0,13.6,13.6,0,0,0-3.05-.91c-2.85-.08-5.77-.28-8.35,1.36l-.94.16.31.26.9,1.11c-1.14,0-2.16.29-2.88,0a10.29,10.29,0,0,0-8.95-.05,7.92,7.92,0,0,0-2,.36,26.78,26.78,0,0,0-2.78,1.73l-.23-.22a2.25,2.25,0,0,1,.3-.6c3.43-3.42,7.66-5.17,12.66-3.63a2.56,2.56,0,0,0,2.14-.23c1.63-.8,3.37-1.39,5.06-2.07a5.52,5.52,0,0,0,.83-.33c2-1.19,4.07-2.4,6.1-3.61,2.47-.24,4.94-.44,7.41-.73a24.19,24.19,0,0,0,4.5-.77c4.43-1.41,8.7-1.51,12.92.76a4.08,4.08,0,0,0,2.31.07c1.09-.16,2.16-.48,3.23-.74l.85-.09,0-.27-.83-.07c-1.35-.25-2.72-.46-4.06-.77-2.85-.66-5.67-1.17-8.62-.43-1.66.41-3.4.5-5.1.75l-12.61,1.89-7.6,1.07-30.32,4.4c-1.17.17-2.38.29-3.21,1.31-.74.45-1.51.88-2.23,1.36q-6.44,4.29-12.86,8.61h0l-.44.25h0c-2.27,2.09-4.83,4-6.75,6.35-2.66,3.3-4.86,7-7.23,10.51a5.06,5.06,0,0,0-1.16,2.15c-.25,4.7-.36,9.42-.51,14.13l.15.61.29-.26c.3-.24.77-.42.87-.72.52-1.62,1-3.25,1.39-4.9.16-.65.44-.81,1-.71l-.18,1.56,0,.36c0,.26-.09.53-.16.79-1.08,3.75-2.2,7.5-3.23,11.27a66.06,66.06,0,0,0-1.95,27.33c.69,4.63,1.31,9.27,2.09,13.87a26.22,26.22,0,0,0,6.18,13.28c.78.83,1.57,1.65,2.35,2.47l.15.11.71.65h0l2.46,1.88,0,0a7.44,7.44,0,0,0,.68.58,33.32,33.32,0,0,0,10.52,4.15c1.44.32,2.9.55,4.35.82l1.52.07,1.94-.89.15-.16.71-.18c1,.56,1.38-.53,2.06-.81-.05,1.43-1.77,3.28-3.43,3.72l-.36.27.57.18,6.18,1.79a8.67,8.67,0,0,0,0-1.29c-.32-1.72-.72-3.43-1-5.17a21.53,21.53,0,0,1-.08-2.67c.83-.22,1,.23,1.15,1,.48,2.53,1,5,1.55,7.56.08,1.34,1.15.93,1.9,1.07,1.18.08,2.36.23,3.54.22,2,0,4-.13,5.94-.19.66,0,.77-.36.61-.91-.65-3-1.3-6-1.94-8.95-.34-1.57-.72-3.13-1-4.71-.07-.46.27-1,.42-1.48.3.41.61.81.9,1.22,0,0,0,.08,0,.12q1.59,6.8,3.19,13.59c.25.23.48.64.76.66a7.41,7.41,0,0,0,1.81-.14c1.61-.24,3.21-.5,4.82-.75.59.29,1.17.53,1.61-.22l1-1.14a6,6,0,0,1,1-.47c.88-.21,1-.65.81-1.5-.76-3.17-1.48-6.34-2.12-9.53-.79-4-1.45-8-2.21-12s-1.59-8-2.43-12a1.22,1.22,0,0,0-.73-.79c-1.55-.41-3.14-.7-4.7-1.1a6.28,6.28,0,0,1-1.26-.65l0-.67,1.84-.9a10.59,10.59,0,0,0,3.61-4.91c.13-.34.52-.59.8-.87a3.66,3.66,0,0,1,.54,1.13,2,2,0,0,1-.35,1.19c-1.08,1.46-2.22,2.89-3.34,4.32l-.24.3.51.11c.38.06.75.13,1.13.18,2.23.35,3.41,1.19,3.88,3.87,1.56,9.08,3.64,18.07,5.52,27.1.38,1.84.79,3.67,1.08,5.52.23,1.46-.18,2-1.55,2.53a8.44,8.44,0,0,0-1.31.86A.29.29,0,0,0,300.8,455.05Zm81-63.11.52.62.42.46h.39c.24-1.9.48-3.79.76-5.94l-4.06.82-.4,0-.69.19.29.48,2.74,3.32Zm5.42,10,.24.39.17-.44c0-.77,0-1.54,0-2.3,0-2.32-.65-3.23-2.93-4.05l-.09-.05.1,0c.14.38.28.76.43,1.14C385.82,398.39,386.53,400.14,387.23,401.9Zm-47.45-73-.38.17.39.26a11.38,11.38,0,0,1,6.26,7.72,11.62,11.62,0,0,1,6.82-1.48h.47l1,.29c5.87,1.76,9.75,6.53,9.1,12.65-.12,1.09-.39,2.17-.61,3.39.69-.11,1.35-.27,2-.32,1.13-.07,1.62-.68,1.92-1.74,1.36-4.82-.61-9.15-5.24-11.59a38,38,0,0,1-3.78-2.56v0h3A9.62,9.62,0,0,0,355,328.4a9.5,9.5,0,0,0-7.93-.17c3.33,2.26,3.7,2.6,3.86,3.63C347.4,330,343.87,328.37,339.78,328.91Zm33.79,20c-.91-2.17-5.87-8.59-6.82-8.87,0,.07,0,.16,0,.21a11.69,11.69,0,0,1,2,7.72c0,.3.32.89.52.9C370.73,349,372.12,349,373.57,349Zm-7-9.28.23-.2-4.06-3.86-.31.2c.12.38.14.89.39,1.09C364,337.87,365.31,338.75,366.57,339.67Z" transform="translate(-207.15 -297.71)"/><path class="cls-3" d="M389.05,405.63l0-3.23Z" transform="translate(-207.15 -297.71)"/><path class="cls-3" d="M385.36,388.81v0Z" transform="translate(-207.15 -297.71)"/><path class="cls-3" d="M295.74,480.28l.46,0Z" transform="translate(-207.15 -297.71)"/><path class="cls-3" d="M329.83,481l.47,0Z" transform="translate(-207.15 -297.71)"/><path class="cls-3" d="M325.92,481.2h0Z" transform="translate(-207.15 -297.71)"/><path class="cls-4" d="M382.39,438.36l4.27-2.64a6.75,6.75,0,0,1-1.1,5.61,8.37,8.37,0,0,0-1,.48c-2.76,1.76-5.51,3.55-8.27,5.3-1.4.88-2.79,1.81-4.26,2.56a17.25,17.25,0,0,1-4.71,1.94A36.22,36.22,0,0,1,360,452c-2.77-.11-5.52-.55-8.29-.79-2-.17-4-.28-6-.33-1.23,0-2.46.13-3.68.21-.78,0-1.45-1-2.31-.25a8.5,8.5,0,0,1-1.12.21c-.74,0-1.21.1-1.29,1.12A3,3,0,0,1,336,454a12.94,12.94,0,0,1-3.06,1.35c-1.81.62-3.66,1.14-5.49,1.72-1.55.5-2.89,1.59-4.62,1.6-1.22,0-2.44.11-3.66.18l-8.17.44a3.83,3.83,0,0,1-.68-.08l-6.17-.83c-1.13-.15-2.27-.28-3.39-.49a4.59,4.59,0,0,1-1.14-.55l1.85-2,.47-.23,4-.8-.12-.49-3.84.89L301,455l-.29-.1A8.44,8.44,0,0,1,302,454c1.37-.56,1.78-1.07,1.55-2.53-.29-1.85-.7-3.68-1.08-5.52-1.88-9-4-18-5.52-27.1-.47-2.68-1.65-3.52-3.88-3.87-.38-.05-.75-.12-1.13-.18l-.27-.41c1.12-1.43,2.26-2.86,3.34-4.32a2,2,0,0,0,.35-1.19,3.66,3.66,0,0,0-.54-1.13c-.28.28-.67.53-.8.87a10.59,10.59,0,0,1-3.61,4.91,1.64,1.64,0,0,0-.57-.27,30.46,30.46,0,0,1-3.45-.08,25.89,25.89,0,0,1-3.3-.87,27.57,27.57,0,0,1-2.54-4.07,9.76,9.76,0,0,1,.49-8.54c.29-.54.58-1.1,1.42-.64.16.09.64-.39,1-.61a4.88,4.88,0,0,0-.77-.91c-2.76-2.12-5.21-4.47-5.87-8.08-.25-1.38-.7-2.82.3-4.19.42-.56,0-1-.7-1a4.31,4.31,0,0,0-.95.29c-.54-.77-1.13-1.49-1.58-2.28-.83-1.48-1.59-3.06-1.26-4.8a12.48,12.48,0,0,1,5-8.14,3.74,3.74,0,0,0,.71-1l.85-3.17c.16.33.28.67.47,1,.42.67.87,1.33,1.3,2L282,369.8a27.85,27.85,0,0,0-1.33,2.58c-.1.23.21.63.33,1,.3-.16.7-.24.89-.49a10.34,10.34,0,0,0,1.36-2.1,2,2,0,0,0,.07-1.56,7.18,7.18,0,0,1-1.25-5.22c.05-.26-.32-.6-.5-.9-.27.18-.7.3-.77.54a11.82,11.82,0,0,0-.3,1.89c-.22-.24-.56-.44-.64-.72a10.48,10.48,0,0,1-.1-5,11.35,11.35,0,0,1,4.78-5.69l1.27-.57,1.39-.35c-1.12-1.27-2.5-2.36-3.22-3.79a12.55,12.55,0,0,1-.89-4.56,15.2,15.2,0,0,1,.38-3.12.16.16,0,0,1,.06-.13l.19-.31a.22.22,0,0,1,.08-.15l.18-.26h0l.2-.31a.17.17,0,0,1,.08-.13l.19-.27,3.78-3.12a10.29,10.29,0,0,1,8.95.05c.72.34,1.74,0,2.88,0l-.9-1.11.63-.42c2.58-1.64,5.5-1.44,8.35-1.36a13.6,13.6,0,0,1,3.05.91,3,3,0,0,0,.94,0c.06.11.13.21.2.32s0,.4.05.5c.42.44.89.85,1.33,1.26a3,3,0,0,1,.67,2.48,5.9,5.9,0,0,0,0,1.39l.23.47.23.48v.18l.23.29V343l-3.57,4.64c-2.7-2.42-5.73-4.42-9.8-3.49a2.4,2.4,0,0,0,1.27.34c3.09,0,5.82,1,7.5,3.69,1,1.59,1.4,3.57,2.07,5.38l.17.94.05.67c-.14.1-.37.18-.42.31-.49,1.57-1,3.15-1.44,4.73a12.79,12.79,0,0,1-1.76.48c-2.82.37-5.64.67-8.45,1.05-.78.1-1.46.3-1.88-.69-.12-.27-.77-.47-1.16-.46-6.4.25-8.68,7-6.86,11.33l1.22-1.29a7.74,7.74,0,0,0,1.28,3.62c2.26,4.34,2.46,8.94,1.49,13.65l-.69,1.84c-.06.38-.11.76-.19,1.13s-.16.56-.24.84l-1.35-1.29v1.39l-3.8-.39-.11.25,3.58,2.23a4.72,4.72,0,0,1,.43,1,5.1,5.1,0,0,0,3.83,4.09l.3-1,1.47.49c3.43,1.26,6.84,2.6,10.31,3.74a6.67,6.67,0,0,0,3.54.19c4.34-1.11,8.62-2.43,12.92-3.66l5.39-1.53.32-.07.6-.15,2.64-.8h0l.8-.23h0c3.36-1.11,4.81-3.73,4.91-7,.08-3-.34-6-.54-8.93-.08-1.26-.17-2.51-.26-3.77.47-.08.95-.18,1.43-.23,2.41-.28,4.81-.53,7.21-.83.94-.12,1.86-.34,2.79-.52l.46.51,3.69,9.22a9.22,9.22,0,0,0,3.77,3.95c.54.33.84,1.28,1.76.81l.44.25.71.24,1.16.16,1.1-.07,1.09.24-1.59.52a4.78,4.78,0,0,0,1.94.4c4.3-.14,8.59-.32,12.88-.48l.4.23.53.34.67.58c2.06,2.41,4.21,4.76,5.37,7.8,2.79,7.29,5,14.72,4.77,22.65-.1,3.14-.16,6.34-1.88,9.12a41.31,41.31,0,0,1-3,3.84l-2.23,1.27,0,0-1,.18-6.7,1A28.84,28.84,0,0,1,376.2,434a4.72,4.72,0,0,1,2-1.8c2.38-1,3-2.93,3.07-5.16.05-3.43-2-5.81-4.39-8-2.16-1.95-4.74-2.12-7.43-1.83-.75.08-1.23.44-1,1.3a12.44,12.44,0,0,0-5,3.16,6.78,6.78,0,0,0-2.39,4.55,46,46,0,0,0-.07,5.38c0,.43.72.82,1.11,1.23s.84.83,1.33.95c1.52.36,3.07.58,4.61.83.16,0,.35-.11.53-.18a3.92,3.92,0,0,1,.41,1.27,20.4,20.4,0,0,1-.42,2.44,40,40,0,0,1-5.46,2.21,30.36,30.36,0,0,1-12.45.1c-5.45-.92-10.91-1.72-15.76-4.71-1.76-1.08-3.6-1.91-4-4.26,0-.27-.65-.46-1-.69a3.26,3.26,0,0,0-.36,1.15,6.9,6.9,0,0,0,.45,1.55,16.64,16.64,0,0,0-2.2.48c-.28.09-.44.52-.66.79a3.34,3.34,0,0,0,.87.57,3.18,3.18,0,0,0,1,0,5.46,5.46,0,0,1,3.72,1.13,11.51,11.51,0,0,0,3.67,2.1c3.84,1.16,7.76,2.09,11.65,3.1,1.16.3,2.34.59,3.53.81a27.87,27.87,0,0,0,3.52.5c1.48.08,3,0,4.44,0a18.53,18.53,0,0,0,2.69-.06c1.33-.2,2.63-.55,4-.83l.25.29.1-.44,0,0a6,6,0,0,0,.6.72c.22.2.65.51.73.44a19.53,19.53,0,0,0,1.56-1.46l.28-1.14.42-.4,0-.06-.06,0,.49.19.45.21,0,0,.32,1.34,1.07-.31,1-1.5a.2.2,0,0,0,.13-.16c.69,0,1.39.09,2.08.09a12.14,12.14,0,0,1,2.47-.09A4.12,4.12,0,0,0,382.39,438.36Zm-26-40.64c-.31-1.2-1.08-1-1.65-.84-3.26.8-6.52,1.65-9.76,2.52a4.5,4.5,0,0,0-1.63.83c-.3.25-.39.77-.57,1.16a3.6,3.6,0,0,0,1.22,0c1.34-.45,2.62-1.1,4-1.46,2.4-.63,4.84-1.1,7.26-1.68A5.65,5.65,0,0,0,356.42,397.72Zm-77.23-16.93c-.39,1.58.95,2.2,1.76,3a36.1,36.1,0,0,0,3.65,3.11c.22.17.74,0,1.11-.06a2.82,2.82,0,0,0-.28-1.09,6.3,6.3,0,0,0-1.17-.91c-2.49-1.89-4.2-4.06-2.89-7.45.1-.25-.24-.69-.38-1-.36.2-.95.35-1,.63C279.62,378.23,279.43,379.52,279.19,380.79Zm15-30.49a6.47,6.47,0,0,0-1.11.88c-.89,1.16-.63,5.56.44,6.58.28.26.86.19,1.31.27a4.36,4.36,0,0,0-.14-1.1c-.66-1.68-1.17-3.34-.25-5.12C294.56,351.51,294.28,351,294.15,350.3Zm19,54.63,0-.4c-.39-.13-.85-.47-1.16-.36-2,.67-4,1.41-5.91,2.2-.27.11-.38.62-.56.94.34.14.75.47,1,.39,1.93-.63,3.84-1.32,5.74-2A3.76,3.76,0,0,0,313.18,404.93Zm.87,2.35c-.66-.22-1.06-.51-1.35-.42a31.32,31.32,0,0,0-3.43,1.28c-.29.13-.42.6-.63.91.35.12.75.42,1,.35a27.16,27.16,0,0,0,3.15-1.07C313.18,408.19,313.44,407.82,314.05,407.28Zm26.89-5.48a17.24,17.24,0,0,0-2.23.78c-.24.12-.31.58-.46.89.33.1.67.33,1,.29a6.55,6.55,0,0,0,1.75-.46c.29-.12.7-.52.66-.73S341.18,402.05,340.94,401.8Z" transform="translate(-207.15 -297.71)"/><path class="cls-5" d="M284.25,340.44a.17.17,0,0,0-.08.13l-.2.31h0l-.18.26a.22.22,0,0,0-.08.15l-.19.31a.16.16,0,0,0-.06.13,7,7,0,0,0-.8,1.95c-.13,1.42-.05,2.85-.05,4.27l.23,1v0l.94,3.5a13,13,0,0,0-6.38,7.05,14.27,14.27,0,0,0-.63,7.89,1.48,1.48,0,0,1-.36,1.05,36,36,0,0,0-3.06,3.39c-2,3.1-3.24,6.4-1.38,10.06.66,1.29,1.4,2.53,2.17,3.92l-.4.24c-3.11,2.05-4.42,5.23-5.26,8.62a9.84,9.84,0,0,0,0,3.86c.18,1.13.58,2.14-.57,3-.16.11-.2.4-.29.62a11.42,11.42,0,0,0-.58,6.1c.06.4,0,1.13-.17,1.21-1.52.66-3.1,1.19-4.8,1.81a26.35,26.35,0,0,0,0-3.57c-.77-5.33-1.63-10.66-2.45-16a31.31,31.31,0,0,1-.76-5.64c.12-3.4.56-6.78,1-10.16.11-.94-.22-1.16-1-1.22l1.2-5.92c1.05.73,1.24.71,2-.57,2.12-3.78,4.2-7.59,6.31-11.38.37-.68.58-1.53,1.65-1.5.16,0,.36-.34.5-.56.57-.86,1.06-1.78,1.68-2.6,1.36-1.81,2.81-3.56,4.18-5.36a9,9,0,0,0,1.08-1.88.88.88,0,0,0-.29-.84,1,1,0,0,0-.87.22,4.09,4.09,0,0,0-.6.84l-5.36,7.06c-.51-1.5,1.3-3-.21-4.56-1.15,1.64-1.13,3.42-1.56,5.05a10.58,10.58,0,0,1-2.37-.63c-3.63-1.87-7.23-3.82-10.82-5.76a21.32,21.32,0,0,1-1.78-1.2h0l.44-.25h0a9.17,9.17,0,0,0,2.15-.69c4.29-2.77,8.55-5.6,12.79-8.44.17-.11.11-.55.15-.84.83-1,2-1.14,3.21-1.31l30.32-4.4,7.6-1.07,0,.4c-2,1.21-4.06,2.42-6.1,3.61a5.52,5.52,0,0,1-.83.33c-1.69.68-3.43,1.27-5.06,2.07a2.56,2.56,0,0,1-2.14.23c-5-1.54-9.23.21-12.66,3.63a2.25,2.25,0,0,0-.3.6l-.22.57h0l.41-.34a26.78,26.78,0,0,1,2.78-1.73,7.92,7.92,0,0,1,2-.36l-3.78,3.12Zm-12.37-4.87c-.22.17-.55.3-.64.53a.87.87,0,0,0,.18.78c1.26.93,2.54,1.85,3.86,2.68.28.17.79,0,1.19,0-.11-.36-.1-.86-.35-1.06-1.06-.87-2.19-1.67-3.31-2.47A7.64,7.64,0,0,0,271.88,335.57Z" transform="translate(-207.15 -297.71)"/><path class="cls-6" d="M306.56,479.82c-3.59-.3-7.18-.52-10.76-.91-9.09-1-18.11-2.39-26.63-5.87a51.48,51.48,0,0,1-6.13-3.36,5.18,5.18,0,0,1-.87-.88l4.25-2a4.43,4.43,0,0,1,1.61-.67c1.29,0,2.57.29,3.86.36,2.3.11,4.61.65,6.88-.19.1,0,.23,0,.34,0,2.15-.42,4.32-.74,6.44-1.3a38.13,38.13,0,0,0,4.13-1.64c.4-.16.83-.25,1.24-.38l.26,0,.31,0c.51,0,1.14.47,1.42-.37l.21.11c.1.12.19.25.29.38l2.32.34,10.84,1,5.32.07c1.14.12,2.28.28,3.42.37,3.75.3,7.5.5,11.23.87a92,92,0,0,0,18.47.16c2.86-.3,5.73-.52,8.59-.73a13,13,0,0,1,2,.16c-.17.28-.27.67-.52.83-1.14.74-2.31,1.43-3.48,2.11s-2.49,1.32-3.64,2.1c-1.61,1.09-3.1,2.37-4.72,3.45-2.16,1.45-4.41,2.77-6.58,4.2-.38.24-.58.74-.87,1.13a201.42,201.42,0,0,1-27.9.72c-.3,0-.61,0-.92,0Z" transform="translate(-207.15 -297.71)"/><path class="cls-7" d="M290.19,454.72q-1.6-6.8-3.19-13.59s0-.09,0-.12c-.29-.41-.6-.81-.9-1.22-.15.49-.49,1-.42,1.48.24,1.58.62,3.14,1,4.71.64,3,1.29,6,1.94,8.95-1.17.08-2.34.21-3.51.23-2.2,0-4.41,0-6.62,0l-1.86-.44c-.52-2.52-1.07-5-1.55-7.56-.14-.73-.32-1.18-1.15-1-.39-1.08-.86-2.13-1.15-3.23a7.8,7.8,0,0,1,0-1.93c1-.09,1.12-.59.95-1.5-1.07-5.95-2.09-11.91-3.11-17.87a26.76,26.76,0,0,1-.57-4.33c0-1.18-1-1.55-1.41-2.34a16.27,16.27,0,0,0-1.31-1.75c1.1.16,2.34.29,3.56.53,2.18.42,4.32,1,6.51,1.35,1.57.24,3.22.45,4.59-.77l6.63.71a6.28,6.28,0,0,0,1.26.65c1.56.4,3.15.69,4.7,1.1a1.22,1.22,0,0,1,.73.79q1.26,6,2.43,12c.76,4,1.42,8,2.21,12,.64,3.19,1.36,6.36,2.12,9.53.2.85.07,1.29-.81,1.5a6,6,0,0,0-1,.47c-.34,0-.68.05-1,.1Zm-4.81-22.93c0-.26-.05-.33-.07-.41-.76-4.09-1.51-8.19-2.32-12.28-.07-.37-.56-.66-.85-1-.18.4-.56.83-.5,1.2.61,3.89,1.29,7.77,2,11.64a2.85,2.85,0,0,0,.48,1.15.9.9,0,0,0,.76.3C285.1,432.3,285.26,431.94,285.38,431.79Zm-.79,4c.24.89.07,1.93,1.1,1.8s.49-1,.41-1.59c0,0,0-.08,0-.11l-.78-1Z" transform="translate(-207.15 -297.71)"/><path class="cls-8" d="M337.21,375c.23,4.22.48,8.44.66,12.66a8.28,8.28,0,0,1-1.27,4.68c-.27.44-.51.91-.77,1.36l-.38.42-.09.24a4.33,4.33,0,0,0-.89.1c-1.58.54-3.15,1.1-4.73,1.66a2.45,2.45,0,0,0-.43.31c-.37.09-.75.16-1.12.28-.2.06-.45.36-.55.31-1-.55-1.84.19-2.75.31-5.29.69-10.58,1.4-15.88,2.07a4.47,4.47,0,0,1-1.14-.12v-.21l.41-.16a22.25,22.25,0,0,1-2.18-2.06c-1.45-1.8-1.27-4.06-1.58-6.18-.11-.74-.19-1.48-.24-2.23-.08-1.26-.06-2.53-.18-3.79s-.36-2.6-.52-3.9c-.11-.85-.17-1.71-.24-2.57-.12-1.52-.27-3-.34-4.56-.08-1.93-.09-3.86-.13-5.79v-.39l.24-.27h.22a4,4,0,0,1,3.08,1.18,28.88,28.88,0,0,0,2.76,2l2.69-2.47c3.83-.58,7.67-1.13,11.5-1.73,2.93-.47,5.85-1,8.77-1.5.08,1.23.16,2.46.23,3.69-.41.2-1,.29-1.2.62-2,3.13-3.95,6.29-5.89,9.45-1,1.66-1,1.62-2.89,1s-3.29-.5-4.36,1.43c-2,3.65-4.17,7.22-6.24,10.84-.13.22,0,.61,0,.93.26-.08.61-.08.77-.25a9.87,9.87,0,0,0,1.16-1.56c1.69-2.95,3.35-5.93,5-8.89,1-1.7,1.38-1.85,3.26-1.33.29.09.57.22.85.33,1.24.49,1.92.37,2.65-.77,2.34-3.68,4.61-7.4,6.9-11.11l.36,0,.21,0,3.94,5.74Z" transform="translate(-207.15 -297.71)"/><path class="cls-9" d="M272.73,441.06a7.8,7.8,0,0,0,0,1.93c.29,1.1.76,2.15,1.15,3.23a21.53,21.53,0,0,0,.08,2.67c.27,1.74.67,3.45,1,5.17a8.67,8.67,0,0,1,0,1.29l-6.18-1.79-.21-.45c1.66-.44,3.38-2.29,3.43-3.72v0c.24-.4,1-.81,0-1.2v-.37c.92-.3.38-.68.06-1a3.89,3.89,0,0,0-.38-1.18,54.6,54.6,0,0,0-3.35-4.35c-2.37-2.64-4.93-5.12-7.27-7.8a21,21,0,0,1-4.6-8.4c-1.17-4.47-1.08-9.08-1-13.67a11.39,11.39,0,0,0-.24-1.61c0-1,0-2.09,0-3.13a4.92,4.92,0,0,0,.46-1.37c.06-1.56,0-3.13,0-4.7l.24-3.27c.16-4.62.27-9.24.49-13.86.11-2.24.48-4.47.63-6.71a22.55,22.55,0,0,0,0-4.5c-.47-3.31-2.77-5.05-5.71-6.1-.28-.1-.64.06-1,.11-1.79,0-3.49.19-4.79,1.59-.86,1-1.7,2.05-2.57,3.06-.4.46-.86.87-1.3,1.3-.58-.1-.86.06-1,.71-.39,1.65-.87,3.28-1.39,4.9-.1.3-.57.48-.87.72l-.44-.35c.15-4.71.26-9.43.51-14.13a5.06,5.06,0,0,1,1.16-2.15c2.37-3.54,4.57-7.21,7.23-10.51,1.92-2.38,4.48-4.26,6.75-6.35a21.32,21.32,0,0,0,1.78,1.2c3.59,1.94,7.19,3.89,10.82,5.76a10.58,10.58,0,0,0,2.37.63,6.86,6.86,0,0,1-.41,2.08c-1.68,3-3.49,5.85-5.2,8.8-1,1.71-1.91,3.47-2.86,5.2l-1.2,5.92c-.16.94-.26,1.89-.5,2.8-1.3,4.81-.55,9.65-.11,14.44.48,5.08,1.48,10.11,2.15,15.18a35.33,35.33,0,0,1,0,4.49l-3.47-.76a1,1,0,0,0,.65.52c2.89.8,5.78,1.61,8.68,2.4a3.88,3.88,0,0,1,2.26,2.86c.13,1.79.23,3.59.51,5.35q1.19,7.41,2.5,14.78C271.84,438.17,272.34,439.61,272.73,441.06Zm-31.12-70.22.21-.7,1-1.39-.38-.2-.57,1.6-.42.69v.52h.16Zm1.1-2.77.27.22.89-1.11-.3-.23Z" transform="translate(-207.15 -297.71)"/><path class="cls-10" d="M314.63,341.57l-.23-.47a5,5,0,0,1,.3-1.62c.56-1,.54-1.74-.55-2.29l-1.83-1.72c-.07-.11-.14-.21-.2-.32l-5.06-2.93a13.35,13.35,0,0,1,5.91-2.38c1.1-.12,2.21-.2,3.32-.21a21.21,21.21,0,0,0,7.44-1.15,14.14,14.14,0,0,1,7.36-.46l.09.4c-2.37,1.12-4.92.92-7.44,1a10.66,10.66,0,0,0-5.54,1.72,6.15,6.15,0,0,0-.86.86l10-.81,1-.6a58,58,0,0,1,6.12-.74,9.93,9.93,0,0,1,10.11,9.91l-1-.48c-1.7-.78-3.4-1.56-5.11-2.32a3.19,3.19,0,0,0-.89-.15l-.07.27a5.87,5.87,0,0,1,.89.34,25.89,25.89,0,0,1,4.16,2.76c.88.83,1.49,1.79,2.86,1.93.53.06,1,.66,1.49,1l.52.39.26-.27c-.74-.84-1.51-1.66-2.22-2.53a2.72,2.72,0,0,1-.28-.9c2.28-1.62,4.76-2.7,7.62-2.25,7.15,1.15,11.32,8,7.62,14.91l-.33.6-1.09.58-3.11,1.62a2.89,2.89,0,0,0-.79-.21c-2,.11-3.93.25-5.9.38l.21-2.27L348,355.64l-.28-.16-.17-.67c-.42.85-.76,1.66-1.21,2.41a1.7,1.7,0,0,1-.92.74c-3.44.69-6.89,1.43-10.38.32l-.57-.14c-.05-.27-.21-.56-.15-.8.14-.64.38-1.27.58-1.9a10.4,10.4,0,0,0,.23-5.34A12,12,0,0,0,318.43,341c-1.16.57-2.22,1.32-3.33,2v-.47c-.07-.1-.15-.19-.23-.29v-.18C314.79,341.89,314.71,341.73,314.63,341.57Zm.69-4.83-.08.29.08-.3.06-.1Zm.69-1.16.41-.47-.18-.1-.22.57-.06.09Zm.65-3.29.25.29c.15-.18.31-.34.46-.52,0,0-.07-.11-.17-.26Z" transform="translate(-207.15 -297.71)"/><path class="cls-11" d="M361,389.68l-.71-.24-.46-.62a4.12,4.12,0,0,1-2.26-3.26,44.5,44.5,0,0,1-.72-5.41c-.27-2.86-.47-5.74-.7-8.61.64-.08,1.29-.13,1.92-.26,1.44-.28,2.87-.6,4.3-.9h1.18c1.17-3.59.61-7.06.13-10.54,0-.3.19-.65.3-1a8.27,8.27,0,0,0,4.78-.71s0-.14.06-.21h.46a3.78,3.78,0,0,0,1.18.19c2.91-.42,5.81-.9,8.72-1.33a9.61,9.61,0,0,1,1.42,0,51.16,51.16,0,0,0-2.49,5.51c-1.23,3.74-2.21,7.56-3.34,11.33-.58,1.92-.75,2-2.45,1-.23-.12-.47-.25-.71-.36-1.44-.67-2.25-.41-3,1a5.73,5.73,0,0,0-.39.83c-1,2.37-1.94,4.73-2.87,7.11-.1.25.08.59.13.9.28-.12.67-.17.82-.38a8.24,8.24,0,0,0,.93-1.7c.81-2,1.58-4,2.35-6,.35-.9.93-1,1.72-.56.23.14.47.25.71.38,2,1.14,3.15.73,3.84-1.52s1.21-4.82,2-7.17c1.09-3.16,2.4-6.25,3.59-9.39a3.67,3.67,0,0,0,.07-1.06,13,13,0,0,1,1.33-.58c.7-.21,1.42-.35,2.13-.52,1.71.23,1.48,1.67,1.58,2.75.45,5,.8,9.95,1.19,14.92.15,1.86.4,3.72.43,5.58a6.38,6.38,0,0,1-3.27,6.14,14.16,14.16,0,0,1-3.6,1c-2.74.65-5.48,1.26-8.22,1.88a1.37,1.37,0,0,1-.35,0l-.44.06-.86.2c-.21-.07-.44-.23-.62-.19-2.25.41-4.48.84-6.72,1.31a2.78,2.78,0,0,0-.81.52l-1.1.07Z" transform="translate(-207.15 -297.71)"/><path class="cls-11" d="M302.88,367.43v.39a2.8,2.8,0,0,0-.46.64c-.19.64-.31,1.29-.46,1.93l-5.59-.24c-1.5-.06-3.09.37-4.32-.94a17.15,17.15,0,0,1,.26-2.38,5.33,5.33,0,0,1,5.57-4.28c2.91,0,5.81.18,8.72.2.85,0,1.48.08,1.47,1a10.74,10.74,0,0,1,2.06-.95c1.48-.33,3-.49,4.49-.79,5.65-1.11,11.28-2.27,16.93-3.35a10.32,10.32,0,0,1,2.41.1l.26.83c.13.13.25.36.38.36a62.57,62.57,0,0,0,7.75-.08c4.52-.56,9-1.43,13.5-2.21,1.13-.2,2.23-.55,3.35-.83l-.05-.24-1-.1.14.18,5.87-3.13h.45a.2.2,0,0,0,0,.08l.06,0-.1-.09.92-.23.48-.46c2.88-.33,5.76-.65,8.63-1,2.69-.33,5.36-.71,8-1.07l1.93-.23a4,4,0,0,1,3.6,1.63c-.82,1.3-.86,1.26-2.09.62a3.25,3.25,0,0,0-1.95-.33c-7.45,1.42-14.89,2.9-22.33,4.38,0,0-.06,0-.19.17.16,1.52.32,3.14.52,4.75.18,1.44.38,2.87.6,4.3.1.67-.3.9-.83,1-3.79.65-7.59,1.27-11.38,1.93-3.23.55-6.46,1.15-9.69,1.71-1.23.22-2.47.38-3.94.6-.15-1.34-.29-2.61-.43-3.88-.07-.56-.15-1.11-.22-1.67,0-.38,0-.76,0-1.14v-1.85l-.2-.7a8.16,8.16,0,0,0-2.2-.62,26.49,26.49,0,0,0-3.4.41c-5.51.77-11,1.51-16.53,2.31-1.92.28-4.09.09-5.2,2.36l-1.49-1,.22-.23,0-.53c-.62,1.1-1.6,1.05-2.59,1-.31,0-.61,0-.91,0C302.81,365.79,302.54,366.21,302.88,367.43Z" transform="translate(-207.15 -297.71)"/><path class="cls-12" d="M287.24,457.74,298.46,456a8.21,8.21,0,0,1,1.11,0c-.78.84-1.55,1.69-2.49,2.72,1.38.32,2.4.59,3.45.78a116.31,116.31,0,0,0,22.81,2.26c5-.07,10,.32,14.94-.84,2.68-.64,5.37-1.22,8-2s4.89-1.7,7.33-2.57l1.28-.47c-.32-.43-.55-1.08-1-1.24a38.65,38.65,0,0,0-3.72-1.06l-3.09-.81,9.54.12c2.29,0,4.59,0,6.89.06a11.86,11.86,0,0,0,6.07-1.32c2.43-1.34,4.89-2.63,7.3-4,1.82-1,3.59-2.17,5.38-3.26-1.66,1.74-3.3,3.49-5,5.21a37.57,37.57,0,0,1-11.35,8c-.26.12-.42.43-.62.64l-.92.68-.24,0c-.28-.1-.59-.33-.82-.27-.62.17-1.21.48-1.82.7a92.78,92.78,0,0,1-27.3,5.46,112.66,112.66,0,0,1-14.8-.45,103.81,103.81,0,0,1-11.86-1.79c-6.58-1.33-13.11-2.87-19.67-4.34C287.66,458.14,287.46,457.89,287.24,457.74Z" transform="translate(-207.15 -297.71)"/><path class="cls-13" d="M335.84,479.1c.29-.39.49-.89.87-1.13,2.17-1.43,4.42-2.75,6.58-4.2,1.62-1.08,3.11-2.36,4.72-3.45,1.15-.78,2.43-1.39,3.64-2.1s2.34-1.37,3.48-2.11c.25-.16.35-.55.52-.83a3.46,3.46,0,0,0,.81-.24c1-.59,2-1.22,2.93-1.83.45-.28.81-.55,1.34.05.23.26,1.09.21,1.52,0a18.1,18.1,0,0,0,2.31-1.48c.6,1.17,1.26,2.31,1.77,3.51.8,1.92,1.51,3.89,2.26,5.83a.25.25,0,0,0,0,.19A54.68,54.68,0,0,1,355,476.1,131.54,131.54,0,0,1,335.84,479.1Z" transform="translate(-207.15 -297.71)"/><path class="cls-14" d="M353.61,456.33c-2.44.87-4.85,1.84-7.33,2.57s-5.32,1.37-8,2c-4.93,1.16-9.94.77-14.94.84a116.31,116.31,0,0,1-22.81-2.26c-1-.19-2.07-.46-3.45-.78.94-1,1.71-1.88,2.49-2.72l1.24-.58.68,0-1.85,2a4.59,4.59,0,0,0,1.14.55c1.12.21,2.26.34,3.39.49l6.17.83a3.83,3.83,0,0,0,.68.08l8.17-.44c1.22-.07,2.44-.17,3.66-.18,1.73,0,3.07-1.1,4.62-1.6,1.83-.58,3.68-1.1,5.49-1.72A12.94,12.94,0,0,0,336,454a3,3,0,0,0,1.31-1.91c.08-1,.55-1.08,1.29-1.12a8.5,8.5,0,0,0,1.12-.21c.26.45.43,1.2.8,1.31,3.08,1,5.93,2.64,9.25,2.93A16.43,16.43,0,0,1,353.61,456.33Z" transform="translate(-207.15 -297.71)"/><path class="cls-15" d="M290.92,463c-.41.12-.84.21-1.24.37a38.13,38.13,0,0,1-4.13,1.64c-2.12.56-4.29.88-6.44,1.3-.11,0-.24,0-.34,0-2.27.84-4.58.3-6.88.19-1.29-.07-2.57-.35-3.86-.36a4.43,4.43,0,0,0-1.61.67l-4.25,2a5,5,0,0,1-2.34-4,2.66,2.66,0,0,0,.47-.48q2.54-4.37,5-8.76a3.61,3.61,0,0,0,.21-.83h.27c1.66.12,2.93,1.14,4.34,1.85l3.24,1.62.67.44c1.33.43,2.65.9,4,1.29,1.59.45,3.2.83,4.8,1.24h1.33l.75.23h.4l1.9.7h.4Z" transform="translate(-207.15 -297.71)"/><path class="cls-16" d="M287.64,462.08h-.4l-1.9-.7h-.4l-.75-.23h-1.33c-.28-.22-.52-.56-.83-.65-2.36-.75-4.74-1.45-7.12-2.13-.24-.07-.56.16-.84.25l-.67-.44-1.08-1.08c.72-.48,2.92-.14,3.38.58s.84.94,1.63.33a3,3,0,0,1,1.71-.29c2.73,0,5.47,0,8.2,0,.22.15.42.4.66.45,6.56,1.47,13.09,3,19.67,4.34a103.81,103.81,0,0,0,11.86,1.79,112.66,112.66,0,0,0,14.8.45,92.78,92.78,0,0,0,27.3-5.46c.61-.22,1.2-.53,1.82-.7.23-.06.54.17.82.27a11.47,11.47,0,0,1-2.25,1.63c-2.07.85-4.21,1.53-6.32,2.27l-1,.36.07.29a4.93,4.93,0,0,0,.87-.12l11.29-4a6,6,0,0,1,.88-.16l-3.13,2.66a18.1,18.1,0,0,1-2.31,1.48c-.43.21-1.29.26-1.52,0-.53-.6-.89-.33-1.34-.05-1,.61-1.94,1.24-2.93,1.83a3.46,3.46,0,0,1-.81.24,13,13,0,0,0-2-.16c-2.86.21-5.73.43-8.59.73a92,92,0,0,1-18.47-.16c-3.73-.37-7.48-.57-11.23-.87-1.14-.09-2.28-.25-3.42-.37a6.47,6.47,0,0,0-1.42-.49,27,27,0,0,0-3.24-.12c-.22,0-.44.35-.66.54l-10.84-1V463l8.3.76,0-.3c-2.74-.41-5.47-.85-8.22-1.18a5,5,0,0,0-1.69.46h-.72l-.31-.08-.21-.11-1.42.37-.31-.06C290.69,462.1,288.93,461.7,287.64,462.08Z" transform="translate(-207.15 -297.71)"/><path class="cls-17" d="M241.64,372.2c.44-.43.9-.84,1.3-1.3.87-1,1.71-2,2.57-3.06-.93,2.72-2.68,5.05-3.2,8s-2,5.76-2.33,8.89-1.75,5.86-1.71,9c0,2.3-1,4.51-.56,7,.3,1.86-.16,3.8.35,5.74.4,1.53.15,3.2.31,4.8s-.22,3.43.57,5.22.2,4,1,6a9.72,9.72,0,0,1,.27,3.86c-.27,5.17,3,8.79,5.52,12.72a24.7,24.7,0,0,0,2.72,2.8,17,17,0,0,0,4.93,3.53,53.44,53.44,0,0,0,6.31,2.44c1.72.63,3.44,1.24,5.18,1.78a11.45,11.45,0,0,0,2.41.4,6.81,6.81,0,0,0,1.47-.19l.16.32.06.38-1.8.89-1.52-.07c-1.2-.41-2.4-.83-3.61-1.23-2.55-.84-5.12-1.63-7.65-2.52-1.46-.52-2.86-1.2-4.29-1.8l0,0c-.37-1.22-1.41-1.55-2.46-1.88h0l-.71-.65-.15-.11c-.78-.82-1.57-1.64-2.35-2.47a26.22,26.22,0,0,1-6.18-13.28c-.78-4.6-1.4-9.24-2.09-13.87A66.06,66.06,0,0,1,238,386.18c1-3.77,2.15-7.52,3.23-11.27.07-.26.11-.53.16-.79s0-.24,0-.36Z" transform="translate(-207.15 -297.71)"/><path class="cls-18" d="M352.87,335.58a11.62,11.62,0,0,0-6.82,1.48,11.38,11.38,0,0,0-6.26-7.72v-.43c4.09-.54,7.62,1.1,11.14,2.95-.16-1-.53-1.37-3.86-3.63a9.5,9.5,0,0,1,7.93.17,9.62,9.62,0,0,1,5.75,7.32h-3c-.1,0-.2,0-.05,0h.06a38,38,0,0,0,3.78,2.56c4.63,2.44,6.6,6.77,5.24,11.59-.3,1.06-.79,1.67-1.92,1.74-.67.05-1.33.21-2,.32.22-1.22.49-2.3.61-3.39.65-6.12-3.23-10.89-9.1-12.65l-1-.29-.25-.68-1.29-2.41-.68-.81-.31.25.69.88,1.32,2.39Z" transform="translate(-207.15 -297.71)"/><path class="cls-6" d="M364.56,461.78l3.13-2.66,2.7-1.64a4.53,4.53,0,0,1,.3.46c1.21,2.45,2.41,4.91,3.61,7.36a10.63,10.63,0,0,1-1.53,2.85,37.08,37.08,0,0,1-4,3,.25.25,0,0,0-.18-.05c-.75-1.94-1.46-3.91-2.26-5.83C365.82,464.09,365.16,463,364.56,461.78Z" transform="translate(-207.15 -297.71)"/><path class="cls-14" d="M382.28,444.35c-1.79,1.09-3.56,2.22-5.38,3.26-2.41,1.37-4.87,2.66-7.3,4a11.86,11.86,0,0,1-6.07,1.32c-2.3-.05-4.6,0-6.89-.06l-9.54-.12L342.05,451c1.22-.08,2.45-.23,3.68-.21,2,.05,4,.16,6,.33,2.77.24,5.52.68,8.29.79a36.22,36.22,0,0,0,7.29-.34,17.25,17.25,0,0,0,4.71-1.94c1.47-.75,2.86-1.68,4.26-2.56,2.76-1.75,5.51-3.54,8.27-5.3a8.37,8.37,0,0,1,1-.48Z" transform="translate(-207.15 -297.71)"/><path class="cls-3" d="M364.18,353.56l-5.87,3.13-.14-.18,1,.1.05.24c-1.12.28-2.22.63-3.35.83-4.49.78-9,1.65-13.5,2.21a62.57,62.57,0,0,1-7.75.08c-.13,0-.25-.23-.38-.36l.12,0,.11,0,.23,0,3.58-.17a17.66,17.66,0,0,0-3-.6c-.12,0-.2-.35-.29-.54,3.49,1.11,6.94.37,10.38-.32a1.7,1.7,0,0,0,.92-.74c.45-.75.79-1.56,1.21-2.41l.17.67.28.16,1.44-2.51-.21,2.27-.35,1.24,4.72-.52c.19.14.4.41.57.39,2.9-.44,5.81-.94,8.38-2.5.31-.19.48-.6.72-.91Z" transform="translate(-207.15 -297.71)"/><path class="cls-3" d="M354.28,384.43l-3.69-9.22c1.41-.73,2.8-1.51,4.23-2.19.73-.34,1,.1,1.06.84.12,2,.27,4,.42,6,.08,1,.15,2.08.28,3.12s-.33,1.64-1.49,1.48A5.48,5.48,0,0,0,354.28,384.43Z" transform="translate(-207.15 -297.71)"/><path class="cls-12" d="M350.13,374.7c-.93.18-1.85.4-2.79.52-2.4.3-4.8.55-7.21.83-.48.05-1,.15-1.43.23l-.34-3.49c3.33-.58,6.58-1.14,9.83-1.72.95-.16,1.41.18,1.49,1.18A20.3,20.3,0,0,0,350.13,374.7Z" transform="translate(-207.15 -297.71)"/><path class="cls-19" d="M310.26,328.45l0-.4,12.61-1.89c1.7-.25,3.44-.34,5.1-.75,2.95-.74,5.77-.23,8.62.43,1.34.31,2.71.52,4.06.77V327c-1.07.26-2.14.58-3.23.74a4.08,4.08,0,0,1-2.31-.07c-4.22-2.27-8.49-2.17-12.92-.76a24.19,24.19,0,0,1-4.5.77C315.2,328,312.73,328.21,310.26,328.45Z" transform="translate(-207.15 -297.71)"/><path class="cls-19" d="M373.57,349c-1.45,0-2.84,0-4.23,0-.2,0-.54-.6-.52-.9a11.69,11.69,0,0,0-2-7.72c0-.05,0-.14,0-.21C367.7,340.36,372.66,346.78,373.57,349Z" transform="translate(-207.15 -297.71)"/><path class="cls-20" d="M374.48,437.44l6.7-1,1-.18-2.79,2.38-1.21.37.15.4,2.79-1.09h0l1.34,0a4.12,4.12,0,0,1-4.2,1.41,12.14,12.14,0,0,0-2.47.09c-.69,0-1.39-.06-2.08-.09Z" transform="translate(-207.15 -297.71)"/><path class="cls-21" d="M363.22,389.77a2.78,2.78,0,0,1,.81-.52c2.24-.47,4.47-.9,6.72-1.31.18,0,.41.12.62.19-.6.21-1.18.46-1.79.63-1.49.42-3,.79-4.51,1.19l.11.57,4.29-.58.49-.15.67,0c1,0,2,0,3,.1,1.31.14,2.61.4,3.91.6-4.29.16-8.58.34-12.88.48a4.78,4.78,0,0,1-1.94-.4l1.59-.52Z" transform="translate(-207.15 -297.71)"/><path class="cls-3" d="M336.29,364.62c0,.38,0,.76,0,1.14-.16.22-.41.42-.45.65-.29,1.58-.39,1.65-2,1.28-.18-.05-.37-.05-.59-.09-.26.46,1.33,1.29-.27,1.41l-.21,0a7.13,7.13,0,0,0-.06-1.22c-.34-1.57-.49-3,1.24-4a16.45,16.45,0,0,0,2.07-1.69c.07.24.14.47.2.7A1.05,1.05,0,0,0,336.29,364.62Z" transform="translate(-207.15 -297.71)"/><path class="cls-18" d="M379.84,387.89l4.06-.82c-.28,2.15-.52,4-.76,5.94h-.39l-.42-.46c.24-.55.16-.83-.52-.62l0,0a5.76,5.76,0,0,0-.34-1.46C381,389.56,380.38,388.74,379.84,387.89Z" transform="translate(-207.15 -297.71)"/><path class="cls-20" d="M288.57,415.09l-6.63-.71c0-.74-.37-1-1.06-.93l-2,.23.8-.89-1.19-3.44,1,.41c.49.72,1,1.43,1.45,2.19a2,2,0,0,0,2.18,1.28c1.79.59,3.52,1.46,5.51,1.19Z" transform="translate(-207.15 -297.71)"/><path class="cls-8" d="M363.24,353.1c-.24.31-.41.72-.72.91-2.57,1.56-5.48,2.06-8.38,2.5-.17,0-.38-.25-.57-.39l2.32-.89,3.11-1.62,1.09-.58Z" transform="translate(-207.15 -297.71)"/><path class="cls-22" d="M269.11,334.83c0,.29,0,.73-.15.84-4.24,2.84-8.5,5.67-12.79,8.44a9.17,9.17,0,0,1-2.15.69q6.43-4.31,12.86-8.61C267.6,335.71,268.37,335.28,269.11,334.83Z" transform="translate(-207.15 -297.71)"/><path class="cls-3" d="M345.18,339.77a2.72,2.72,0,0,0,.28.9c.71.87,1.48,1.69,2.22,2.53l-.26.27-.52-.39c-.49-.35-1-.95-1.49-1-1.37-.14-2-1.1-2.86-1.93a25.89,25.89,0,0,0-4.16-2.76,5.87,5.87,0,0,0-.89-.34l.07-.27a3.19,3.19,0,0,1,.89.15c1.71.76,3.41,1.54,5.11,2.32l1,.48Z" transform="translate(-207.15 -297.71)"/><path class="cls-3" d="M380.56,356.8a9.61,9.61,0,0,0-1.42,0c-2.91.43-5.81.91-8.72,1.33a3.78,3.78,0,0,1-1.18-.19c1.89-.39,3.77-.81,5.67-1.15q4.32-.77,8.67-1.42a4.29,4.29,0,0,1,1.33.26c-.71.17-1.43.31-2.13.52a13,13,0,0,0-1.33.58Z" transform="translate(-207.15 -297.71)"/><path class="cls-6" d="M265.55,454.7a3.61,3.61,0,0,1-.21.83q-2.5,4.39-5,8.76a2.66,2.66,0,0,1-.47.48,10.33,10.33,0,0,1,.58-2.33c1.19-2.3,2.46-4.55,3.79-6.78C264.46,455.23,265.09,455,265.55,454.7Z" transform="translate(-207.15 -297.71)"/><path class="cls-12" d="M377.54,390.45c-1.3-.2-2.6-.46-3.91-.6-1-.11-2-.07-3-.1l5.2-1.16c.3-.06.6-.08.9-.17a1.36,1.36,0,0,1,1.9,1.09c.2.69.34,1.39.51,2.09l-.67-.58-.53-.34Z" transform="translate(-207.15 -297.71)"/><path class="cls-21" d="M250.06,445.81c1.43.6,2.83,1.28,4.29,1.8,2.53.89,5.1,1.68,7.65,2.52,1.21.4,2.41.82,3.61,1.23-1.45-.27-2.91-.5-4.35-.82a33.32,33.32,0,0,1-10.52-4.15A7.44,7.44,0,0,1,250.06,445.81Z" transform="translate(-207.15 -297.71)"/><path class="cls-22" d="M278.43,455.18c2.21,0,4.42,0,6.62,0,1.17,0,2.34-.15,3.51-.23.16.55.05.89-.61.91-2,.06-4,.18-5.94.19-1.18,0-2.36-.14-3.54-.22C278.46,455.6,278.45,455.39,278.43,455.18Z" transform="translate(-207.15 -297.71)"/><path class="cls-18" d="M374.3,465.3c-1.2-2.45-2.4-4.91-3.61-7.36a4.53,4.53,0,0,0-.3-.46l.79-.6c1.05,2.13,2.13,4.14,3,6.22A6.4,6.4,0,0,1,374.3,465.3Z" transform="translate(-207.15 -297.71)"/><path class="cls-22" d="M290.19,454.72l9-1.49c.34-.05.68-.07,1-.1l-1,1.14-1.61.22c-1.61.25-3.21.51-4.82.75a7.41,7.41,0,0,1-1.81.14C290.67,455.36,290.44,455,290.19,454.72Z" transform="translate(-207.15 -297.71)"/><path class="cls-14" d="M288.61,414.42c-2,.27-3.72-.6-5.51-1.19l0-.93a25.89,25.89,0,0,0,3.3.87,30.46,30.46,0,0,0,3.45.08,1.64,1.64,0,0,1,.57.27Z" transform="translate(-207.15 -297.71)"/><path class="cls-19" d="M384.68,395.5c2.28.82,2.94,1.73,2.93,4.05,0,.76,0,1.53,0,2.3l-.41,0c-.7-1.76-1.41-3.51-2.11-5.27-.15-.38-.29-.76-.43-1.14Z" transform="translate(-207.15 -297.71)"/><path class="cls-13" d="M329.31,396.42a2.45,2.45,0,0,1,.43-.31c1.58-.56,3.15-1.12,4.73-1.66a4.33,4.33,0,0,1,.89-.1,10.78,10.78,0,0,0-.67.95,2,2,0,0,0-.1.66h0l-.31-.36-.49.59h0l-2.09.1Z" transform="translate(-207.15 -297.71)"/><path class="cls-19" d="M272,447.84v.37c0,.4,0,.8,0,1.2v0c-.68.28-1,1.37-2.06.81l0-.8.93-2.28,1.09.13Z" transform="translate(-207.15 -297.71)"/><path class="cls-3" d="M362.33,370.38c-1.43.3-2.86.62-4.3.9-.63.13-1.28.18-1.92.26.22-.24.4-.66.64-.7,1.57-.28,3.15-.49,4.73-.68A2.49,2.49,0,0,1,362.33,370.38Z" transform="translate(-207.15 -297.71)"/><path class="cls-14" d="M379.84,387.89c.54.85,1.13,1.67,1.6,2.55a5.76,5.76,0,0,1,.34,1.46L379,388.58l.4-.67Z" transform="translate(-207.15 -297.71)"/><path class="cls-19" d="M366.57,339.67c-1.26-.92-2.54-1.8-3.75-2.77-.25-.2-.27-.71-.39-1.09l.31-.2,4.06,3.86Z" transform="translate(-207.15 -297.71)"/><path class="cls-3" d="M368.78,357.94c0,.07,0,.19-.06.21a8.27,8.27,0,0,1-4.78.71Z" transform="translate(-207.15 -297.71)"/><path class="cls-14" d="M381.05,438.32h0l-1.73.32,2.79-2.38,0,0c.11.1.33.26.31.3a9.19,9.19,0,0,1-.52.85Z" transform="translate(-207.15 -297.71)"/><path class="cls-20" d="M381.92,437.43a9.19,9.19,0,0,0,.52-.85s-.2-.2-.31-.3l2.23-1.27A3.43,3.43,0,0,1,381.92,437.43Z" transform="translate(-207.15 -297.71)"/><path class="cls-21" d="M269.9,449.4l0,.8-.71.18c-.11-.08-.23-.15-.35-.22l-.16-.32c.18-1.84.45-2.42,1.2-2.77l-.76,2.57.28.08Z" transform="translate(-207.15 -297.71)"/><path class="cls-21" d="M244.35,440.66c.78.83,1.57,1.65,2.35,2.47C245.92,442.31,245.13,441.49,244.35,440.66Z" transform="translate(-207.15 -297.71)"/><path class="cls-21" d="M247.57,443.9c1.05.33,2.09.66,2.46,1.88Z" transform="translate(-207.15 -297.71)"/><path class="cls-9" d="M278.43,455.18c0,.21,0,.42,0,.63-.75-.14-1.82.27-1.9-1.07Z" transform="translate(-207.15 -297.71)"/><path class="cls-21" d="M267.13,451.43l1.8-.89h.14Z" transform="translate(-207.15 -297.71)"/><path class="cls-3" d="M297.58,454.49l1.61-.22C298.75,455,298.17,454.78,297.58,454.49Z" transform="translate(-207.15 -297.71)"/><path class="cls-3" d="M301.49,455.39l-.68,0v-.36l.22-.1.93-.19v.4Z" transform="translate(-207.15 -297.71)"/><path class="cls-3" d="M328.34,330.55l-1,.6Z" transform="translate(-207.15 -297.71)"/><path class="cls-3" d="M340.63,327v-.43l.83.07,0,.27Z" transform="translate(-207.15 -297.71)"/><path class="cls-3" d="M364.41,458.86l.92-.68Z" transform="translate(-207.15 -297.71)"/><path class="cls-3" d="M379.44,387.91l-.4.67-.29-.48Z" transform="translate(-207.15 -297.71)"/><path class="cls-3" d="M299.78,335.62l-.63.42-.31-.26Z" transform="translate(-207.15 -297.71)"/><path class="cls-21" d="M246.85,443.24l.71.65Z" transform="translate(-207.15 -297.71)"/><path class="cls-14" d="M381.81,391.94c.68-.21.76.07.52.62Z" transform="translate(-207.15 -297.71)"/><path class="cls-3" d="M359.79,388.82l.46.62-.44-.25Z" transform="translate(-207.15 -297.71)"/><path class="cls-3" d="M237.92,378.18l.44.35-.29.26Z" transform="translate(-207.15 -297.71)"/><path class="cls-3" d="M352.87,335.58l-.05-.38.27-.3.25.68Z" transform="translate(-207.15 -297.71)"/><path class="cls-3" d="M268.56,453.11l.21.45-.57-.18Z" transform="translate(-207.15 -297.71)"/><path class="cls-3" d="M339.78,328.91v.43l-.39-.26Z" transform="translate(-207.15 -297.71)"/><path class="cls-3" d="M331.18,328.42l-.09-.4.46.15Z" transform="translate(-207.15 -297.71)"/><path class="cls-3" d="M387.23,401.9l.41,0c-.06.14-.11.29-.17.44Z" transform="translate(-207.15 -297.71)"/><path class="cls-12" d="M370,389.79l-.49.15Z" transform="translate(-207.15 -297.71)"/><path class="cls-3" d="M291.71,414.38l.27.41-.51-.11Z" transform="translate(-207.15 -297.71)"/><path class="cls-3" d="M366,352.87l-.48.46Z" transform="translate(-207.15 -297.71)"/><path class="cls-3" d="M269.07,450.54h-.14l-.06-.38c.12.07.24.14.35.22Z" transform="translate(-207.15 -297.71)"/><path class="cls-3" d="M335.45,394.11l.38-.42Z" transform="translate(-207.15 -297.71)"/><path class="cls-3" d="M306.56,479.82l.46,0Z" transform="translate(-207.15 -297.71)"/><path class="cls-22" d="M254,344.79l-.44.25Z" transform="translate(-207.15 -297.71)"/><path class="cls-16" d="M271.33,456.58l-.32-.11a2.09,2.09,0,0,1,.25,0S271.29,456.52,271.33,456.58Z" transform="translate(-207.15 -297.71)"/><path class="cls-21" d="M372.23,387.93l.44-.06Z" transform="translate(-207.15 -297.71)"/><path class="cls-3" d="M357.74,335.7h-.06c-.15,0-.05,0,.05,0Z" transform="translate(-207.15 -297.71)"/><path class="cls-12" d="M301,455l-.22.1a.29.29,0,0,1-.07-.2Z" transform="translate(-207.15 -297.71)"/><path class="cls-9" d="M241.46,373.76c0,.12,0,.24,0,.36C241.44,374,241.45,373.88,241.46,373.76Z" transform="translate(-207.15 -297.71)"/><polygon class="cls-16" points="64.16 158.85 64.26 158.9 64.22 158.94 64.16 158.85"/><path class="cls-3" d="M337.21,375l-.23-.24Z" transform="translate(-207.15 -297.71)"/><path class="cls-19" d="M384.69,395.49l-.1,0,.09.05Z" transform="translate(-207.15 -297.71)"/><path class="cls-3" d="M368.59,471.12a.25.25,0,0,1,.18.05l-.19.14A.25.25,0,0,1,368.59,471.12Z" transform="translate(-207.15 -297.71)"/><path class="cls-6" d="M265.82,454.72h-.28l.08-.16Z" transform="translate(-207.15 -297.71)"/><path class="cls-23" d="M283.13,412.3l0,.93a2,2,0,0,1-2.18-1.28c-.42-.76-1-1.47-1.45-2.19l-.64-1.61a14.73,14.73,0,0,1,.52-8.29l1.28-2.07c-3.15-2.56-5.28-5.71-5.49-10.22a16,16,0,0,0-3.1,2.51,11.17,11.17,0,0,0-1.89,4,19.93,19.93,0,0,0-.14,4.64,1.09,1.09,0,0,0,.64.78c1.07.38.72.92.22,1.46a7.29,7.29,0,0,0-.85,7.53,9.73,9.73,0,0,0,8.87,5.17l2-.23c.69-.07,1.08.19,1.06.93-1.37,1.22-3,1-4.59.77-2.19-.34-4.33-.93-6.51-1.35-1.22-.24-2.46-.37-3.56-.53a16.27,16.27,0,0,1,1.31,1.75c.45.79,1.41,1.16,1.41,2.34a26.76,26.76,0,0,0,.57,4.33c1,6,2,11.92,3.11,17.87.17.91,0,1.41-.95,1.5-.39-1.45-.89-2.89-1.16-4.37q-1.32-7.37-2.5-14.78c-.28-1.76-.38-3.56-.51-5.35a3.88,3.88,0,0,0-2.26-2.86c-2.9-.79-5.79-1.6-8.68-2.4a1,1,0,0,1-.65-.52l3.47.76a35.33,35.33,0,0,0,0-4.49c-.67-5.07-1.67-10.1-2.15-15.18-.44-4.79-1.19-9.63.11-14.44.24-.91.34-1.86.5-2.8.76.06,1.09.28,1,1.22-.43,3.38-.87,6.76-1,10.16a31.31,31.31,0,0,0,.76,5.64c.82,5.33,1.68,10.66,2.45,16a26.35,26.35,0,0,1,0,3.57c1.7-.62,3.28-1.15,4.8-1.81.2-.08.23-.81.17-1.21a11.42,11.42,0,0,1,.58-6.1c.09-.22.13-.51.29-.62,1.15-.83.75-1.84.57-3a9.84,9.84,0,0,1,0-3.86c.84-3.39,2.15-6.57,5.26-8.62l.4-.24c-.77-1.39-1.51-2.63-2.17-3.92-1.86-3.66-.64-7,1.38-10.06a36,36,0,0,1,3.06-3.39,1.48,1.48,0,0,0,.36-1.05,14.27,14.27,0,0,1,.63-7.89,13,13,0,0,1,6.38-7.05l1.16,0,.86,1.16-1.27.57a4.18,4.18,0,0,0-1.37.35,11.47,11.47,0,0,0-5.12,10.05c0,1.28.17,2.56.26,3.84a3.74,3.74,0,0,1-.71,1,12.48,12.48,0,0,0-5,8.14c-.33,1.74.43,3.32,1.26,4.8.45.79,1,1.51,1.58,2.28a4.31,4.31,0,0,1,.95-.29c.71,0,1.12.45.7,1-1,1.37-.55,2.81-.3,4.19.66,3.61,3.11,6,5.87,8.08a4.88,4.88,0,0,1,.77.91c-.34.22-.82.7-1,.61-.84-.46-1.13.1-1.42.64a9.76,9.76,0,0,0-.49,8.54A27.57,27.57,0,0,0,283.13,412.3Zm-14.88-3.62.17.26-.06-.35c-.12-2-.24-4-.36-5.81C267.45,404.65,266.94,406.68,268.25,408.68Zm4.22,4.78.07.05-.08,0a8.73,8.73,0,0,1-1.36-1c-.61-.66-1.19-1.08-2-.29-1.48-1.52-2.67-1.52-5.09.13Z" transform="translate(-207.15 -297.71)"/><path class="cls-3" d="M292.05,369.21c1.23,1.31,2.82.88,4.32.94l5.59.24c.09,1.16.18,2.31.28,3.46,0,.14.14.28.16.42.17,1.17.36,2.33.46,3.5s.09,2.38.2,3.56c.12,1.36.36,2.71.5,4.07.25,2.31.43,4.62.68,6.93.12,1.09-.23,1.57-1.39,1.54-2.14-.05-4.28-.17-6.41-.21-1.18,0-2.37.06-2.46-1.61,0-.12-.19-.23-.29-.35.08-.28.17-.55.24-.84s.13-.75.19-1.13c.75-.42,1.24-.93.69-1.84,1-4.71.77-9.31-1.49-13.65a7.74,7.74,0,0,1-1.28-3.62Z" transform="translate(-207.15 -297.71)"/><path class="cls-24" d="M362.1,432.82c-.39-.41-1.08-.8-1.11-1.23a46,46,0,0,1,.07-5.38,6.78,6.78,0,0,1,2.39-4.55,12.44,12.44,0,0,1,5-3.16,8.86,8.86,0,0,0,1.77.14,6.61,6.61,0,0,1,5.2,1.27,29.85,29.85,0,0,1,3.45,3.48,4.7,4.7,0,0,1,.94,4.1c-1.88.34-3.1,1.78-4.61,2.73a5.61,5.61,0,0,1-4.44,1c-.84-.18-2.07-.61-2.88.45l-1.13.05-2.79.62C363.3,432.42,362.47,431.82,362.1,432.82Z" transform="translate(-207.15 -297.71)"/><path class="cls-2" d="M293.69,391.7c.1.12.28.23.29.35.09,1.67,1.28,1.58,2.46,1.61,2.13,0,4.27.16,6.41.21,1.16,0,1.51-.45,1.39-1.54-.25-2.31-.43-4.62-.68-6.93-.14-1.36-.38-2.71-.5-4.07-.11-1.18-.09-2.38-.2-3.56s-.29-2.33-.46-3.5c0-.14-.15-.28-.16-.42-.1-1.15-.19-2.3-.28-3.46.15-.64.27-1.29.46-1.93a2.8,2.8,0,0,1,.46-.64c0,1.93.05,3.86.13,5.79.07,1.52.22,3,.34,4.56.07.86.13,1.72.24,2.57.16,1.3.4,2.6.52,3.9s.1,2.53.18,3.79c0,.75.13,1.49.24,2.23.31,2.12.13,4.38,1.58,6.18a22.25,22.25,0,0,0,2.18,2.06l-.41.16v.21a4.47,4.47,0,0,0,1.14.12c5.3-.67,10.59-1.38,15.88-2.07.91-.12,1.75-.86,2.75-.31.1.05.35-.25.55-.31.37-.12.75-.19,1.12-.28l2.36-.12,2.09-.1-2.64.8-.6.15-.32.07a2.52,2.52,0,0,0-.67,0c-4.09.77-8.2,1.42-12.25,2.36a37.11,37.11,0,0,1-12.51.79,4.5,4.5,0,0,1-.76-.2l0-.41,3.12-.18.05-.41a16.26,16.26,0,0,0-1.79-.37c-1.49-.12-3-.18-4.47-.24-1,0-1.93,0-2.9,0l-1.47-.49-.3,1a5.1,5.1,0,0,1-3.83-4.09,4.72,4.72,0,0,0-.43-1l.33-2.09v-1.39Z" transform="translate(-207.15 -297.71)"/><path class="cls-25" d="M366.23,442.09c-1.32.28-2.62.63-4,.83a18.53,18.53,0,0,1-2.69.06c-1.48,0-3,0-4.44,0a27.87,27.87,0,0,1-3.52-.5c-1.19-.22-2.37-.51-3.53-.81-3.89-1-7.81-1.94-11.65-3.1a11.51,11.51,0,0,1-3.67-2.1,5.46,5.46,0,0,0-3.72-1.13,3.18,3.18,0,0,1-1,0,3.34,3.34,0,0,1-.87-.57c.22-.27.38-.7.66-.79a16.64,16.64,0,0,1,2.2-.48,6.9,6.9,0,0,1-.45-1.55,3.26,3.26,0,0,1,.36-1.15c.34.23.95.42,1,.69.36,2.35,2.2,3.18,4,4.26,4.85,3,10.31,3.79,15.76,4.71a30.36,30.36,0,0,0,12.45-.1,40,40,0,0,0,5.46-2.21l1.28-.14h.33l.45-.11-.46,1.85-2.08,1.34-1.47.83,0,0Z" transform="translate(-207.15 -297.71)"/><path class="cls-2" d="M292.05,369.21v1.41l-1.22,1.29c-1.82-4.29.46-11.08,6.86-11.33.39,0,1,.19,1.16.46.42,1,1.1.79,1.88.69,2.81-.38,5.63-.68,8.45-1.05a12.79,12.79,0,0,0,1.76-.48,1.28,1.28,0,0,0,1.47-1.11c.23-1.13.42-2.27.63-3.4a17.51,17.51,0,0,1,1.34,2,3.59,3.59,0,0,0,2.68,1.84l1.52-.06,9.67-1c.63.42.67,0,.68-.48l3-.32.75.09,1.74-2.31.42,0c-.2.63-.44,1.26-.58,1.9-.06.24.1.53.15.8l-.48.64a10.32,10.32,0,0,0-2.41-.1c-5.65,1.08-11.28,2.24-16.93,3.35-1.49.3-3,.46-4.49.79a10.74,10.74,0,0,0-2.06.95c0-.94-.62-1-1.47-1-2.91,0-5.81-.16-8.72-.2a5.33,5.33,0,0,0-5.57,4.28A17.15,17.15,0,0,0,292.05,369.21Z" transform="translate(-207.15 -297.71)"/><path class="cls-25" d="M315.1,343c1.11-.68,2.17-1.43,3.33-2a12,12,0,0,1,16.67,9.11h-.36c0-.11-.08-.22-.11-.33-.67-2.68-1.73-5-4.83-5.62-.31-.07-.57-.37-.86-.55-2.66-1.65-5.39-2.71-8.56-1.38-2.58,1.09-4.91,2.44-6.25,5-.41.64-1.15,1.27-1.18,1.92a45.33,45.33,0,0,0,.3,5.06h-.41l-.27-.7c-.67-1.81-1.06-3.79-2.07-5.38-1.68-2.64-4.41-3.66-7.5-3.69a2.4,2.4,0,0,1-1.27-.34c4.07-.93,7.1,1.07,9.8,3.49Z" transform="translate(-207.15 -297.71)"/><path class="cls-26" d="M379.77,427.49a4.7,4.7,0,0,0-.94-4.1,29.85,29.85,0,0,0-3.45-3.48,6.61,6.61,0,0,0-5.2-1.27,8.86,8.86,0,0,1-1.77-.14c-.2-.86.28-1.22,1-1.3,2.69-.29,5.27-.12,7.43,1.83,2.4,2.16,4.44,4.54,4.39,8,0,2.23-.69,4.18-3.07,5.16a4.72,4.72,0,0,0-2,1.8,28.84,28.84,0,0,0-1.72,3.48l-.84,2.33a.2.2,0,0,1-.13.16l-2.94-.27a4.32,4.32,0,0,0,2-4l.55-1.26c.21-.27.41-.54.64-.79,1.78-2,3.06-4.53,5.79-5.55C379.68,428,379.7,427.7,379.77,427.49Z" transform="translate(-207.15 -297.71)"/><path class="cls-20" d="M298,398.48c1,0,1.94,0,2.9,0,1.49.06,3,.12,4.47.24a16.26,16.26,0,0,1,1.79.37l-.05.41-3.12.18,0,.41a4.5,4.5,0,0,0,.76.2,37.11,37.11,0,0,0,12.51-.79c4.05-.94,8.16-1.59,12.25-2.36a2.52,2.52,0,0,1,.67,0l-5.39,1.53c-4.3,1.23-8.58,2.55-12.92,3.66a6.67,6.67,0,0,1-3.54-.19C304.88,401.08,301.47,399.74,298,398.48Z" transform="translate(-207.15 -297.71)"/><path class="cls-3" d="M342.05,451l5.05,1.71,3.09.81a38.65,38.65,0,0,1,3.72,1.06c.43.16.66.81,1,1.24l-1.28.47a16.43,16.43,0,0,0-3.82-1.3c-3.32-.29-6.17-2-9.25-2.93-.37-.11-.54-.86-.8-1.31C340.6,450.05,341.27,451,342.05,451Z" transform="translate(-207.15 -297.71)"/><path class="cls-25" d="M356.42,397.72a5.65,5.65,0,0,1-1.16.56c-2.42.58-4.86,1.05-7.26,1.68-1.35.36-2.63,1-4,1.46a3.6,3.6,0,0,1-1.22,0c.18-.39.27-.91.57-1.16a4.5,4.5,0,0,1,1.63-.83c3.24-.87,6.5-1.72,9.76-2.52C355.34,396.74,356.11,396.52,356.42,397.72Z" transform="translate(-207.15 -297.71)"/><path class="cls-26" d="M279.19,380.79c.24-1.27.43-2.56.77-3.8.08-.28.67-.43,1-.63.14.35.48.79.38,1-1.31,3.39.4,5.56,2.89,7.45a6.3,6.3,0,0,1,1.17.91,2.82,2.82,0,0,1,.28,1.09c-.37,0-.89.23-1.11.06A36.1,36.1,0,0,1,281,383.8C280.14,383,278.8,382.37,279.19,380.79Z" transform="translate(-207.15 -297.71)"/><path class="cls-26" d="M280.5,365.5a11.82,11.82,0,0,1,.3-1.89c.07-.24.5-.36.77-.54.18.3.55.64.5.9a7.18,7.18,0,0,0,1.25,5.22,2,2,0,0,1-.07,1.56,10.34,10.34,0,0,1-1.36,2.1c-.19.25-.59.33-.89.49-.12-.33-.43-.73-.33-1A27.85,27.85,0,0,1,282,369.8l-1.07-1.65Z" transform="translate(-207.15 -297.71)"/><path class="cls-14" d="M313.25,354.25a45.33,45.33,0,0,1-.3-5.06c0-.65.77-1.28,1.18-1.92a7.36,7.36,0,0,1-.23,1.34c-1,2.77-.2,5.32,1.26,7.59.83,1.28,2.25,2.17,3.41,3.24l-1.52.06a10.39,10.39,0,0,1-1.29-1.18c-.66-.85-1.24-1.77-1.84-2.67-.33-.5-.63-.84-.89,0-.21,1.13-.4,2.27-.63,3.4a1.28,1.28,0,0,1-1.47,1.11c.48-1.58.95-3.16,1.44-4.73.05-.13.28-.21.42-.31l.58.07Z" transform="translate(-207.15 -297.71)"/><path class="cls-26" d="M366.71,431.69l1.13-.05c1.72.52,1.75.59,1,2.18a1.83,1.83,0,0,0-.11.33l-.15.27c-.18.07-.37.21-.53.18-1.54-.25-3.09-.47-4.61-.83-.49-.12-.89-.62-1.33-.95.37-1,1.2-.4,1.82-.51Z" transform="translate(-207.15 -297.71)"/><path class="cls-5" d="M278.31,368.35c-.09-1.28-.24-2.56-.26-3.84a11.47,11.47,0,0,1,5.12-10.05,4.18,4.18,0,0,1,1.37-.35,11.35,11.35,0,0,0-4.78,5.69c-.13,1.51-.26,3-.41,4.52,0,.29-.13.57-.19.86Z" transform="translate(-207.15 -297.71)"/><path class="cls-25" d="M294.15,350.3c.13.69.41,1.21.25,1.51-.92,1.78-.41,3.44.25,5.12a4.36,4.36,0,0,1,.14,1.1c-.45-.08-1,0-1.31-.27-1.07-1-1.33-5.42-.44-6.58A6.47,6.47,0,0,1,294.15,350.3Z" transform="translate(-207.15 -297.71)"/><path class="cls-25" d="M313.18,404.93a3.76,3.76,0,0,1-.89.73c-1.9.72-3.81,1.41-5.74,2-.27.08-.68-.25-1-.39.18-.32.29-.83.56-.94,2-.79,3.92-1.53,5.91-2.2.31-.11.77.23,1.16.36Z" transform="translate(-207.15 -297.71)"/><path class="cls-24" d="M368.57,434.42l.15-.27a4.09,4.09,0,0,1,.91.39c.57.41,1.1.88,1.79,1.44.23-1.51.26-2.86,1.81-3.3,0,.62-.08,1.19-.11,1.75-.19.42-.37.84-.55,1.26l-1.95,2.2-.45.11h-.33l-1.28.14a20.4,20.4,0,0,0,.42-2.44A3.92,3.92,0,0,0,368.57,434.42Z" transform="translate(-207.15 -297.71)"/><path class="cls-14" d="M285.81,353.54l-.86-1.16-2.1-3.46v0c-.08-.34-.15-.67-.23-1,0-1.42-.08-2.85.05-4.27a7,7,0,0,1,.8-1.95,15.2,15.2,0,0,0-.38,3.12,12.55,12.55,0,0,0,.89,4.56c.72,1.43,2.1,2.52,3.22,3.79Z" transform="translate(-207.15 -297.71)"/><path class="cls-25" d="M314.05,407.28c-.61.54-.87.91-1.22,1.05a27.16,27.16,0,0,1-3.15,1.07c-.29.07-.69-.23-1-.35.21-.31.34-.78.63-.91a31.32,31.32,0,0,1,3.43-1.28C313,406.77,313.39,407.06,314.05,407.28Z" transform="translate(-207.15 -297.71)"/><path class="cls-20" d="M370.62,437.89l1.95-2.2a4.32,4.32,0,0,1-2,4l2.94.27-1,1.5c-.87.2-1-.6-1.39-1l0,0-.45-.21-.49-.19a1.77,1.77,0,0,1,0-.23Z" transform="translate(-207.15 -297.71)"/><path class="cls-14" d="M292.34,391.8l-.33,2.09-3.58-2.23.11-.25Z" transform="translate(-207.15 -297.71)"/><path class="cls-25" d="M340.94,401.8c.24.25.65.48.7.77s-.37.61-.66.73a6.55,6.55,0,0,1-1.75.46c-.31,0-.65-.19-1-.29.15-.31.22-.77.46-.89A17.24,17.24,0,0,1,340.94,401.8Z" transform="translate(-207.15 -297.71)"/><path class="cls-21" d="M279.16,365.18c.06-.29.16-.57.19-.86.15-1.5.28-3,.41-4.52a10.48,10.48,0,0,0,.1,5c.08.28.42.48.64.72l.43,2.65c-.43-.66-.88-1.32-1.3-2C279.44,365.85,279.32,365.51,279.16,365.18Z" transform="translate(-207.15 -297.71)"/><path class="cls-14" d="M366.61,441.91l1.47-.83c.12,1.2.23,1.24,1.42.53a19.53,19.53,0,0,1-1.56,1.46c-.08.07-.51-.24-.73-.44A6,6,0,0,1,366.61,441.91Z" transform="translate(-207.15 -297.71)"/><path class="cls-12" d="M302,455.16v-.4l3.84-.89.12.49Z" transform="translate(-207.15 -297.71)"/><path class="cls-6" d="M369.5,441.61c-1.19.71-1.3.67-1.42-.53l2.08-1.34a1.77,1.77,0,0,0,0,.23l.06,0,0,.06-.42.4Z" transform="translate(-207.15 -297.71)"/><path class="cls-13" d="M314.15,337.19c1.09.55,1.11,1.3.55,2.29a5,5,0,0,0-.3,1.62,5.9,5.9,0,0,1,0-1.39,3,3,0,0,0-.67-2.48Z" transform="translate(-207.15 -297.71)"/><path class="cls-3" d="M314.15,337.19l-.45,0c-.44-.41-.91-.82-1.33-1.26-.09-.1,0-.33-.05-.5Z" transform="translate(-207.15 -297.71)"/><path class="cls-6" d="M371.14,440.4c.4.43.52,1.23,1.39,1l-1.07.31Z" transform="translate(-207.15 -297.71)"/><path class="cls-2" d="M294.81,387.89c.55.91.06,1.42-.69,1.84Z" transform="translate(-207.15 -297.71)"/><path class="cls-21" d="M361,389.68l1.16.16Z" transform="translate(-207.15 -297.71)"/><path class="cls-2" d="M313.25,354.25l.12,1-.58-.07-.05-.67.1-.24Z" transform="translate(-207.15 -297.71)"/><path class="cls-14" d="M312.84,354.25l-.1.24-.17-.94Z" transform="translate(-207.15 -297.71)"/><path class="cls-3" d="M333.77,396.2l.49-.59.31.36Z" transform="translate(-207.15 -297.71)"/><path class="cls-21" d="M377.94,390.68l.53.34Z" transform="translate(-207.15 -297.71)"/><path class="cls-20" d="M330.52,397.15l.6-.15Z" transform="translate(-207.15 -297.71)"/><path class="cls-14" d="M369.78,440.47l.42-.4Z" transform="translate(-207.15 -297.71)"/><path class="cls-14" d="M366.23,442.09l.35-.15-.1.44Z" transform="translate(-207.15 -297.71)"/><path class="cls-6" d="M370.66,440.16l.45.21Z" transform="translate(-207.15 -297.71)"/><path class="cls-13" d="M314.63,341.57c.08.16.16.32.23.48C314.79,341.89,314.71,341.73,314.63,341.57Z" transform="translate(-207.15 -297.71)"/><path class="cls-14" d="M283.53,341.59l.19-.31Z" transform="translate(-207.15 -297.71)"/><path class="cls-14" d="M283.8,341.13l.18-.26Z" transform="translate(-207.15 -297.71)"/><path class="cls-14" d="M284,340.88l.2-.31Z" transform="translate(-207.15 -297.71)"/><path class="cls-14" d="M284.25,340.44l.19-.27Z" transform="translate(-207.15 -297.71)"/><path class="cls-13" d="M314.86,342.23c.08.1.16.19.23.29C315,342.42,314.94,342.33,314.86,342.23Z" transform="translate(-207.15 -297.71)"/><path class="cls-2" d="M260.07,368.71c.95-1.73,1.86-3.49,2.86-5.2,1.71-2.95,3.52-5.84,5.2-8.8a6.86,6.86,0,0,0,.41-2.08c.43-1.63.41-3.41,1.56-5.05,1.51,1.58-.3,3.06.21,4.56l5.36-7.06a4.09,4.09,0,0,1,.6-.84,1,1,0,0,1,.87-.22.88.88,0,0,1,.29.84,9,9,0,0,1-1.08,1.88c-1.37,1.8-2.82,3.55-4.18,5.36-.62.82-1.11,1.74-1.68,2.6-.14.22-.34.57-.5.56-1.07,0-1.28.82-1.65,1.5-2.11,3.79-4.19,7.6-6.31,11.38C261.31,369.42,261.12,369.44,260.07,368.71Z" transform="translate(-207.15 -297.71)"/><path class="cls-23" d="M271.88,335.57a7.64,7.64,0,0,1,.93.43c1.12.8,2.25,1.6,3.31,2.47.25.2.24.7.35,1.06-.4,0-.91.2-1.19,0-1.32-.83-2.6-1.75-3.86-2.68a.87.87,0,0,1-.18-.78C271.33,335.87,271.66,335.74,271.88,335.57Z" transform="translate(-207.15 -297.71)"/><path class="cls-20" d="M282.85,348.92l2.1,3.46-1.16,0C283.48,351.25,283.16,350.09,282.85,348.92Z" transform="translate(-207.15 -297.71)"/><path class="cls-2" d="M283,339.49l.22-.57.23.22c-.13.12-.27.23-.41.34Z" transform="translate(-207.15 -297.71)"/><path class="cls-20" d="M282.62,347.94c.08.34.15.67.23,1C282.77,348.61,282.7,348.28,282.62,347.94Z" transform="translate(-207.15 -297.71)"/><path class="cls-3" d="M283,339.49h0Z" transform="translate(-207.15 -297.71)"/><path class="cls-25" d="M306.57,464.38c.22-.19.44-.54.66-.54a27,27,0,0,1,3.24.12,6.47,6.47,0,0,1,1.42.49Z" transform="translate(-207.15 -297.71)"/><path class="cls-2" d="M287.64,462.08c1.29-.38,3.05,0,3.54.82l-.26,0Z" transform="translate(-207.15 -297.71)"/><path class="cls-3" d="M293.43,462.78h.72l1.58.26v.39l-2.32-.34Z" transform="translate(-207.15 -297.71)"/><path class="cls-2" d="M291.49,463l1.42-.37C292.63,463.43,292,463,291.49,463Z" transform="translate(-207.15 -297.71)"/><path class="cls-2" d="M293.43,462.78l0,.3c-.1-.13-.19-.26-.29-.38Z" transform="translate(-207.15 -297.71)"/><path class="cls-2" d="M285.38,431.79c-.12.15-.28.51-.53.61a.9.9,0,0,1-.76-.3,2.85,2.85,0,0,1-.48-1.15c-.68-3.87-1.36-7.75-2-11.64-.06-.37.32-.8.5-1.2.29.33.78.62.85,1,.81,4.09,1.56,8.19,2.32,12.28C285.33,431.46,285.34,431.53,285.38,431.79Z" transform="translate(-207.15 -297.71)"/><path class="cls-23" d="M284.59,435.83l.71-.93.78,1s0,.07,0,.11c.08.6.55,1.47-.41,1.59S284.83,436.72,284.59,435.83Z" transform="translate(-207.15 -297.71)"/><path class="cls-2" d="M336.08,362.07a16.45,16.45,0,0,1-2.07,1.69c-1.73,1-1.58,2.44-1.24,4a7.13,7.13,0,0,1,.06,1.22l-.36,0c0-.22-.06-.44-.1-.67l-.23-3.69c-.29-.22-.61-.66-.86-.63-3.23.51-6.44,1.09-9.67,1.65-3,.51-6,1-9,1.55-.28.05-.5.43-.75.66l-2.69,2.47a28.88,28.88,0,0,1-2.76-2,4,4,0,0,0-3.08-1.18l.14-.56-.21-.06-.15.62-.24.27c-.34-1.22-.07-1.64,1.07-1.66.3,0,.6,0,.91,0,1,.06,2,.11,2.59-1l0,.53-.22.23,1.49,1c1.11-2.27,3.28-2.08,5.2-2.36,5.51-.8,11-1.54,16.53-2.31a26.49,26.49,0,0,1,3.4-.41A8.16,8.16,0,0,1,336.08,362.07Z" transform="translate(-207.15 -297.71)"/><path class="cls-21" d="M332.37,368.3c0,.23.07.45.1.67-2.29,3.71-4.56,7.43-6.9,11.11-.73,1.14-1.41,1.26-2.65.77-.28-.11-.56-.24-.85-.33-1.88-.52-2.29-.37-3.26,1.33-1.69,3-3.35,5.94-5,8.89a9.87,9.87,0,0,1-1.16,1.56c-.16.17-.51.17-.77.25,0-.32-.18-.71,0-.93,2.07-3.62,4.23-7.19,6.24-10.84,1.07-1.93,2.44-2.08,4.36-1.43s1.86.68,2.89-1c1.94-3.16,3.89-6.32,5.89-9.45C331.38,368.59,332,368.5,332.37,368.3Z" transform="translate(-207.15 -297.71)"/><path class="cls-3" d="M311.87,367.84c.25-.23.47-.61.75-.66,3-.55,6-1,9-1.55,3.23-.56,6.44-1.14,9.67-1.65.25,0,.57.41.86.63-2.92.5-5.84,1-8.77,1.5C319.54,366.71,315.7,367.26,311.87,367.84Z" transform="translate(-207.15 -297.71)"/><path class="cls-3" d="M303.12,367.16l.15-.62.21.06-.14.56h-.22Z" transform="translate(-207.15 -297.71)"/><path class="cls-27" d="M269.9,449.4l-.47.32-.28-.08.76-2.57c-.75.35-1,.93-1.2,2.77a6.81,6.81,0,0,1-1.47.19,11.45,11.45,0,0,1-2.41-.4c-1.74-.54-3.46-1.15-5.18-1.78a53.44,53.44,0,0,1-6.31-2.44,17,17,0,0,1-4.93-3.53,24.7,24.7,0,0,1-2.72-2.8c-2.53-3.93-5.79-7.55-5.52-12.72a9.72,9.72,0,0,0-.27-3.86c-.76-2-.17-4.21-1-6s-.41-3.49-.57-5.22.09-3.27-.31-4.8c-.51-1.94-.05-3.88-.35-5.74-.39-2.44.6-4.65.56-7,0-3.18,1.38-6,1.71-9s1.8-5.9,2.33-8.89,2.27-5.29,3.2-8c1.3-1.4,3-1.63,4.79-1.59-.14,1.11.81,1.26,1.48,1.57a5.93,5.93,0,0,1,3.78,4.72,20.64,20.64,0,0,1,.14,5.71,116.75,116.75,0,0,0-1.24,17.52,11.27,11.27,0,0,0,.28,1.79,3.75,3.75,0,0,0-.33,3.15l-.06,5.6c-.17.23-.51.47-.5.69.05,1.06.21,2.11.32,3.16,0,3-.18,6,0,9a26.44,26.44,0,0,0,.89,6c1.79,6.5,5.91,11.56,10.65,16.09,1.92,1.84,3.95,3.5,5.17,5.91Zm-11.25-11a13.16,13.16,0,0,0-5.11,2.84c-.11.1-.25.26-.24.38a1.62,1.62,0,0,0,.21.9c.11.12.58,0,.8-.09q2.24-1.23,4.43-2.56a1.27,1.27,0,0,0,.59-.82C259.32,438.8,258.87,438.58,258.65,438.38Z" transform="translate(-207.15 -297.71)"/><path class="cls-3" d="M270.83,447.12c-1.22-2.41-3.25-4.07-5.17-5.91-4.74-4.53-8.86-9.59-10.65-16.09a26.44,26.44,0,0,1-.89-6c-.13-3,0-6,0-9l1-.38a11.39,11.39,0,0,1,.24,1.61c0,4.59-.14,9.2,1,13.67a21,21,0,0,0,4.6,8.4c2.34,2.68,4.9,5.16,7.27,7.8a54.6,54.6,0,0,1,3.35,4.35,3.89,3.89,0,0,1,.38,1.18l-.12.46Z" transform="translate(-207.15 -297.71)"/><path class="cls-23" d="M254.74,397.56a11.27,11.27,0,0,1-.28-1.79,116.75,116.75,0,0,1,1.24-17.52,20.64,20.64,0,0,0-.14-5.71,5.93,5.93,0,0,0-3.78-4.72c-.67-.31-1.62-.46-1.48-1.57.33-.05.69-.21,1-.11,2.94,1.05,5.24,2.79,5.71,6.1a22.55,22.55,0,0,1,0,4.5c-.15,2.24-.52,4.47-.63,6.71-.22,4.62-.33,9.24-.49,13.86l-.68.25Z" transform="translate(-207.15 -297.71)"/><path class="cls-23" d="M254.35,406.31l.06-5.6.76-.41.46.28c0,1.57.05,3.14,0,4.7a4.92,4.92,0,0,1-.46,1.37Z" transform="translate(-207.15 -297.71)"/><path class="cls-17" d="M254.35,406.31l.81.34c0,1,0,2.08,0,3.13l-1,.38c-.11-1.05-.27-2.1-.32-3.16C253.84,406.78,254.18,406.54,254.35,406.31Z" transform="translate(-207.15 -297.71)"/><path class="cls-5" d="M255.63,400.58l-.46-.28c0-.91,0-1.83,0-2.74l.68-.25Z" transform="translate(-207.15 -297.71)"/><path class="cls-25" d="M242.71,368.07l.86-1.12.3.23-.89,1.11Z" transform="translate(-207.15 -297.71)"/><path class="cls-25" d="M241.82,370.15l.57-1.6.38.2-1,1.39Z" transform="translate(-207.15 -297.71)"/><path class="cls-2" d="M272,449.41c0-.4,0-.8,0-1.2C273,448.6,272.23,449,272,449.41Z" transform="translate(-207.15 -297.71)"/><path class="cls-2" d="M271.92,447.25l.12-.46c.32.37.86.75-.06,1Z" transform="translate(-207.15 -297.71)"/><path class="cls-25" d="M241.82,370.14l-.21.7h-.21l.42-.69Z" transform="translate(-207.15 -297.71)"/><path class="cls-2" d="M241.4,370.84h.21c0,.17,0,.35-.05.52h-.16Z" transform="translate(-207.15 -297.71)"/><path class="cls-14" d="M355.89,355.23l-2.32.89-4.72.52.35-1.24c2-.13,3.93-.27,5.9-.38A2.89,2.89,0,0,1,355.89,355.23Z" transform="translate(-207.15 -297.71)"/><path class="cls-6" d="M334,358.78l.48-.64.57.14c.09.19.17.52.29.54a17.66,17.66,0,0,1,3,.6l-3.58.17-.23,0-.11,0-.12,0Z" transform="translate(-207.15 -297.71)"/><path class="cls-3" d="M334.74,350.1h.36a10.4,10.4,0,0,1-.23,5.34l-.42,0Z" transform="translate(-207.15 -297.71)"/><path class="cls-3" d="M316.66,332.29l.54-.49c.1.15.18.24.17.26-.15.18-.31.34-.46.52Z" transform="translate(-207.15 -297.71)"/><path class="cls-13" d="M316,335.58l.22-.57.18.1-.41.47Z" transform="translate(-207.15 -297.71)"/><path class="cls-13" d="M315.32,336.73l-.08.3.08-.29Z" transform="translate(-207.15 -297.71)"/><path class="cls-13" d="M315.32,336.74l.06-.11-.06.1Z" transform="translate(-207.15 -297.71)"/><path class="cls-13" d="M316,335.58l-.05.09.06-.09Z" transform="translate(-207.15 -297.71)"/><path class="cls-21" d="M380.56,356.8l.89-.07a3.67,3.67,0,0,1-.07,1.06c-1.19,3.14-2.5,6.23-3.59,9.39-.81,2.35-1.29,4.8-2,7.17s-1.85,2.66-3.84,1.52c-.24-.13-.48-.24-.71-.38-.79-.48-1.37-.34-1.72.56-.77,2-1.54,4-2.35,6a8.24,8.24,0,0,1-.93,1.7c-.15.21-.54.26-.82.38,0-.31-.23-.65-.13-.9.93-2.38,1.9-4.74,2.87-7.11a5.73,5.73,0,0,1,.39-.83c.79-1.38,1.6-1.64,3-1,.24.11.48.24.71.36,1.7.94,1.87.9,2.45-1,1.13-3.77,2.11-7.59,3.34-11.33A51.16,51.16,0,0,1,380.56,356.8Z" transform="translate(-207.15 -297.71)"/><path class="cls-2" d="M336.29,364.62a1.05,1.05,0,0,1,0-1.85C336.29,363.39,336.29,364,336.29,364.62Z" transform="translate(-207.15 -297.71)"/><path class="cls-3" d="M307.26,365.54l.22-.23Z" transform="translate(-207.15 -297.71)"/><path class="cls-3" d="M364.63,353.56l.1.09-.06,0a.2.2,0,0,1,0-.08Z" transform="translate(-207.15 -297.71)"/><path class="cls-2" d="M274.07,458.63c.28-.09.6-.32.84-.25,2.38.68,4.76,1.38,7.12,2.13.31.09.55.43.83.65-1.6-.41-3.21-.79-4.8-1.24C276.72,459.53,275.4,459.06,274.07,458.63Z" transform="translate(-207.15 -297.71)"/><path class="cls-2" d="M285.34,461.39l1.9.7Z" transform="translate(-207.15 -297.71)"/><path class="cls-2" d="M284.19,461.16l.75.23Z" transform="translate(-207.15 -297.71)"/><path class="cls-2" d="M283.26,461.16h0Z" transform="translate(-207.15 -297.71)"/><path class="cls-6" d="M295.73,463l-1.58-.26a5,5,0,0,1,1.69-.46c2.75.33,5.48.77,8.22,1.18l0,.3Z" transform="translate(-207.15 -297.71)"/><path class="cls-12" d="M353.09,334.9l-.27.3-1.32-2.39.3-.32Z" transform="translate(-207.15 -297.71)"/><path class="cls-3" d="M351.8,332.49l-.3.32-.69-.88.31-.25Z" transform="translate(-207.15 -297.71)"/><path class="cls-11" d="M334.45,359.61l.23,0Z" transform="translate(-207.15 -297.71)"/><path class="cls-3" d="M379.36,438.64l1.73-.32-2.79,1.09-.15-.4Z" transform="translate(-207.15 -297.71)"/><path class="cls-10" d="M278.89,413.68a9.73,9.73,0,0,1-8.87-5.17,7.29,7.29,0,0,1,.85-7.53c.5-.54.85-1.08-.22-1.46a1.09,1.09,0,0,1-.64-.78,19.93,19.93,0,0,1,.14-4.64,11.17,11.17,0,0,1,1.89-4,16,16,0,0,1,3.1-2.51c.21,4.51,2.34,7.66,5.49,10.22l-1.28,2.07c-.13.07-.31.11-.38.21a9.51,9.51,0,0,0-1.16,7.12c0,.12.28.19.43.29l.26,1.87,1.19,3.44Z" transform="translate(-207.15 -297.71)"/><path class="cls-6" d="M278.5,409.35c-.09-.62-.18-1.25-.26-1.87l.59.67.64,1.61Z" transform="translate(-207.15 -297.71)"/><path class="cls-19" d="M272.47,413.46l-8.42-1.19c2.42-1.65,3.61-1.65,5.09-.13.77-.79,1.35-.37,2,.29a8.73,8.73,0,0,0,1.36,1Z" transform="translate(-207.15 -297.71)"/><path class="cls-14" d="M278.83,408.15l-.59-.67c-.15-.1-.41-.17-.43-.29a9.51,9.51,0,0,1,1.16-7.12c.07-.1.25-.14.38-.21A14.73,14.73,0,0,0,278.83,408.15Z" transform="translate(-207.15 -297.71)"/><path class="cls-9" d="M268.25,408.69c-1.31-2-.8-4-.25-5.91.12,1.84.24,3.82.36,5.81Z" transform="translate(-207.15 -297.71)"/><path class="cls-9" d="M268.36,408.59l.06.35c-.06-.08-.11-.17-.17-.26Z" transform="translate(-207.15 -297.71)"/><path class="cls-19" d="M272.46,413.47l.08,0-.07-.05Z" transform="translate(-207.15 -297.71)"/><path class="cls-28" d="M373.12,434.43l.11-1.75c-1.55.44-1.58,1.79-1.81,3.3-.69-.56-1.22-1-1.79-1.44a4.09,4.09,0,0,0-.91-.39,1.83,1.83,0,0,1,.11-.33c.76-1.59.73-1.66-1-2.18.81-1.06,2-.63,2.88-.45a5.61,5.61,0,0,0,4.44-1c1.51-1,2.73-2.39,4.61-2.73-.07.21-.09.55-.22.6-2.73,1-4,3.54-5.79,5.55C373.53,433.89,373.33,434.16,373.12,434.43Z" transform="translate(-207.15 -297.71)"/><path class="cls-28" d="M366.71,431.69l-2.79.62Z" transform="translate(-207.15 -297.71)"/><path class="cls-20" d="M369.84,438h0Z" transform="translate(-207.15 -297.71)"/><path class="cls-29" d="M334.74,350.1l-.29,5.3-1.74,2.31.06-1.09-.19,0-.62,1-3,.32c-.33,0-1-.4-.68.48l-9.67,1c-1.16-1.07-2.58-2-3.41-3.24-1.46-2.27-2.27-4.82-1.26-7.59a7.36,7.36,0,0,0,.23-1.34c1.34-2.61,3.67-4,6.25-5,3.17-1.33,5.9-.27,8.56,1.38.29.18.55.48.86.55,3.1.61,4.16,2.94,4.83,5.62C334.66,349.88,334.7,350,334.74,350.1Z" transform="translate(-207.15 -297.71)"/><path class="cls-25" d="M313,355.69c.26-.88.56-.54.89,0,.6.9,1.18,1.82,1.84,2.67a10.39,10.39,0,0,0,1.29,1.18,3.59,3.59,0,0,1-2.68-1.84A17.51,17.51,0,0,0,313,355.69Z" transform="translate(-207.15 -297.71)"/><path class="cls-3" d="M332,357.62l.62-1,.19,0-.06,1.09Z" transform="translate(-207.15 -297.71)"/><path class="cls-3" d="M328.24,358.42c-.29-.88.35-.46.68-.48C328.91,358.41,328.87,358.84,328.24,358.42Z" transform="translate(-207.15 -297.71)"/><path class="cls-26" d="M258.65,438.38c.22.2.67.42.68.65a1.27,1.27,0,0,1-.59.82q-2.19,1.33-4.43,2.56c-.22.13-.69.21-.8.09a1.62,1.62,0,0,1-.21-.9c0-.12.13-.28.24-.38A13.16,13.16,0,0,1,258.65,438.38Z" transform="translate(-207.15 -297.71)"/><path class="cls-17" d="M255.19,397.56c0,.91,0,1.83,0,2.74l-.76.41a3.75,3.75,0,0,1,.33-3.15Z" transform="translate(-207.15 -297.71)"/></svg>