<svg id="Calque_1" data-name="Calque 1" xmlns="http://www.w3.org/2000/svg" viewBox="0 0 405.69 405.51"><defs><style>.cls-1{fill:#ff9c01;stroke:#000;stroke-miterlimit:10;stroke-width:10px;}</style></defs><path class="cls-1" d="M187.79,370.63c-2.84,0-5.68,0-8.52,0-4.86.06-9.72.12-14.59.24a37.48,37.48,0,0,1-11.77-1.46c-2.9-.87-5.88-1.52-8.74-2.51a43.68,43.68,0,0,1-5.66-2.69,45.55,45.55,0,0,1-5.37-3c-2.4-1.7-4.66-3.6-6.95-5.47a33.29,33.29,0,0,1-4-3.52c-2.37-2.68-4.69-5.43-6.82-8.3-1.59-2.15-2.7-4.66-4.32-6.78-1.8-2.37-2.8-5.11-4.14-7.69a24.74,24.74,0,0,1-1-3c-.8-2.21-1.71-4.38-2.42-6.62-.58-1.82-.94-3.7-1.37-5.56-.38-1.66-.76-3.33-1.07-5a31.75,31.75,0,0,0-.42-3.27c-.91-3-.21-6.07-.45-9.1s.55-5.75,1.08-8.6A13.39,13.39,0,0,1,104.2,282a10.07,10.07,0,0,1,4.89-3c.55-.18,1.1-.32,1.65-.5a9.61,9.61,0,0,1,9.65,2.49c8.21,7.63,16.1,15.6,24.09,23.46,3.33,3.28,6.61,6.62,9.94,9.9a2.36,2.36,0,0,0,1.43.6,48.76,48.76,0,0,0,5.27,0c1.38-.1,2.75-.49,4.12-.7,2.21-.34,4.43-.61,6.64-.95,1.61-.25,3.21-.58,4.82-.82,2.06-.31,4.12-.62,6.18-.83a3.57,3.57,0,0,0,2.81-1.2,4.21,4.21,0,0,1,.76-.76c1.72-1.26,2.17-3,2.3-5.05s.77-4.28,1.11-6.43c.23-1.44.34-2.89.51-4.34a59.52,59.52,0,0,1,1-7.82c.7-2.63.16-5.2.35-7.79,0-.36-.43-.8-.75-1.12Q175.89,262,160.75,246.85c-2.88-2.9-5.23-6.16-5.67-10.41a5.48,5.48,0,0,1,.27-2.12c.67-2.13.93-4.47,2.64-6.13a15.7,15.7,0,0,1,3.1-2.42c2.52-1.44,5.4-1.62,8.18-2.24,3.8-.84,7.61-.45,11.38-.33a59.83,59.83,0,0,1,9.68,1.62A66.21,66.21,0,0,1,197,226.5c2.14.67,4.22,1.53,6.3,2.37a58.77,58.77,0,0,1,5.45,2.39q4.39,2.31,8.65,4.88a54.77,54.77,0,0,1,12.28,9.93,99,99,0,0,1,8.09,10.27,71.56,71.56,0,0,1,5.33,9.17,76.73,76.73,0,0,1,3.46,8.62c.77,2.19,1.06,4.57,2,6.68.48,1.11-.14,1.84-.13,2.74,0,4.62-.11,9.24-.2,13.87-.06,2.78-.17,5.57-.23,8.35-.09,4.22-.13,8.45-.26,12.67a3.65,3.65,0,0,0,1.19,2.94q18.06,18,36.06,36c1.77,1.77,3.43,3.66,5.21,5.43q12.57,12.5,25.19,25l22.06,21.82c4.57,4.51,9.2,9,13.74,13.52q23.4,23.48,46.75,47a2.34,2.34,0,0,0,2,.82c1.15-.07,2.32,0,3.48,0,5.5-.07,11,.12,16.5-.32s10.83-.47,16.24-.72c2.3-.1,4.25.66,6.3,1.26,2.46.72,4.91,1.5,7.29,2.46a58.34,58.34,0,0,1,5.94,2.92c2.15,1.16,4.29,2.36,6.33,3.69,1.84,1.2,3.56,2.56,5.29,3.92,1.92,1.5,3.86,3,5.64,4.62a54.92,54.92,0,0,1,8.22,10c1.86,2.77,3.59,5.64,5.26,8.53a61.41,61.41,0,0,1,4,8.69,74.94,74.94,0,0,1,3.41,11.61c.62,3,.9,6,1.59,9,.87,3.75.38,7.51.37,11.26a28.36,28.36,0,0,1-1.23,6.28,14,14,0,0,1-2.43,5c-1.81,2.51-4.36,3.35-7.12,4a7.43,7.43,0,0,1-2.73.44A19.24,19.24,0,0,1,472,557.92q-15.09-15.1-30.17-30.21a2.64,2.64,0,0,0-2.19-.88c-2.5.12-5,.07-7.5.28-2.09.18-4.16.63-6.24.95l-6.4.94c-2.7.4-5.4.79-8.1,1.22a1.63,1.63,0,0,0-.75.52c-3.28,3.16-3.27,3.16-3.89,7.78-.56,4.15-1.09,8.3-1.71,12.44-.29,2-.92,3.87-1.11,5.83a46.57,46.57,0,0,0,0,6.47c0,.49.57,1,1,1.42q15.26,15.29,30.53,30.54a17.67,17.67,0,0,1,5.26,9.48,8.08,8.08,0,0,1-.47,3.81,26.79,26.79,0,0,1-2.07,4.24,8.14,8.14,0,0,1-5.29,3.82,49,49,0,0,1-7,1.62,49.8,49.8,0,0,1-8.46.25,95.34,95.34,0,0,1-9.82-1.19,60.62,60.62,0,0,1-7.29-1.68c-2.34-.68-4.6-1.61-6.89-2.44-1-.36-2-.68-2.95-1.11-1.61-.72-3.21-1.48-4.78-2.29a53.35,53.35,0,0,1-5.61-3.06c-3.05-2-6.05-4.21-8.93-6.49a59.79,59.79,0,0,1-5.87-5.38,44,44,0,0,1-7.22-9c-.71-1.29-1.72-2.42-2.42-3.71-1-1.77-1.8-3.6-2.61-5.44-.88-2-1.77-4-2.46-6.14-.52-1.59-.65-3.3-1.11-4.91a43,43,0,0,1-1.45-13c.11-3.92,0-7.84,0-11.75.05-6.06.17-12.12.2-18.18a2.55,2.55,0,0,0-.68-1.63q-21.89-22-43.83-43.86C296.5,470,289.12,463,281.92,455.84q-18.75-18.72-37.35-37.57c-5.29-5.33-10.5-10.73-15.81-16q-15.52-15.5-31.15-30.88a2.47,2.47,0,0,0-1.54-.61C193.31,370.6,190.55,370.63,187.79,370.63Z" transform="translate(-95.16 -218)"/></svg>
