<?xml version="1.0" encoding="utf-8"?>
<!-- Generator: Adobe Illustrator 25.0.0, SVG Export Plug-In . SVG Version: 6.00 Build 0)  -->
<svg version="1.1" id="Calque_1" xmlns="http://www.w3.org/2000/svg" xmlns:xlink="http://www.w3.org/1999/xlink" x="0px" y="0px"
	 viewBox="0 0 322.4 371.5" style="enable-background:new 0 0 322.4 371.5;" xml:space="preserve">
<style type="text/css">
	.st0{fill:#3498DB;stroke:#000000;stroke-width:10;stroke-miterlimit:10;}
</style>
<path class="st0" d="M85.4,297.9c15.5,16.1,39,31.7,59.9,40c16.3,6.5,18,5.6,34.1-1C271.7,298.7,308.8,181,292.5,88.3
	c-0.5-3.4-2.1-6.5-4.5-8.9L161.2,28.1l-5.9,1C119.7,46.5,78.1,57.3,42.9,74.5c-6.8,3.3-11.6,5.4-13.1,13.8
	C18.1,155.1,37.4,248,85.4,297.9 M158.4,5.1c7.4-0.7,15.6,2.7,22.6,5.1C218.7,23,256.3,43,294.1,56.5c17.8,9.8,21.2,23.8,22.4,43
	c6.6,102-23.5,211.2-123.7,255.8c-5.8,2.6-26.8,11.2-31.6,11.2c-5.4,0-23.3-7.6-29.3-10.2C29.6,312.2-0.7,203.2,5.9,99.5
	c1.4-22.1,5.2-34.4,25.8-44.7c29.3-14.7,78.5-34,109.8-44.6C146.3,8.5,153.6,5.5,158.4,5.1"/>
<path class="st0" d="M282.5,84c4.9,4.9,4.5,62.4,3.8,72.7c-4.8,78.1-47,155.2-125.4,178.2C55,303,24.4,184.2,38.6,85.3l122.5-49.6
	L282.5,84z"/>
</svg>
