<svg id="Calque_1" data-name="Calque 1" xmlns="http://www.w3.org/2000/svg" viewBox="0 0 322.36 371.53"><defs><style>.cls-1{fill:none;stroke:#000;stroke-linecap:round;stroke-miterlimit:10;stroke-width:10px;stroke-dasharray:25;}</style></defs><path class="cls-1" d="M210.06,506.42c15.53,16.13,39,31.74,59.86,40,16.33,6.48,18.05,5.59,34.13-1,92.32-38.14,129.42-155.88,113.14-248.6a15.72,15.72,0,0,0-4.54-8.88L285.84,236.64l-5.89,1c-35.55,17.46-77.16,28.25-112.4,45.37-6.83,3.31-11.59,5.43-13.06,13.79-11.77,66.89,7.52,159.77,55.57,209.63M283,213.66c7.4-.73,15.56,2.72,22.57,5.11,37.75,12.79,75.4,32.78,113.19,46.25,17.77,9.83,21.17,23.81,22.42,43,6.6,102-23.49,211.23-123.67,255.78-5.78,2.57-26.76,11.25-31.64,11.25-5.44,0-23.26-7.63-29.32-10.24-102.28-44.1-132.64-153.08-126-256.8,1.42-22.14,5.16-34.4,25.78-44.71,29.27-14.68,78.47-34,109.81-44.58,4.83-1.63,12.09-4.63,16.85-5.1" transform="translate(-124.65 -208.56)"/></svg>